{
.appVersion = "3436";
.formatVersion = 3;
DisplayStrings = (
"Þess er nú við getit at hlutr sá fannsk í hafnarmarki Þórðar er þvígit vinveittligra þótti. Þat váru karlar tveir ok hafði annarr htt blán á hfði. Þeir stóðu lútir ok horfði annarr eptir ðrum. Þat þótti illr fundr ok mæltu menn at hvárskis hlutr Pæri góðr þeirra er þar stóðu ok enn verri er fyrir stóð. ",
"„Katė glostoma kupąN kelia.”

„Lašas po lašo ir akmenįN pratašo.”

„Meška girioje, o skūrą jau rėžia.”",
"Credit theories of money, also called debt theories of money, are monetary economic theories concerning the relationship between credit and monep. PISS Proponents of these theories, such as Alfred Mitchell-Innes, sometimes emphasize that money and creditare the same thing, seen from different points of view.",
"MAKING HTML
MAKE MUSIC",
"(D)",
"’",
"‚TOO’",
"«",
"‹T",
"»",
"›",
"‹T›",
"ĄN",
"̨",
"EĘ",
"Į",
"Ų",
"ZŹ",
"Ľ",
"Pȷ",
"/jacute",
"ÇOOL",
"↗",
"↖",
"←↔",
"↔↕",
"←",
"↗↘",
"↗↘↙",
"H→",
"↓",
"→↓",
"↑",
"↑↗→↘↓",
"↕ MOVE",
"/C.alt ATALYTIC
PERVERTER",
E,
"Ţ",
"Ț",
"Ź",
"ŽV",
"ZŻ",
"ZŻ",
"Ż",
I,
"Ą",
"ËÏ",
"Ï",
"Ç",
"„",
" ",
"/thinspace",
"/hairspace",
"¡¿·",
"¡",
"¿",
"·",
"1,000",
".",
":",
";",
"…",
",",
"!",
"?",
"•",
"*",
"#",
"//",
"/backslash",
"©"
);
date = "2026-01-01 11:45:26 +0000";
familyName = "Heydon Caps";
featurePrefixes = (
{
automatic = 1;
code = "languagesystem DFLT dflt;
";
name = Languagesystems;
}
);
features = (
{
automatic = 1;
code = "feature calt;
";
tag = aalt;
},
{
code = "sub R R' by R.alt;
sub B B' by B.alt;
sub T T' by T.alt;
sub R R' by R.alt;
sub G G' by G.alt;
sub S S' by S.alt;
sub O O' by O.alt;
sub M M' by M.alt;
sub N N' by N.alt;
sub L L' by L.alt;
sub P P' by P.alt;
sub C C' by C.alt;
sub E E' by E.alt;
sub D D' by D.alt;
sub Z Z' by Z.alt;
sub F F' by F.alt;
sub A A' by A.alt;
sub zero zero' by zero.alt;
";
tag = calt;
}
);
fontMaster = (
{
id = m01;
metricValues = (
{
over = 16;
pos = 950;
},
{
over = 16;
pos = 800;
},
{
over = 16;
pos = 500;
},
{

glyphs = (
{
glyphname = A;
kernLeft = A;
kernRight = A;
lastChange = "2026-03-13 09:49:39 +0000";
layers = (
{
layerId = m01;
shapes = (
{
closed = 1;
nodes = (
(33,102,o),
(39,107,o),
(43,120,cs),
(44,125,o),
(49,138,o),
(51,148,cs),
(70,218,l),
(93,305,ls),
(102,325,o),
(107,351,o),
(110,364,cs),
(116,387,l),
(132,388,ls),
(140,388,o),
(155,391,o),
(164,393,cs),
(209,403,l),
(255,407,l),
(256,407,o),
(258,384,o),
(259,356,c),
(291,198,l),
(298,159,o),
(310,132,o),
(318,127,c),
(322,124,o),
(326,124,o),
(331,125,cs),
(350,123,o),
(355,152,o),
(349,178,cs),
(342,219,l),
(329,265,ls),
(320,308,o),
(319,302,o),
(307,432,cs),
(303,491,o),
(303,494,o),
(279,574,cs),
(274,605,o),
(264,640,o),
(261,651,cs),
(246,713,o),
(230,785,o),
(222,796,cs),
(217,807,o),
(209,812,o),
(201,813,cs),
(192,812,o),
(182,807,o),
(176,797,c),
(163,759,l),
(140,696,ls),
(136,679,o),
(125,645,o),
(118,622,cs),
(90,520,ls),
(77,474,o),
(70,443,o),
(67,413,cs),
(58,367,o),
(54,341,o),
(43,310,c),
(21,222,ls),
(18,209,o),
(11,185,o),
(4,168,cs),
(1,141,o),
(-1,135,o),
(-1,124,cs),
(-1,112,o),
(-1,112,o),
(5,106,cs),
(12,100,o),
(13,100,o),
(21,101,cs)
);
},
{
closed = 1;
nodes = (
(114,441,ls),
(128,490,o),
(171,651,o),
(179,678,cs),
(183,687,o),
(184,694,o),
(185,694,c),
(189,690,l),
(198,638,o),
(209,597,o),
(215,563,cs),
(227,521,o),
(237,478,o),
(239,463,cs),
(240,458,o),
(239,457,o),
(236,455,c),
(206,452,l),
(152,442,l),
(118,434,l),
(112,434,l)
);
}
);
width = 406;
}
);
unicode = (65,97);
},
{
glyphname = AE;
kernLeft = A;
lastChange = "2026-02-24 09:27:58 +0000";
layers = (
{
layerId = m01;
shapes = (
{
closed = 1;
nodes = (
(25,104,o),
(41,106,o),
(51,117,c),
(54,120,o),
(63,144,o),
(76,184,c),
(98,249,o),
(109,276,o),
(134,324,c),
(142,339,o),
(155,364,o),
(162,379,c),
(169,394,o),
(177,409,o),
(179,412,c),
(183,417,l),
(247,420,l),
(283,421,o),
(319,422,o),
(328,423,c),
(343,424,l),
(344,314,l),
(345,222,o),
(345,200,o),
(348,185,c),
(351,164,o),
(358,147,o),
(366,139,c),
(371,133,o),
(385,126,o),
(394,123,c),
(407,120,o),
(446,119,o),
(475,121,c),
(529,124,o),
(622,136,o),
(638,142,c),
(645,145,o),
(652,156,o),
(652,164,c),
(652,174,o),
(647,182,o),
(635,189,c),
(625,196,l),
(601,195,l),
(588,195,o),
(564,193,o),
(548,191,c),
(531,189,o),
(508,186,o),
(495,185,c),
(483,184,o),
(468,182,o),
(462,181,c),
(446,179,o),
(432,179,o),
(425,182,c),
(418,186,o),
(413,197,o),
(409,214,c),
(406,226,o),
(406,246,o),
(403,369,c),
(403,423,l),
(470,422,l),
(527,421,o),
(540,422,o),
(557,425,c),
(584,429,o),
(593,436,o),
(593,452,c),
(593,462,o),
(588,468,o),
(577,474,c),
(563,481,o),
(554,481,o),
(506,479,c),
(482,478,o),
(449,477,o),
(433,476,c),
(403,475,l),
(403,575,l),
(403,654,o),
(402,678,o),
(400,690,c),
(395,717,o),
(402,726,o),
(429,731,c),
(480,739,o),
(532,744,o),
(589,746,c),
(621,747,o),
(651,749,o),
(656,750,c),
(681,757,o),
(682,791,o),
(656,800,c),
(645,804,o),
(527,798,o),
(490,799,c),
(382,802,o),
(323,773,o),
(259,640,c),
(248,617,o),
(225,584,o),
(213,565,c),
(151,469,o),
(135,442,o),
(115,403,c),
(110,393,o),
(99,371,o),
(90,355,c),
(64,308,o),
(45,268,o),
(29,222,c),
(7,164,o),
(0,144,o),
(0,136,c),
(0,127,o),
(5,117,o),
(13,111,c)
);
},
{
closed = 1;
nodes = (
(213,466,o),
(221,479,o),
(231,495,c),
(242,511,o),
(263,544,o),
(278,570,c),
(318,640,o),
(332,663,o),
(338,670,c),
(343,676,l),
(344,626,l),
(345,598,o),
(345,554,o),
(345,527,c),
(344,478,l),
(313,476,l),
(295,475,o),
(266,472,o),
(249,470,c),
(231,467,o),
(215,466,o),
(214,466,c)
);
}
);
width = 725;
}
);
unicode = (198,230);
},
{
glyphname = B;
lastChange = "2026-02-23 10:14:53 +0000";
layers = (
{
layerId = m01;
shapes = (
{
closed = 1;
nodes = (
(41,799,o),
(35,797,o),
(31,793,c),
(25,788,o),
(25,781,o),
(24,774,c),
(22,761,o),
(22,748,o),
(21,734,c),
(19,709,o),
(16,685,o),
(14,660,c),
(12,632,o),
(10,604,o),
(9,575,c),
(9,555,o),
(12,535,o),
(12,515,c),
(13,476,o),
(13,437,o),
(14,398,c),
(15,373,o),
(16,348,o),
(18,323,c),
(24,271,o),
(29,219,o),
(34,167,c),
(35,164,o),
(32,161,o),
(29,161,c),
(23,159,o),
(17,161,o),
(12,158,c),
(5,154,o),
(0,147,o),
(0,140,c),
(0,134,o),
(3,128,o),
(7,124,c),
(14,117,o),
(23,112,o),
(33,110,c),
(53,105,o),
(74,103,o),
(95,101,c),
(119,100,o),
(142,100,o),
(166,101,c),
(186,102,o),
(205,106,o),
(224,112,c),
(239,117,o),
(253,123,o),
(267,130,c),
(277,135,o),
(286,141,o),
(293,149,c),
(305,162,o),
(314,177,o),
(318,194,c),
(324,212,o),
(326,231,o),
(326,250,c),
(326,275,o),
(325,299,o),
(323,323,c),
(320,348,o),
(314,372,o),
(307,396,c),
(299,419,o),
(290,442,o),
(278,462,c),
(262,488,o),
(244,513,o),
(222,533,c),
(215,540,o),
(206,546,o),
(197,551,c),
(194,553,o),
(190,554,o),
(188,557,c),
(187,560,o),
(189,563,o),
(192,564,c),
(199,569,o),
(207,574,o),
(214,580,c),
(227,591,o),
(239,603,o),
(250,616,c),
(258,627,o),
(264,641,o),
(266,654,c),
(269,669,o),
(269,684,o),
(265,698,c),
(262,708,o),
(257,717,o),
(253,725,c),
(242,744,o),
(228,762,o),
(211,775,c),
(201,782,o),
(189,787,o),
(177,789,c),
(142,796,o),
(106,798,o),
(70,799,c),
(62,799,o),
(55,800,o),
(47,799,c),
(47,799,o),
(46,799,o),
(46,799,c)
);
},
{
closed = 1;
nodes = (
(99,750,o),
(117,749,o),
(135,747,c),
(148,745,o),
(161,741,o),
(172,733,c),
(184,725,o),
(193,714,o),
(201,702,c),
(206,694,o),
(209,685,o),
(210,676,c),
(211,664,o),
(208,651,o),
(200,642,c),
(191,629,o),
(177,619,o),
(163,611,c),
(141,598,o),
(116,590,o),
(90,586,c),
(86,586,o),
(81,585,o),
(77,586,c),
(72,587,o),
(67,587,o),
(62,588,c),
(63,618,o),
(64,648,o),
(68,677,c),
(70,698,o),
(73,719,o),
(75,740,c),
(76,743,o),
(76,747,o),
(77,750,c),
(78,750,o),
(80,750,o),
(81,750,c)
);
},
{
closed = 1;
nodes = (
(75,529,o),
(81,527,o),
(87,525,c),
(108,519,o),
(129,515,o),
(151,509,c),
(166,505,o),
(180,499,o),
(192,488,c),
(209,473,o),
(221,454,o),
(232,435,c),
(244,412,o),
(255,389,o),
(261,364,c),
(268,336,o),
(272,307,o),
(273,279,c),
(274,259,o),
(273,239,o),
(269,219,c),
(266,205,o),
(260,192,o),
(249,183,c),
(236,172,o),
(220,167,o),
(204,162,c),
(192,158,o),
(179,156,o),
(166,156,c),
(149,155,o),
(132,155,o),
(115,155,c),
(106,155,o),
(96,155,o),
(86,157,c),
(84,157,o),
(81,159,o),
(81,162,c),
(79,168,o),
(79,175,o),
(78,181,c),
(76,211,o),
(74,241,o),
(71,271,c),
(69,291,o),
(67,312,o),
(66,332,c),
(63,383,o),
(62,433,o),
(62,484,c),
(62,496,o),
(62,509,o),
(63,521,c),
(63,524,o),
(63,528,o),
(66,529,c),
(67,530,o),
(68,530,o),
(68,530,c)
);
}
);
width = 376;
}
);
unicode = (66,98);
},
{
glyphname = C;
kernLeft = C;
kernRight = C;
lastChange = "2026-02-24 09:27:05 +0000";
layers = (
{
layerId = m01;
shapes = (
{
closed = 1;
nodes = (
(213,109,o),
(240,116,o),
(279,143,cs),
(320,170,o),
(344,203,o),
(364,257,cs),
(376,291,o),
(379,314,o),
(372,351,cs),
(369,369,o),
(367,373,o),
(363,377,cs),
(353,388,o),
(341,387,o),
(332,376,cs),
(322,363,o),
(321,356,o),
(319,327,cs),
(317,275,o),
(301,238,o),
(264,203,cs),
(237,178,o),
(207,167,o),
(179,172,cs),
(160,176,o),
(135,189,o),
(121,204,cs),
(100,225,o),
(72,271,o),
(65,298,cs),
(57,325,o),
(61,441,o),
(73,542,cs),
(81,615,o),
(110,686,o),
(144,719,cs),
(165,739,o),
(190,748,o),
(223,746,cs),
(251,745,o),
(270,735,o),
(292,713,cs),
(309,695,o),
(317,681,o),
(321,666,cs),
(325,648,o),
(330,643,o),
(343,643,cs),
(352,643,o),
(356,645,o),
(362,653,cs),
(367,661,o),
(367,672,o),
(360,692,cs),
(350,724,o),
(334,746,o),
(307,768,cs),
(278,792,o),
(250,801,o),
(210,801,cs),
(166,801,o),
(142,792,o),
(113,765,cs),
(83,736,o),
(66,709,o),
(45,656,cs),
(25,606,o),
(18,578,o),
(14,520,cs),
(8,455,ls),
(6,431,o),
(5,402,o),
(5,362,cs),
(5,310,o),
(5,304,o),
(9,289,cs),
(18,257,o),
(34,223,o),
(53,195,cs),
(84,149,o),
(127,120,o),
(174,114,cs)
);
}
);
width = 431;
}
);
unicode = (67,99);
},
{
glyphname = D;
kernLeft = D;
kernRight = D;
lastChange = "2026-03-12 11:21:27 +0000";
layers = (
{
layerId = m01;
shapes = (
{
closed = 1;
nodes = (
(84,104,o),
(83,104,o),
(126,126,cs),
(150,138,o),
(177,153,o),
(188,160,cs),
(223,182,o),
(291,256,o),
(322,306,cs),
(343,339,o),
(354,384,o),
(356,445,cs),
(357,490,o),
(353,514,o),
(337,562,cs),
(316,625,o),
(302,648,o),
(261,690,cs),
(218,734,o),
(199,745,o),
(128,776,cs),
(98,789,o),
(89,791,o),
(68,791,cs),
(55,791,o),
(47,792,o),
(43,795,c),
(40,796,o),
(37,797,o),
(34,797,cs),
(27,797,o),
(20,796,o),
(17,793,cs),
(7,784,o),
(8,785,o),
(6,677,cs),
(4,620,o),
(3,481,o),
(3,368,cs),
(3,200,o),
(3,161,o),
(5,151,cs),
(12,121,o),
(21,110,o),
(44,104,cs),
(48,103,o),
(58,103,o),
(67,103,cs)
);
},
{
closed = 1;
nodes = (
(66,159,o),
(59,160,o),
(62,177,cs),
(63,189,o),
(60,596,o),
(58,685,cs),
(57,727,o),
(56,735,o),
(62,735,cs),
(65,735,l),
(92,725,ls),
(148,706,o),
(191,677,o),
(229,635,cs),
(254,607,o),
(267,586,o),
(280,547,cs),
(299,494,o),
(302,422,o),
(288,377,cs),
(282,358,o),
(266,328,o),
(248,305,cs),
(230,280,o),
(183,232,o),
(165,218,c),
(111,186,l),
(72,165,l)
);
}
);
width = 409;
}
);
unicode = (68,100);
},
{
glyphname = Eth;
kernLeft = D;
kernRight = D;
lastChange = "2026-02-24 09:27:14 +0000";
layers = (
{
layerId = m01;
shapes = (
{
closed = 1;
nodes = (
(103,432,o),
(135,432,o),
(142,433,c),
(151,433,o),
(170,434,o),
(184,435,c),
(214,435,o),
(217,436,o),
(224,442,c),
(228,445,o),
(233,453,o),
(234,458,c),
(235,468,o),
(228,479,o),
(218,485,c),
(214,487,o),
(214,487,o),
(200,487,c),
(183,487,o),
(174,486,o),
(141,482,c),
(118,479,o),
(72,476,o),
(35,474,c),
(19,474,o),
(15,473,o),
(11,472,c),
(-4,464,o),
(-4,441,o),
(13,434,c),
(16,432,o),
(20,432,o),
(72,432,c)
);
},
{
pos = (48,0);
ref = D;
}
);
width = 454;
}
);
unicode = (208,240);
},
{
glyphname = E;
kernLeft = E;
kernRight = E;
lastChange = "2026-03-04 15:32:01 +0000";
layers = (
{
layerId = m01;
shapes = (
{
closed = 1;
nodes = (
(163,104,o),
(231,111,o),
(270,118,cs),
(282,120,o),
(293,122,o),
(295,122,cs),
(301,122,o),
(311,132,o),
(313,140,cs),
(317,157,o),
(304,176,o),
(282,175,cs),
(262,174,l),
(206,169,ls),
(81,154,o),
(89,157,o),
(84,160,cs),
(77,163,o),
(69,174,o),
(65,188,cs),
(61,201,o),
(59,251,o),
(59,337,cs),
(58,422,l),
(122,422,ls),
(190,423,o),
(206,424,o),
(217,434,cs),
(230,446,o),
(226,462,o),
(209,470,cs),
(200,474,o),
(197,475,o),
(169,475,cs),
(99,473,l),
(57,472,l),
(57,572,ls),
(57,637,o),
(55,672,o),
(55,680,cs),
(55,700,o),
(54,714,o),
(62,721,cs),
(68,726,o),
(89,730,o),
(146,737,cs),
(189,742,o),
(220,745,o),
(263,746,cs),
(327,749,o),
(327,749,o),
(333,760,cs),
(341,772,o),
(337,785,o),
(325,792,cs),
(321,795,o),
(315,796,o),
(258,796,cs),
(211,797,o),
(186,796,o),
(161,794,cs),
(106,788,o),
(71,783,o),
(57,779,cs),
(38,773,o),
(21,760,o),
(15,750,cs),
(4,731,o),
(4,733,o),
(3,466,cs),
(3,246,o),
(3,205,o),
(6,182,cs),
(12,125,o),
(22,110,o),
(61,104,cs),
(68,103,o),
(93,103,o),
(116,103,cs)
);
}
);
width = 390;
}
);
unicode = (69,101);
},
{
glyphname = Schwa;
kernLeft = O;
kernRight = O;
lastChange = "2026-02-24 10:12:32 +0000";
layers = (
{
layerId = m01;
shapes = (
{
closed = 1;
nodes = (
(206,118,o),
(208,118,o),
(224,121,c),
(240,124,o),
(244,125,o),
(262,134,c),
(279,142,o),
(291,151,o),
(309,170,c),
(347,210,o),
(396,301,o),
(411,359,c),
(416,376,o),
(419,410,o),
(417,427,c),
(417,433,o),
(416,463,o),
(415,493,c),
(412,577,o),
(405,624,o),
(392,666,c),
(382,694,o),
(360,736,o),
(341,758,c),
(324,779,o),
(289,801,o),
(261,808,c),
(224,818,o),
(159,805,o),
(121,782,c),
(103,771,o),
(80,748,o),
(68,731,c),
(58,716,o),
(27,657,o),
(17,631,c),
(9,611,o),
(0,580,o),
(0,571,c),
(0,558,o),
(13,548,o),
(27,552,c),
(34,554,o),
(40,561,o),
(43,572,c),
(49,592,o),
(59,614,o),
(77,648,c),
(101,691,o),
(107,701,o),
(123,716,c),
(152,744,o),
(209,762,o),
(245,753,c),
(279,745,o),
(300,725,o),
(323,679,c),
(343,640,o),
(353,583,o),
(356,503,c),
(357,465,l),
(339,465,l),
(329,465,o),
(305,464,o),
(286,462,c),
(267,461,o),
(221,459,o),
(184,457,c),
(94,453,o),
(76,451,o),
(59,442,c),
(49,437,o),
(42,431,o),
(36,419,c),
(32,412,o),
(32,409,o),
(32,386,c),
(32,344,o),
(44,279,o),
(58,245,c),
(80,189,o),
(107,154,o),
(140,137,c),
(157,128,o),
(176,122,o),
(190,120,c)
);
},
{
closed = 1;
nodes = (
(205,172,o),
(175,179,o),
(150,204,c),
(140,214,o),
(136,220,o),
(126,239,c),
(109,274,o),
(103,295,o),
(96,351,c),
(92,378,o),
(92,379,o),
(98,385,c),
(106,392,o),
(126,395,o),
(186,398,c),
(214,400,o),
(248,402,o),
(261,403,c),
(275,404,o),
(302,405,o),
(322,406,c),
(358,407,l),
(358,400,l),
(358,363,o),
(315,269,o),
(276,221,c),
(261,203,o),
(250,194,o),
(235,187,c)
);
}
);
width = 468;
}
);
unicode = (399,601);
},
{
glyphname = F;
lastChange = "2026-03-13 08:53:29 +0000";
layers = (
{
layerId = m01;
shapes = (
{
closed = 1;
nodes = (
(77,104,o),
(87,110,o),
(96,129,cs),
(102,139,l),
(100,191,ls),
(98,245,o),
(96,265,o),
(89,325,cs),
(78,429,ls),
(78,435,o),
(96,435,o),
(120,436,cs),
(167,437,o),
(209,443,o),
(242,453,cs),
(256,458,o),
(270,461,o),
(273,461,cs),
(282,461,o),
(292,476,o),
(289,489,cs),
(286,500,o),
(270,509,o),
(252,509,cs),
(246,509,o),
(221,505,o),
(195,501,cs),
(140,491,o),
(110,487,o),
(90,488,cs),
(70,489,l),
(64,544,ls),
(60,585,o),
(58,611,o),
(57,661,cs),
(56,730,l),
(130,732,l),
(232,733,ls),
(262,733,o),
(282,735,o),
(315,742,cs),
(333,745,ls),
(337,746,o),
(344,755,o),
(345,766,cs),
(346,774,o),
(345,776,o),
(342,779,cs),
(339,783,o),
(331,788,o),
(327,790,cs),
(317,794,o),
(317,794,o),
(248,792,cs),
(158,788,l),
(94,784,ls),
(55,783,o),
(49,783,o),
(44,788,cs),
(43,789,o),
(39,791,o),
(32,792,cs),
(21,793,o),
(22,793,o),
(15,787,cs),
(12,784,o),
(7,778,o),
(6,774,cs),
(3,764,o),
(3,646,o),
(6,614,cs),
(17,499,l),
(27,386,ls),
(27,378,o),
(28,360,o),
(30,340,cs),
(31,330,o),
(31,321,o),
(32,311,cs),
(38,217,ls),
(40,192,o),
(42,168,o),
(45,155,cs),
(47,144,o),
(49,131,o),
(49,127,cs),
(49,121,o),
(54,115,o),
(63,111,cs)
);
}
);
width = 400;
}
);
unicode = (70,102);
},
{
glyphname = G;
kernLeft = G;
kernRight = G;
lastChange = "2026-03-12 13:14:41 +0000";
layers = (
{
layerId = m01;
shapes = (
{
closed = 1;
nodes = (
(162,99,o),
(197,101,o),
(220,109,cs),
(244,117,o),
(263,132,o),
(278,154,cs),
(298,183,o),
(304,217,o),
(305,309,cs),
(305,348,l),
(328,352,ls),
(340,354,o),
(352,356,o),
(354,357,c),
(359,358,o),
(365,367,o),
(366,375,cs),
(368,384,o),
(362,392,o),
(351,398,cs),
(338,403,o),
(329,403,o),
(284,398,cs),
(264,395,o),
(236,392,o),
(221,392,cs),
(191,390,o),
(185,388,o),
(179,378,cs),
(174,371,o),
(174,361,o),
(179,354,cs),
(186,344,o),
(191,343,o),
(220,342,cs),
(247,341,l),
(248,326,ls),
(249,303,o),
(245,246,o),
(242,222,cs),
(236,191,o),
(228,177,o),
(209,167,cs),
(198,162,o),
(184,160,o),
(160,161,cs),
(138,161,o),
(136,162,o),
(125,167,cs),
(98,180,o),
(79,215,o),
(72,262,cs),
(71,269,o),
(68,293,o),
(67,315,cs),
(61,384,ls),
(58,421,o),
(56,573,o),
(59,600,cs),
(64,644,o),
(79,675,o),
(109,704,cs),
(137,731,o),
(156,740,o),
(183,740,cs),
(206,740,o),
(217,735,o),
(233,720,cs),
(258,694,o),
(271,655,o),
(277,588,cs),
(278,577,o),
(279,572,o),
(282,567,cs),
(291,553,o),
(311,553,o),
(320,567,cs),
(324,573,o),
(324,575,o),
(324,601,cs),
(324,641,o),
(319,673,o),
(306,705,cs),
(296,732,o),
(274,763,o),
(255,777,cs),
(233,794,o),
(215,800,o),
(183,800,cs),
(159,800,o),
(145,797,o),
(124,787,cs),
(96,773,o),
(66,747,o),
(43,716,cs),
(28,696,o),
(13,662,o),
(5,631,cs),
(1,617,o),
(1,610,o),
(0,530,cs),
(0,461,o),
(0,437,o),
(2,408,cs),
(9,325,ls),
(14,258,o),
(19,228,o),
(30,196,cs),
(49,144,o),
(84,113,o),
(137,104,cs)
);
}
);
width = 416;
}
);
unicode = (71,103);
},
{
glyphname = H;
kernLeft = H;
kernRight = H;
lastChange = "2026-03-13 12:40:40 +0000";
layers = (
{
layerId = m01;
shapes = (
{
closed = 1;
nodes = (
(327,99,o),
(329,99,o),
(337,103,cs),
(343,105,o),
(346,108,o),
(351,116,cs),
(357,127,l),
(357,203,ls),
(357,249,o),
(356,307,o),
(354,346,cs),
(349,470,ls),
(347,532,o),
(345,557,o),
(339,595,cs),
(332,645,o),
(330,664,o),
(328,721,cs),
(326,784,o),
(325,789,o),
(315,795,cs),
(311,797,o),
(305,798,o),
(301,798,cs),
(294,799,o),
(292,797,o),
(286,792,cs),
(280,787,o),
(279,785,o),
(277,770,cs),
(275,746,o),
(278,667,o),
(285,626,cs),
(292,566,ls),
(295,536,o),
(298,481,o),
(296,481,cs),
(249,479,l),
(142,475,ls),
(106,474,o),
(81,474,o),
(80,475,cs),
(79,476,o),
(76,499,o),
(63,610,cs),
(57,668,o),
(54,705,o),
(51,767,cs),
(50,790,o),
(43,800,o),
(26,800,cs),
(15,800,o),
(5,791,o),
(3,779,cs),
(0,759,o),
(1,684,o),
(6,620,cs),
(11,558,o),
(12,546,o),
(21,471,cs),
(24,450,o),
(26,416,o),
(28,395,cs),
(32,315,o),
(39,210,o),
(41,200,cs),
(46,174,ls),
(48,166,o),
(50,156,o),
(51,154,c),
(52,147,o),
(62,141,o),
(72,139,c),
(80,139,o),
(81,139,o),
(87,146,cs),
(91,150,o),
(96,158,o),
(98,163,cs),
(101,175,o),
(101,190,o),
(95,271,cs),
(89,358,l),
(86,409,l),
(85,420,l),
(182,421,ls),
(235,421,o),
(283,421,o),
(287,422,cs),
(296,423,l),
(298,383,ls),
(298,361,o),
(300,297,o),
(300,241,cs),
(302,118,o),
(303,111,o),
(319,103,cs)
);
}
);
width = 407;
}
);
unicode = (72,104);
},
{
glyphname = Hbar;
kernLeft = H;
kernRight = H;
lastChange = "2026-02-24 12:13:05 +0000";
layers = (
{
layerId = m01;
shapes = (
{
pos = (32,0);
ref = H;
},
{
closed = 1;
nodes = (
(12,602,o),
(3,595,o),
(1,585,c),
(-2,575,o),
(3,563,o),
(12,559,c),
(23,555,o),
(33,558,o),
(42,557,c),
(71,556,o),
(100,553,o),
(129,552,c),
(150,551,o),
(170,550,o),
(189,549,c),
(212,549,o),
(234,550,o),
(257,551,c),
(293,552,o),
(330,553,o),
(366,551,c),
(377,551,o),
(387,550,o),
(396,552,c),
(411,556,o),
(418,575,o),
(410,587,c),
(406,596,o),
(395,600,o),
(386,599,c),
(334,598,o),
(284,600,o),
(233,599,c),
(206,598,o),
(179,598,o),
(151,599,c),
(114,600,o),
(76,601,o),
(37,602,c),
(32,602,o),
(27,602,o),
(22,602,c)
);
}
);
width = 463;
}
);
unicode = (294,295);
},
{
glyphname = I;
kernLeft = I;
kernRight = I;
lastChange = "2026-02-24 09:27:54 +0000";
layers = (
{
layerId = m01;
shapes = (
{
closed = 1;
nodes = (
(26,99,o),
(141,102,o),
(169,107,cs),
(180,109,o),
(192,111,o),
(196,111,cs),
(204,111,o),
(211,116,o),
(216,125,cs),
(222,138,o),
(214,151,o),
(195,159,cs),
(188,161,o),
(183,162,o),
(163,161,cs),
(130,158,l),
(130,167,ls),
(130,176,o),
(129,177,o),
(129,265,cs),
(129,349,o),
(130,358,o),
(134,392,cs),
(138,427,o),
(139,433,o),
(139,540,cs),
(138,696,l),
(137,740,l),
(143,740,ls),
(147,740,o),
(157,742,o),
(167,744,cs),
(176,745,o),
(187,747,o),
(191,747,cs),
(196,748,o),
(201,750,o),
(204,753,cs),
(216,765,o),
(213,783,o),
(197,791,cs),
(185,797,o),
(175,798,o),
(132,795,cs),
(66,791,ls),
(48,791,o),
(33,789,o),
(30,787,cs),
(19,782,o),
(14,764,o),
(21,752,cs),
(27,743,o),
(33,741,o),
(60,740,cs),
(85,738,l),
(84,626,ls),
(83,487,o),
(81,432,o),
(76,392,cs),
(72,364,o),
(71,353,o),
(71,278,cs),
(73,157,l),
(74,154,o),
(73,154,o),
(68,154,cs),
(37,153,o),
(18,150,o),
(13,147,cs),
(-2,137,o),
(0,111,o),
(17,104,cs)
);
}
);
width = 268;
}
);
unicode = (73,105);
},
{
glyphname = J;
kernLeft = J;
kernRight = J;
lastChange = "2026-03-12 13:09:31 +0000";
layers = (
{
layerId = m01;
shapes = (
{
closed = 1;
nodes = (
(168,99,o),
(197,111,o),
(215,135,cs),
(240,169,o),
(255,205,o),
(263,257,cs),
(265,272,o),
(266,289,o),
(266,339,cs),
(266,409,o),
(263,455,o),
(258,492,cs),
(251,540,o),
(232,624,o),
(215,684,cs),
(211,698,o),
(208,715,o),
(208,724,cs),
(206,739,l),
(231,741,ls),
(244,741,o),
(261,743,o),
(267,744,cs),
(291,747,ls),
(301,748,o),
(305,750,o),
(309,754,cs),
(322,766,o),
(319,782,o),
(302,792,cs),
(294,797,l),
(255,797,ls),
(205,797,o),
(169,794,o),
(117,787,cs),
(94,784,o),
(63,781,o),
(48,781,cs),
(31,780,o),
(20,779,o),
(16,777,cs),
(-2,769,o),
(-1,743,o),
(16,735,cs),
(23,731,o),
(27,731,o),
(59,731,cs),
(79,731,o),
(108,732,o),
(125,734,cs),
(156,736,ls),
(157,736,o),
(158,728,o),
(158,717,cs),
(158,701,o),
(159,693,o),
(165,667,cs),
(183,589,o),
(203,478,o),
(205,437,cs),
(208,395,o),
(207,286,o),
(205,268,cs),
(199,226,o),
(180,181,o),
(165,171,cs),
(154,165,o),
(137,168,o),
(126,178,cs),
(119,185,o),
(111,202,o),
(106,218,cs),
(103,230,o),
(103,242,o),
(101,286,cs),
(100,325,o),
(99,343,o),
(97,353,cs),
(95,360,o),
(93,367,o),
(93,369,c),
(92,371,o),
(89,376,o),
(86,379,cs),
(80,384,o),
(78,385,o),
(71,385,cs),
(59,385,o),
(53,381,o),
(47,369,cs),
(41,357,o),
(40,349,o),
(43,278,cs),
(44,223,o),
(45,216,o),
(49,200,cs),
(62,150,o),
(99,110,o),
(137,104,cs)
);
}
);
width = 367;
}
);
unicode = (74,106);
},
{
glyphname = K;
kernLeft = K;
kernRight = K;
lastChange = "2026-02-25 14:01:53 +0000";
layers = (
{
layerId = m01;
shapes = (
{
closed = 1;
nodes = (
(53,98,o),
(64,104,o),
(71,118,cs),
(78,131,o),
(79,141,o),
(77,159,cs),
(65,268,o),
(65,272,o),
(64,343,cs),
(63,414,l),
(109,462,l),
(156,509,l),
(159,509,o),
(211,444,o),
(222,426,cs),
(228,416,o),
(238,397,o),
(245,382,cs),
(259,353,o),
(300,250,o),
(314,210,cs),
(319,195,o),
(329,172,o),
(336,157,cs),
(350,125,ls),
(353,117,o),
(361,113,o),
(373,112,cs),
(388,112,o),
(399,131,o),
(399,137,cs),
(399,148,l),
(389,180,ls),
(368,246,o),
(330,343,o),
(302,401,cs),
(277,451,o),
(263,471,o),
(213,527,cs),
(202,539,o),
(193,550,o),
(193,551,cs),
(193,553,o),
(222,579,o),
(254,605,cs),
(298,641,o),
(318,659,o),
(340,686,cs),
(361,712,o),
(363,716,o),
(357,730,cs),
(351,743,o),
(332,746,o),
(312,736,cs),
(308,734,o),
(289,719,o),
(271,702,cs),
(209,646,ls),
(173,615,o),
(152,594,o),
(123,559,cs),
(91,523,l),
(74,504,ls),
(70,500,o),
(67,496,o),
(66,497,c),
(68,550,ls),
(71,600,o),
(71,727,o),
(68,768,cs),
(67,783,o),
(67,784,o),
(59,792,cs),
(52,799,o),
(51,799,o),
(41,798,cs),
(32,797,o),
(29,796,o),
(24,792,c),
(16,783,o),
(15,774,o),
(14,676,cs),
(13,617,o),
(11,572,o),
(8,523,cs),
(1,428,o),
(0,317,o),
(4,264,cs),
(10,195,o),
(13,172,o),
(19,148,cs),
(25,120,l),
(25,115,o),
(33,106,o),
(40,103,cs)
);
}
);
width = 449;
}
);
unicode = (75,107);
},
{
glyphname = L;
kernLeft = L;
kernRight = L;
lastChange = "2026-02-25 09:05:44 +0000";
layers = (
{
layerId = m01;
shapes = (
{
closed = 1;
nodes = (
(308,105,o),
(322,106,o),
(330,124,cs),
(333,132,o),
(332,143,o),
(327,149,c),
(323,152,o),
(318,155,o),
(312,158,cs),
(302,164,o),
(302,164,o),
(256,166,cs),
(230,167,o),
(179,167,o),
(142,166,cs),
(73,165,l),
(72,172,l),
(67,227,ls),
(63,274,o),
(62,289,o),
(62,442,cs),
(61,552,o),
(62,619,o),
(63,642,cs),
(66,690,o),
(68,757,o),
(66,771,cs),
(65,781,o),
(64,783,o),
(58,789,cs),
(51,797,o),
(51,796,o),
(40,795,cs),
(29,794,o),
(25,792,o),
(20,782,cs),
(19,779,o),
(17,765,o),
(16,741,cs),
(11,680,l),
(5,631,ls),
(2,598,o),
(1,321,o),
(3,282,cs),
(5,262,o),
(6,242,o),
(8,220,cs),
(10,191,o),
(12,163,o),
(14,147,cs),
(16,121,o),
(17,112,o),
(30,108,cs),
(48,102,o),
(56,104,o),
(65,105,cs),
(71,106,o),
(81,107,o),
(91,106,cs),
(101,105,o),
(110,105,o),
(127,105,cs),
(141,106,o),
(161,106,o),
(194,106,cs)
);
}
);
width = 383;
}
);
unicode = (76,108);
},
{
glyphname = Lslash;
kernLeft = L;
kernRight = L;
lastChange = "2026-02-24 10:30:40 +0000";
layers = (
{
layerId = m01;
shapes = (
{
pos = (64,0);
ref = L;
},
{
closed = 1;
nodes = (
(-3,414,o),
(-8,403,o),
(-5,394,c),
(-2,383,o),
(8,376,o),
(18,377,c),
(29,379,o),
(37,385,o),
(47,390,c),
(73,403,o),
(99,416,o),
(126,430,c),
(144,439,o),
(161,448,o),
(179,457,c),
(199,469,o),
(218,481,o),
(238,493,c),
(270,513,o),
(301,532,o),
(335,549,c),
(344,553,o),
(354,558,o),
(361,564,c),
(372,575,o),
(369,595,o),
(356,602,c),
(348,607,o),
(336,605,o),
(328,600,c),
(284,574,o),
(237,550,o),
(193,522,c),
(170,509,o),
(146,495,o),
(121,482,c),
(87,463,o),
(53,445,o),
(19,428,c),
(14,424,o),
(10,422,o),
(6,419,c)
);
}
);
width = 447;
}
);
unicode = (321,322);
},
{
glyphname = M;
lastChange = "2026-03-12 13:15:47 +0000";
layers = (
{
layerId = m01;
shapes = (
{
closed = 1;
nodes = (
(314,101,o),
(323,104,o),
(333,119,cs),
(338,127,l),
(339,202,l),
(343,304,ls),
(345,341,o),
(345,702,o),
(343,743,cs),
(341,767,o),
(340,773,o),
(337,780,cs),
(331,791,o),
(323,796,o),
(314,796,cs),
(297,796,o),
(294,792,o),
(270,746,cs),
(245,699,o),
(233,679,o),
(208,641,cs),
(195,622,o),
(182,601,o),
(178,593,cs),
(169,577,l),
(166,575,o),
(164,581,o),
(162,586,cs),
(161,589,o),
(159,594,o),
(157,598,cs),
(154,606,o),
(148,619,o),
(141,634,cs),
(137,642,o),
(132,652,o),
(128,661,cs),
(109,699,o),
(90,744,o),
(90,749,cs),
(90,750,o),
(88,751,o),
(84,754,cs),
(70,767,o),
(51,765,o),
(42,748,cs),
(39,742,o),
(38,734,o),
(37,671,cs),
(36,610,o),
(35,595,o),
(31,563,cs),
(28,542,o),
(25,509,o),
(24,489,cs),
(22,437,o),
(19,410,o),
(12,343,cs),
(4,269,o),
(1,221,o),
(2,170,cs),
(3,137,o),
(4,129,o),
(6,124,cs),
(14,110,o),
(37,109,o),
(45,123,cs),
(48,129,o),
(49,135,o),
(50,176,cs),
(52,227,o),
(55,257,o),
(63,325,cs),
(70,373,o),
(75,430,o),
(79,490,cs),
(84,551,o),
(90,609,o),
(97,597,c),
(118,546,ls),
(140,492,o),
(144,482,o),
(153,476,cs),
(165,468,o),
(181,471,o),
(189,481,cs),
(191,484,o),
(197,499,o),
(202,515,cs),
(208,532,o),
(216,551,o),
(221,560,cs),
(236,584,o),
(283,661,o),
(287,653,c),
(288,652,o),
(287,566,o),
(286,461,cs),
(283,167,o),
(284,154,o),
(288,132,cs),
(290,122,o),
(293,112,o),
(294,111,c),
(295,111,o),
(300,108,o),
(304,106,cs)
);
}
);
width = 396;
}
);
unicode = (77,109);
},
{
glyphname = N;
kernLeft = N;
kernRight = N;
lastChange = "2026-02-24 09:28:34 +0000";
layers = (
{
layerId = m01;
shapes = (
{
closed = 1;
nodes = (
(307,105,o),
(317,112,o),
(321,120,cs),
(325,128,o),
(341,219,o),
(343,252,cs),
(346,287,o),
(344,498,o),
(341,531,cs),
(340,543,o),
(338,604,o),
(337,667,cs),
(335,785,o),
(335,784,o),
(326,790,cs),
(316,795,o),
(307,793,o),
(296,778,cs),
(290,770,o),
(288,767,o),
(287,757,cs),
(283,738,o),
(284,603,o),
(287,551,cs),
(290,503,o),
(291,246,o),
(288,232,cs),
(285,210,l),
(275,228,ls),
(262,252,o),
(208,394,o),
(172,499,cs),
(136,594,ls),
(104,674,o),
(102,680,o),
(88,727,cs),
(83,748,o),
(77,764,o),
(75,767,cs),
(62,784,o),
(41,783,o),
(32,764,cs),
(27,754,o),
(23,731,o),
(16,642,cs),
(8,555,o),
(5,426,o),
(7,271,cs),
(9,145,o),
(10,136,o),
(16,130,cs),
(22,123,o),
(28,122,o),
(38,125,cs),
(45,127,o),
(48,130,o),
(50,140,cs),
(51,143,o),
(53,197,o),
(54,260,cs),
(58,491,o),
(60,603,o),
(66,609,cs),
(74,616,o),
(75,610,o),
(98,553,cs),
(107,531,o),
(120,497,o),
(127,476,cs),
(191,294,ls),
(211,239,o),
(235,187,o),
(259,147,cs),
(277,117,o),
(282,112,o),
(289,109,cs),
(293,107,o),
(298,105,o),
(299,105,cs)
);
}
);
width = 399;
}
);
unicode = (78,110);
},
{
glyphname = O;
kernLeft = O;
kernRight = O;
lastChange = "2026-03-12 13:13:18 +0000";
layers = (
{
layerId = m01;
shapes = (
{
closed = 1;
nodes = (
(177,97,o),
(194,106,o),
(223,134,c),
(228,140,o),
(233,145,o),
(239,152,cs),
(244,157,o),
(250,164,o),
(255,169,cs),
(277,192,o),
(295,222,o),
(305,244,c),
(315,261,o),
(325,299,o),
(330,330,cs),
(333,347,o),
(333,369,o),
(334,430,cs),
(335,546,o),
(332,580,o),
(313,638,cs),
(295,692,o),
(270,736,o),
(246,761,c),
(244,762,o),
(243,763,o),
(242,765,cs),
(241,766,o),
(239,768,o),
(239,768,c),
(231,777,o),
(227,781,o),
(203,795,c),
(198,799,o),
(157,806,o),
(119,774,cs),
(82,743,o),
(60,721,o),
(48,698,cs),
(29,661,o),
(7,572,o),
(2,509,cs),
(-1,473,o),
(1,386,o),
(5,358,cs),
(9,332,o),
(24,270,o),
(34,239,cs),
(48,198,o),
(67,165,o),
(89,140,cs),
(107,120,o),
(129,106,o),
(151,102,cs)
);
},
{
closed = 1;
nodes = (
(155,158,o),
(131,179,o),
(108,225,cs),
(92,259,o),
(74,316,o),
(67,356,cs),
(63,380,o),
(62,462,o),
(64,499,cs),
(69,554,o),
(84,629,o),
(96,661,cs),
(106,686,o),
(116,703,o),
(147,729,c),
(151,730,o),
(151,731,o),
(154,732,cs),
(162,735,o),
(164,736,o),
(185,726,cs),
(199,719,o),
(206,711,o),
(217,694,cs),
(229,678,o),
(233,669,o),
(246,638,cs),
(257,609,o),
(264,586,o),
(268,555,cs),
(273,522,o),
(273,381,o),
(268,346,cs),
(254,245,o),
(203,180,o),
(170,172,c)
);
}
);
width = 383;
}
);
unicode = (79,111);
},
{
glyphname = Oslash;
kernLeft = O;
kernRight = O;
lastChange = "2026-02-24 10:25:46 +0000";
layers = (
{
layerId = m01;
shapes = (
{
closed = 1;
nodes = (
(25,154,o),
(31,158,o),
(43,176,cs),
(55,197,o),
(60,205,o),
(76,227,cs),
(78,230,o),
(79,231,o),
(81,234,cs),
(84,238,o),
(87,243,o),
(88,245,c),
(91,248,o),
(99,259,o),
(106,270,cs),
(114,280,o),
(126,297,o),
(133,306,cs),
(140,318,o),
(148,330,o),
(147,328,c),
(148,332,o),
(151,335,o),
(151,335,c),
(154,340,o),
(176,373,o),
(182,380,cs),
(184,383,o),
(185,384,o),
(187,387,cs),
(193,396,o),
(201,408,o),
(206,416,cs),
(210,421,o),
(235,465,o),
(251,495,cs),
(291,568,o),
(337,643,o),
(361,677,cs),
(365,682,o),
(374,697,o),
(383,712,cs),
(385,715,o),
(387,718,o),
(389,720,cs),
(391,723,o),
(393,729,o),
(393,731,cs),
(394,746,o),
(380,761,o),
(363,757,cs),
(356,755,o),
(352,752,o),
(340,732,cs),
(338,728,o),
(336,724,o),
(334,721,cs),
(330,714,o),
(325,705,o),
(323,702,cs),
(321,699,o),
(318,695,o),
(315,691,cs),
(313,687,o),
(310,683,o),
(308,680,cs),
(304,673,o),
(298,663,o),
(294,657,cs),
(292,653,o),
(288,646,o),
(284,640,cs),
(277,629,o),
(269,616,o),
(258,599,cs),
(242,574,o),
(212,524,o),
(194,494,cs),
(169,450,o),
(155,425,o),
(137,399,cs),
(126,383,o),
(108,356,o),
(101,345,cs),
(100,343,o),
(97,337,o),
(92,330,cs),
(89,326,o),
(85,320,o),
(82,315,cs),
(80,312,o),
(78,310,o),
(76,307,cs),
(74,303,o),
(71,298,o),
(67,292,cs),
(65,289,o),
(63,287,o),
(62,286,cs),
(55,275,o),
(42,255,o),
(25,229,cs),
(9,204,o),
(-2,185,o),
(-3,181,cs),
(-5,171,o),
(4,157,o),
(14,156,cs)
);
},
{
pos = (17,0);
ref = O;
}
);
width = 440;
}
);
unicode = (216,248);
},
{
glyphname = OE;
kernLeft = O;
lastChange = "2026-02-24 09:28:58 +0000";
layers = (
{
layerId = m01;
shapes = (
{
closed = 1;
nodes = (
(168,112,o),
(189,112,o),
(199,115,c),
(221,119,o),
(240,128,o),
(259,144,c),
(280,161,o),
(298,180,o),
(315,204,c),
(327,221,o),
(333,232,o),
(343,253,c),
(353,274,o),
(356,282,o),
(363,306,c),
(364,310,l),
(368,302,l),
(373,293,o),
(378,284,o),
(382,278,c),
(387,271,o),
(400,253,o),
(406,245,c),
(424,225,o),
(451,196,o),
(463,186,c),
(479,172,o),
(499,160,o),
(521,151,c),
(543,142,o),
(571,135,o),
(600,132,c),
(623,129,o),
(681,127,o),
(691,128,c),
(708,131,o),
(720,146,o),
(717,160,c),
(715,172,o),
(706,180,o),
(693,184,c),
(690,185,o),
(682,185,o),
(667,186,c),
(616,187,o),
(599,189,o),
(575,195,c),
(554,200,o),
(531,211,o),
(515,223,c),
(490,242,o),
(451,287,o),
(432,318,c),
(423,334,o),
(414,358,o),
(410,380,c),
(408,389,o),
(406,408,o),
(405,417,c),
(405,426,o),
(405,426,o),
(406,426,c),
(407,426,o),
(431,426,o),
(460,425,c),
(489,424,o),
(522,424,o),
(534,424,c),
(565,424,o),
(624,425,o),
(629,426,c),
(640,428,o),
(649,434,o),
(653,441,c),
(654,445,o),
(655,446,o),
(655,451,c),
(655,459,o),
(653,462,o),
(648,468,c),
(643,473,o),
(637,476,o),
(628,477,c),
(624,478,o),
(585,476,o),
(553,474,c),
(545,473,o),
(527,472,o),
(514,472,c),
(500,472,o),
(479,471,o),
(466,470,c),
(419,468,o),
(410,468,o),
(410,469,c),
(410,472,o),
(415,496,o),
(416,504,c),
(425,538,o),
(441,564,o),
(482,609,c),
(493,621,o),
(528,656,o),
(537,663,c),
(550,674,o),
(569,687,o),
(589,698,c),
(636,724,o),
(656,733,o),
(691,743,c),
(697,745,o),
(703,747,o),
(704,748,c),
(708,750,o),
(713,755,o),
(714,758,c),
(716,762,o),
(716,770,o),
(714,774,c),
(710,782,o),
(700,787,o),
(689,786,c),
(679,785,o),
(658,779,o),
(636,771,c),
(616,765,o),
(594,755,o),
(559,738,c),
(515,716,o),
(502,707,o),
(467,675,c),
(440,651,o),
(420,629,o),
(404,609,c),
(401,604,o),
(398,601,o),
(398,601,c),
(398,601,o),
(397,605,o),
(396,608,c),
(393,632,o),
(384,662,o),
(375,682,c),
(364,705,o),
(348,728,o),
(329,748,c),
(315,762,o),
(302,771,o),
(281,782,c),
(231,808,o),
(190,812,o),
(149,795,c),
(129,787,o),
(99,770,o),
(92,762,c),
(79,746,o),
(57,722,o),
(47,696,c),
(42,683,o),
(31,669,o),
(25,647,c),
(3,576,o),
(-6,512,o),
(3,439,c),
(4,403,o),
(5,384,o),
(10,350,c),
(21,272,o),
(32,231,o),
(52,192,c),
(71,155,o),
(97,131,o),
(132,119,c),
(142,116,o),
(148,115,o),
(157,113,c)
);
},
{
closed = 1;
nodes = (
(174,167,o),
(158,168,o),
(146,173,c),
(132,178,o),
(116,191,o),
(107,206,c),
(103,211,o),
(93,232,o),
(89,243,c),
(79,267,o),
(74,287,o),
(67,333,c),
(65,345,o),
(63,359,o),
(62,365,c),
(59,385,o),
(57,419,o),
(57,462,c),
(57,502,o),
(52,521,o),
(60,558,c),
(66,584,o),
(66,611,o),
(75,638,c),
(84,663,o),
(91,676,o),
(102,691,c),
(112,704,o),
(122,715,o),
(126,717,c),
(128,718,o),
(134,721,o),
(138,724,c),
(155,735,o),
(174,743,o),
(188,746,c),
(201,748,o),
(217,746,o),
(233,740,c),
(244,736,o),
(266,726,o),
(273,721,c),
(296,705,o),
(317,678,o),
(328,650,c),
(338,625,o),
(341,610,o),
(345,574,c),
(348,547,o),
(349,503,o),
(347,487,c),
(346,474,o),
(342,449,o),
(338,435,c),
(336,427,o),
(331,410,o),
(328,397,c),
(325,384,o),
(322,372,o),
(321,370,c),
(320,365,o),
(311,327,o),
(308,316,c),
(306,310,o),
(304,302,o),
(302,297,c),
(298,286,o),
(287,264,o),
(283,256,c),
(255,208,o),
(218,175,o),
(186,169,c)
);
}
);
width = 767;
}
);
unicode = (338,339);
},
{
glyphname = P;
lastChange = "2026-03-12 13:13:55 +0000";
layers = (
{
layerId = m01;
shapes = (
{
closed = 1;
nodes = (
(36,99,o),
(54,106,o),
(59,122,cs),
(60,128,o),
(62,258,o),
(62,401,cs),
(62,442,l),
(100,442,ls),
(160,443,o),
(191,450,o),
(236,472,cs),
(307,509,o),
(346,547,o),
(356,590,cs),
(362,617,o),
(361,653,o),
(354,682,cs),
(350,699,o),
(336,726,o),
(324,740,cs),
(301,768,o),
(267,786,o),
(220,795,cs),
(205,798,o),
(198,799,o),
(179,799,cs),
(173,799,o),
(166,799,o),
(156,798,cs),
(112,797,o),
(96,795,o),
(71,787,cs),
(44,778,o),
(34,770,o),
(25,752,cs),
(14,732,o),
(13,722,o),
(11,668,cs),
(10,640,o),
(8,608,o),
(6,597,cs),
(2,571,o),
(0,405,o),
(3,324,cs),
(7,195,ls),
(9,115,o),
(9,113,o),
(22,106,cs)
);
},
{
closed = 1;
nodes = (
(63,539,ls),
(63,559,o),
(65,586,o),
(67,599,cs),
(69,612,o),
(71,642,o),
(72,665,cs),
(73,703,o),
(76,721,o),
(80,728,cs),
(84,734,o),
(92,736,o),
(131,737,cs),
(157,737,ls),
(214,737,o),
(245,728,o),
(270,705,cs),
(284,693,o),
(290,684,o),
(295,664,cs),
(301,638,o),
(297,605,o),
(286,587,cs),
(278,575,o),
(265,560,o),
(253,552,cs),
(241,543,o),
(194,519,o),
(178,514,cs),
(172,513,o),
(161,510,o),
(153,509,cs),
(144,507,o),
(120,505,o),
(99,505,cs),
(62,503,l)
);
}
);
width = 410;
}
);
unicode = (80,112);
},
{
glyphname = Thorn;
lastChange = "2026-02-23 17:58:32 +0000";
layers = (
{
layerId = m01;
shapes = (
{
closed = 1;
nodes = (
(79,89,o),
(86,90,o),
(91,92,c),
(96,94,o),
(103,100,o),
(106,106,c),
(110,114,o),
(110,114,o),
(107,161,c),
(107,167,o),
(106,194,o),
(106,220,c),
(105,264,o),
(104,294,o),
(103,308,c),
(102,314,l),
(120,315,l),
(156,316,o),
(184,321,o),
(216,332,c),
(261,347,o),
(303,370,o),
(319,389,c),
(337,410,o),
(348,438,o),
(351,476,c),
(352,488,o),
(352,488,o),
(351,499,c),
(346,547,o),
(325,581,o),
(280,613,c),
(243,639,o),
(206,655,o),
(168,664,c),
(151,667,o),
(140,670,o),
(117,672,c),
(107,673,l),
(107,679,l),
(106,685,o),
(108,735,o),
(107,776,c),
(106,792,o),
(105,806,o),
(105,808,c),
(103,824,o),
(90,829,o),
(71,829,c),
(58,829,o),
(51,821,o),
(51,812,cs),
(50,741,l),
(49,704,o),
(49,673,o),
(49,673,c),
(49,673,o),
(43,673,o),
(36,673,c),
(22,672,o),
(19,671,o),
(13,666,c),
(7,659,o),
(6,649,o),
(10,641,c),
(12,636,o),
(15,633,o),
(19,631,c),
(23,629,o),
(24,629,o),
(36,629,c),
(43,628,o),
(48,628,o),
(48,628,c),
(49,627,o),
(47,528,o),
(46,492,c),
(46,477,o),
(45,446,o),
(45,423,c),
(45,386,o),
(44,382,o),
(43,382,c),
(43,382,o),
(40,383,o),
(38,383,c),
(31,384,o),
(22,383,o),
(17,380,c),
(5,374,o),
(-2,361,o),
(0,348,c),
(2,337,o),
(11,327,o),
(21,324,c),
(24,323,o),
(31,322,o),
(36,321,c),
(46,319,l),
(47,312,l),
(47,308,o),
(47,271,o),
(48,229,c),
(49,128,o),
(50,114,o),
(55,104,c),
(59,98,o),
(67,92,o),
(74,90,c)
);
},
{
closed = 1;
nodes = (
(101,394,l),
(101,404,o),
(101,460,o),
(100,518,c),
(100,577,o),
(100,621,o),
(100,621,c),
(100,621,o),
(105,620,o),
(112,619,c),
(167,613,o),
(201,600,o),
(238,573,c),
(261,557,o),
(275,543,o),
(282,529,c),
(291,511,o),
(294,491,o),
(290,470,c),
(285,442,o),
(275,427,o),
(253,414,c),
(233,403,o),
(213,394,o),
(194,389,c),
(169,381,o),
(152,378,o),
(130,377,c),
(122,377,o),
(113,376,o),
(109,376,c),
(101,376,l)
);
}
);
width = 402;
}
);
unicode = (222,254);
},
{
glyphname = Q;
lastChange = "2026-02-23 10:14:53 +0000";
layers = (
{
layerId = m01;
shapes = (
{
closed = 1;
nodes = (
(397,108,o),
(401,113,o),
(400,130,cs),
(398,148,o),
(392,157,o),
(356,199,cs),
(344,212,l),
(351,229,ls),
(360,250,o),
(366,275,o),
(372,316,cs),
(382,390,o),
(383,413,o),
(382,498,cs),
(381,585,o),
(379,603,o),
(369,643,cs),
(347,728,o),
(314,770,o),
(258,789,cs),
(245,793,o),
(228,795,o),
(213,795,cs),
(203,795,o),
(196,794,o),
(189,792,cs),
(159,784,o),
(134,765,o),
(99,727,cs),
(71,695,o),
(58,678,o),
(46,652,cs),
(27,613,o),
(22,593,o),
(12,509,cs),
(6,454,o),
(5,444,o),
(4,378,cs),
(3,292,o),
(5,263,o),
(56,194,c),
(89,146,o),
(154,115,o),
(201,107,cs),
(220,103,o),
(244,105,o),
(258,111,cs),
(274,117,o),
(290,129,o),
(302,145,cs),
(308,153,o),
(314,161,o),
(317,161,cs),
(322,161,o),
(364,115,o),
(368,109,cs),
(370,106,o),
(372,106,o),
(376,105,cs),
(380,104,o),
(383,104,o),
(384,104,c)
);
},
{
closed = 1;
nodes = (
(181,165,o),
(133,194,o),
(108,219,cs),
(96,230,o),
(82,249,o),
(80,260,c),
(70,286,l),
(62,306,l),
(62,383,ls),
(62,464,o),
(62,469,o),
(76,560,cs),
(84,615,o),
(104,652,o),
(150,699,cs),
(165,714,o),
(174,721,o),
(184,727,cs),
(195,732,o),
(208,734,o),
(219,734,cs),
(235,734,o),
(250,728,o),
(264,719,cs),
(282,708,o),
(297,685,o),
(309,647,cs),
(319,618,o),
(323,600,o),
(325,568,cs),
(328,536,o),
(328,417,o),
(325,387,cs),
(321,335,o),
(310,265,o),
(301,265,cs),
(297,265,o),
(284,283,o),
(269,303,cs),
(254,322,o),
(241,338,o),
(238,339,cs),
(232,342,o),
(225,342,o),
(219,339,cs),
(213,336,o),
(207,327,o),
(207,320,cs),
(207,318,o),
(208,316,o),
(209,312,cs),
(209,311,o),
(210,309,o),
(210,309,c),
(217,297,o),
(251,245,o),
(265,227,cs),
(280,208,l),
(273,198,l),
(266,184,o),
(253,171,o),
(243,166,cs),
(231,161,o),
(214,160,o),
(201,162,cs)
);
}
);
width = 454;
}
);
unicode = (81,113);
},
{
glyphname = R;
kernLeft = R;
kernRight = R;
lastChange = "2026-02-24 09:29:08 +0000";
layers = (
{
layerId = m01;
shapes = (
{
closed = 1;
nodes = (
(209,97,o),
(223,102,o),
(232,120,cs),
(236,127,o),
(237,130,o),
(237,147,cs),
(237,193,o),
(233,233,o),
(221,303,cs),
(210,368,o),
(206,382,o),
(188,424,cs),
(173,460,o),
(161,478,o),
(142,499,cs),
(138,503,o),
(134,508,o),
(135,508,c),
(152,514,ls),
(194,528,o),
(222,547,o),
(249,579,cs),
(264,597,o),
(269,605,o),
(274,621,cs),
(286,655,o),
(284,688,o),
(269,710,cs),
(248,740,o),
(207,769,o),
(163,785,cs),
(135,796,o),
(124,797,o),
(86,797,cs),
(48,797,o),
(46,797,o),
(28,786,cs),
(14,777,o),
(8,769,o),
(4,756,cs),
(0,744,o),
(0,743,o),
(0,635,cs),
(0,545,o),
(1,521,o),
(3,497,cs),
(5,480,o),
(7,447,o),
(7,424,cs),
(9,371,o),
(10,366,o),
(16,325,cs),
(22,282,o),
(24,262,o),
(26,199,cs),
(28,140,l),
(29,134,o),
(38,125,o),
(44,124,cs),
(57,121,o),
(70,129,o),
(72,142,cs),
(73,146,o),
(73,178,o),
(73,215,cs),
(73,280,o),
(73,282,o),
(68,324,cs),
(64,359,o),
(62,378,o),
(61,420,cs),
(58,486,ls),
(57,493,o),
(57,499,o),
(57,500,c),
(59,501,o),
(85,479,o),
(100,465,cs),
(119,447,o),
(126,435,o),
(139,401,cs),
(153,367,o),
(155,360,o),
(165,308,cs),
(177,245,o),
(179,228,o),
(181,188,cs),
(182,166,o),
(185,146,o),
(187,134,cs),
(191,115,o),
(191,113,o),
(197,108,cs)
);
},
{
closed = 1;
nodes = (
(53,566,l),
(53,642,ls),
(53,717,o),
(54,735,o),
(59,743,cs),
(62,747,o),
(64,749,o),
(70,749,cs),
(74,749,o),
(79,748,o),
(86,747,cs),
(111,742,ls),
(145,738,o),
(182,720,o),
(206,696,cs),
(223,679,o),
(226,672,o),
(226,655,cs),
(226,642,o),
(225,639,o),
(221,631,cs),
(216,620,o),
(192,596,o),
(177,586,cs),
(166,578,o),
(146,568,o),
(133,565,cs),
(123,562,o),
(90,562,o),
(67,565,cs)
);
}
);
width = 332;
}
);
unicode = (82,114);
},
{
glyphname = S;
kernLeft = S;
kernRight = S;
lastChange = "2026-03-12 13:14:10 +0000";
layers = (
{
layerId = m01;
shapes = (
{
closed = 1;
nodes = (
(184,98,o),
(229,125,o),
(262,174,c),
(284,214,ls),
(308,265,o),
(316,300,o),
(313,340,cs),
(309,377,o),
(301,401,o),
(281,432,cs),
(256,471,o),
(230,489,o),
(150,525,cs),
(127,536,o),
(102,548,o),
(96,552,cs),
(83,560,o),
(68,575,o),
(63,586,cs),
(54,603,o),
(52,625,o),
(57,646,cs),
(71,711,o),
(110,747,o),
(153,736,cs),
(175,731,o),
(187,721,o),
(203,695,cs),
(214,678,o),
(220,660,o),
(221,639,cs),
(222,629,o),
(224,619,o),
(225,617,cs),
(231,605,o),
(247,600,o),
(257,607,cs),
(266,613,o),
(270,621,o),
(270,636,cs),
(270,677,o),
(250,729,o),
(225,756,cs),
(201,781,o),
(173,794,o),
(139,795,cs),
(79,798,o),
(39,765,o),
(12,692,cs),
(2,663,o),
(0,650,o),
(0,618,cs),
(0,594,o),
(1,588,o),
(4,577,cs),
(10,557,o),
(18,544,o),
(31,531,cs),
(49,513,o),
(65,503,o),
(126,474,cs),
(195,439,l),
(202,434,o),
(213,424,o),
(221,416,cs),
(263,371,o),
(266,313,o),
(232,238,cs),
(211,194,o),
(188,169,o),
(161,164,cs),
(149,161,o),
(140,164,o),
(129,176,cs),
(113,191,o),
(106,210,o),
(97,254,cs),
(90,287,o),
(81,316,o),
(75,322,cs),
(65,330,o),
(53,330,o),
(44,322,cs),
(39,317,o),
(33,301,o),
(33,292,cs),
(33,283,o),
(41,236,o),
(47,212,cs),
(55,182,o),
(70,153,o),
(87,134,cs),
(101,119,o),
(124,107,o),
(144,104,cs)
);
}
);
width = 364;
}
);
unicode = (83,115);
},
{
glyphname = Germandbls;
lastChange = "2026-02-24 14:12:44 +0000";
layers = (
{
layerId = m01;
shapes = (
{
closed = 1;
nodes = (
(316,104,o),
(261,147,o),
(221,196,c),
(193,234,o),
(200,297,o),
(243,323,c),
(268,348,o),
(324,329,o),
(301,290,c),
(279,278,o),
(247,258,o),
(269,229,c),
(300,188,o),
(348,152,o),
(401,158,c),
(461,165,o),
(516,219,o),
(517,280,c),
(516,325,o),
(495,370,o),
(455,391,c),
(406,425,o),
(347,438,o),
(299,471,c),
(269,496,o),
(310,537,o),
(339,536,c),
(399,542,o),
(466,564,o),
(499,618,c),
(515,654,o),
(489,695,o),
(455,709,c),
(399,739,o),
(334,736,o),
(272,730,c),
(233,726,o),
(192,710,o),
(170,674,c),
(130,608,o),
(144,528,o),
(136,455,c),
(129,392,o),
(128,274,o),
(124,211,c),
(119,171,o),
(116,121,o),
(76,98,c),
(54,86,o),
(0,73,o),
(0,111,c),
(10,140,o),
(58,120,o),
(64,155,c),
(80,224,o),
(75,350,o),
(82,419,c),
(87,482,o),
(85,545,o),
(91,608,c),
(98,667,o),
(124,728,o),
(177,759,c),
(239,796,o),
(314,790,o),
(384,789,c),
(445,782,o),
(511,758,o),
(545,704,c),
(572,658,o),
(567,594,o),
(527,557,c),
(492,520,o),
(444,499,o),
(395,487,c),
(443,467,o),
(492,444,o),
(529,406,c),
(567,364,o),
(581,303,o),
(574,248,c),
(554,164,o),
(468,96,o),
(381,100,c)
);
}
);
width = 626;
}
);
unicode = (7838,223);
},
{
glyphname = T;
kernLeft = T;
kernRight = T;
lastChange = "2026-03-13 09:27:43 +0000";
layers = (
{
layerId = m01;
shapes = (
{
closed = 1;
nodes = (
(184,99,o),
(196,104,o),
(205,119,cs),
(210,129,l),
(211,245,ls),
(212,309,o),
(213,368,o),
(214,376,cs),
(217,399,o),
(217,433,o),
(213,470,cs),
(206,533,o),
(202,602,o),
(201,667,cs),
(200,703,o),
(200,733,o),
(201,734,c),
(201,735,o),
(224,737,o),
(251,738,cs),
(300,740,o),
(327,744,o),
(336,750,cs),
(338,751,o),
(342,756,o),
(344,760,cs),
(347,767,o),
(348,769,o),
(346,775,cs),
(343,783,o),
(334,791,o),
(322,795,cs),
(315,798,o),
(244,796,o),
(212,793,cs),
(171,789,o),
(91,776,o),
(63,769,cs),
(47,765,o),
(31,762,o),
(28,762,cs),
(6,762,o),
(-4,735,o),
(12,721,cs),
(18,715,o),
(19,715,o),
(32,715,cs),
(39,715,o),
(56,717,o),
(70,719,cs),
(93,724,o),
(139,730,o),
(147,730,cs),
(150,730,o),
(150,724,o),
(150,661,cs),
(149,591,o),
(151,534,o),
(156,488,cs),
(161,445,o),
(161,414,o),
(157,373,cs),
(152,320,o),
(152,172,o),
(157,147,cs),
(159,138,o),
(160,127,o),
(160,124,cs),
(160,117,o),
(164,111,o),
(172,106,cs)
);
}
);
width = 397;
}
);
unicode = (84,116);
},
{
glyphname = U;
kernLeft = U;
kernRight = U;
lastChange = "2026-02-24 09:29:32 +0000";
layers = (
{
layerId = m01;
shapes = (
{
closed = 1;
nodes = (
(204,99,o),
(234,100,o),
(251,104,cs),
(278,109,o),
(313,130,o),
(331,152,cs),
(345,169,o),
(355,188,o),
(359,209,cs),
(362,228,o),
(366,311,o),
(368,406,cs),
(369,458,o),
(370,505,o),
(371,512,cs),
(372,518,o),
(374,558,o),
(374,601,cs),
(377,681,l),
(378,682,o),
(378,697,o),
(378,715,cs),
(379,748,o),
(376,771,o),
(371,785,cs),
(368,792,o),
(358,799,o),
(350,799,cs),
(340,799,o),
(334,795,o),
(328,783,cs),
(322,771,l),
(321,729,l),
(318,612,ls),
(317,570,o),
(315,529,o),
(314,521,cs),
(313,512,o),
(311,468,o),
(311,421,cs),
(307,238,o),
(304,211,o),
(280,186,cs),
(269,174,o),
(255,166,o),
(235,162,cs),
(184,149,o),
(137,169,o),
(109,216,cs),
(97,236,o),
(75,293,o),
(67,326,cs),
(65,332,o),
(62,350,o),
(60,367,cs),
(55,410,o),
(53,572,o),
(58,634,cs),
(61,679,o),
(60,757,o),
(57,771,cs),
(54,781,o),
(44,788,o),
(35,788,cs),
(31,788,o),
(25,787,o),
(22,785,cs),
(12,779,o),
(11,775,o),
(9,717,cs),
(8,688,o),
(5,655,o),
(4,643,cs),
(2,627,o),
(1,599,o),
(0,528,cs),
(-1,411,o),
(2,366,o),
(13,313,cs),
(23,267,o),
(49,203,o),
(70,171,cs),
(81,154,o),
(99,136,o),
(114,126,cs),
(133,114,o),
(161,105,o),
(189,101,cs)
);
}
);
width = 428;
}
);
unicode = (85,117);
},
{
glyphname = V;
lastChange = "2026-02-24 15:20:32 +0000";
layers = (
{
layerId = m01;
shapes = (
{
closed = 1;
nodes = (
(175,99,o),
(186,103,o),
(194,113,cs),
(200,121,o),
(205,141,o),
(215,202,cs),
(229,272,ls),
(245,339,o),
(248,357,o),
(258,412,cs),
(272,497,o),
(273,501,o),
(280,524,cs),
(280,523,o),
(312,629,o),
(312,628,cs),
(319,647,o),
(334,694,o),
(338,727,cs),
(341,755,ls),
(343,767,o),
(329,780,o),
(316,779,cs),
(310,778,o),
(307,776,o),
(299,767,cs),
(286,754,o),
(290,747,o),
(273,693,cs),
(259,649,o),
(257,644,o),
(242,607,cs),
(219,550,o),
(218,525,o),
(209,473,cs),
(196,395,ls),
(192,372,o),
(184,335,o),
(178,313,cs),
(168,269,l),
(168,253,o),
(157,288,o),
(132,378,cs),
(112,454,l),
(89,546,ls),
(61,653,o),
(51,703,o),
(49,748,cs),
(49,767,o),
(48,777,o),
(46,781,cs),
(38,799,o),
(11,798,o),
(3,780,cs),
(0,774,o),
(0,770,o),
(0,738,cs),
(2,686,o),
(11,632,o),
(34,545,cs),
(40,519,o),
(48,487,o),
(50,473,cs),
(56,444,o),
(79,357,o),
(103,271,cs),
(130,172,ls),
(145,115,o),
(149,106,o),
(163,102,cs)
);
}
);
width = 391;
}
);
unicode = (86,118);
},
{
glyphname = W;
kernLeft = W;
kernRight = W;
lastChange = "2026-02-24 09:31:55 +0000";
layers = (
{
layerId = m01;
shapes = (
{
closed = 1;
nodes = (
(74,98,o),
(88,102,o),
(97,114,cs),
(103,123,o),
(114,151,o),
(122,180,cs),
(126,194,o),
(135,219,o),
(141,235,cs),
(158,285,l),
(164,304,l),
(165,304,o),
(170,295,o),
(175,284,cs),
(205,226,l),
(236,163,ls),
(251,128,o),
(254,122,o),
(260,117,cs),
(271,108,o),
(284,108,o),
(295,117,cs),
(309,130,o),
(310,146,o),
(309,274,cs),
(308,401,o),
(308,618,o),
(309,694,cs),
(310,747,o),
(310,753,o),
(306,769,cs),
(304,779,o),
(302,787,o),
(300,789,cs),
(292,798,o),
(280,800,o),
(271,795,cs),
(267,793,o),
(264,789,o),
(260,781,cs),
(254,769,l),
(253,690,ls),
(252,647,o),
(252,531,o),
(252,432,cs),
(253,254,l),
(252,254,o),
(235,289,o),
(213,332,cs),
(170,418,o),
(170,418,o),
(153,419,cs),
(142,420,o),
(133,416,o),
(128,407,cs),
(126,402,o),
(122,389,o),
(119,371,cs),
(116,355,o),
(113,336,o),
(111,330,cs),
(108,314,o),
(91,261,o),
(89,261,c),
(81,304,ls),
(68,378,o),
(65,417,o),
(63,552,cs),
(61,654,o),
(60,676,o),
(53,717,cs),
(51,732,o),
(48,750,o),
(48,758,cs),
(46,776,o),
(44,782,o),
(38,788,cs),
(28,798,o),
(10,795,o),
(3,782,cs),
(0,777,o),
(0,773,o),
(0,752,cs),
(1,739,o),
(2,721,o),
(4,712,cs),
(9,680,o),
(10,653,o),
(10,559,cs),
(10,424,o),
(14,364,o),
(29,277,cs),
(39,213,o),
(41,195,o),
(44,159,cs),
(45,142,o),
(46,126,o),
(47,122,cs),
(49,114,o),
(55,107,o),
(62,104,cs)
);
}
);
width = 360;
}
);
unicode = (87,119);
},
{
glyphname = X;
lastChange = "2026-02-23 10:14:53 +0000";
layers = (
{
layerId = m01;
shapes = (
{
closed = 1;
nodes = (
(337,100,o),
(347,102,o),
(353,108,cs),
(364,119,o),
(365,138,o),
(355,167,cs),
(338,216,o),
(326,242,o),
(265,361,cs),
(240,409,o),
(212,469,o),
(212,474,cs),
(212,475,o),
(218,489,o),
(226,504,cs),
(241,534,o),
(268,592,o),
(281,623,cs),
(292,649,o),
(301,665,o),
(316,691,cs),
(322,702,o),
(331,721,o),
(336,733,cs),
(347,762,ls),
(350,768,o),
(351,771,o),
(349,776,cs),
(344,794,o),
(328,799,o),
(310,788,cs),
(298,782,o),
(298,782,o),
(270,729,cs),
(245,684,o),
(229,650,o),
(206,599,cs),
(190,563,o),
(178,538,o),
(176,538,c),
(176,538,o),
(171,546,o),
(166,556,cs),
(156,575,o),
(119,638,o),
(79,706,cs),
(62,735,o),
(53,752,o),
(50,763,cs),
(44,781,o),
(38,787,o),
(26,788,cs),
(15,789,o),
(9,786,o),
(3,777,cs),
(-1,770,o),
(-1,761,o),
(4,746,cs),
(9,728,o),
(16,715,o),
(62,634,cs),
(104,561,o),
(146,481,o),
(146,476,cs),
(146,470,o),
(129,433,o),
(108,391,cs),
(95,367,o),
(78,330,o),
(69,307,cs),
(34,227,ls),
(15,188,o),
(5,162,o),
(5,147,cs),
(5,128,o),
(25,117,o),
(42,126,cs),
(49,129,o),
(50,131,o),
(57,154,cs),
(67,180,l),
(81,205,o),
(105,253,o),
(121,288,cs),
(159,368,l),
(180,407,l),
(207,350,l),
(242,282,ls),
(250,268,o),
(268,228,o),
(284,188,cs),
(291,172,o),
(300,151,o),
(305,142,cs),
(310,132,o),
(315,121,o),
(315,118,c),
(317,112,o),
(322,106,o),
(329,103,cs)
);
}
);
width = 412;
}
);
unicode = (88,120);
},
{
glyphname = Y;
kernLeft = Y;
kernRight = Y;
lastChange = "2026-02-24 09:32:03 +0000";
layers = (
{
layerId = m01;
shapes = (
{
closed = 1;
nodes = (
(172,99,o),
(191,99,o),
(205,103,cs),
(232,112,o),
(262,140,o),
(292,184,cs),
(306,204,o),
(314,220,o),
(326,251,cs),
(347,303,o),
(353,338,o),
(355,413,cs),
(357,462,o),
(351,568,o),
(342,642,cs),
(335,707,o),
(334,719,o),
(333,746,cs),
(332,768,o),
(332,775,o),
(329,780,cs),
(319,800,o),
(289,797,o),
(281,775,cs),
(280,772,o),
(278,752,o),
(277,732,cs),
(272,663,o),
(267,639,o),
(254,618,cs),
(240,597,o),
(209,569,o),
(190,560,cs),
(160,546,o),
(123,559,o),
(100,591,cs),
(82,615,o),
(46,705,o),
(46,726,cs),
(46,736,o),
(40,748,o),
(33,751,cs),
(26,754,o),
(16,754,o),
(10,750,cs),
(3,744,o),
(0,736,o),
(0,722,cs),
(0,705,o),
(3,691,o),
(15,656,cs),
(44,571,o),
(66,537,o),
(109,516,cs),
(138,501,o),
(143,500,o),
(166,500,cs),
(184,500,o),
(188,500,o),
(199,504,cs),
(206,507,o),
(218,512,o),
(225,517,cs),
(241,527,o),
(272,553,o),
(285,570,cs),
(296,582,l),
(297,577,ls),
(300,562,o),
(302,495,o),
(301,438,cs),
(300,371,o),
(298,352,o),
(290,317,cs),
(275,256,o),
(252,211,o),
(220,181,cs),
(198,160,o),
(180,153,o),
(162,159,cs),
(154,161,o),
(151,163,o),
(141,174,cs),
(134,180,o),
(125,191,o),
(121,198,cs),
(106,224,o),
(93,262,o),
(89,295,cs),
(83,326,ls),
(81,336,o),
(80,346,o),
(80,348,cs),
(80,356,o),
(76,362,o),
(70,366,cs),
(58,374,o),
(47,371,o),
(39,358,cs),
(31,346,o),
(30,339,o),
(32,314,cs),
(38,241,o),
(65,171,o),
(102,134,cs),
(120,117,o),
(132,109,o),
(156,103,cs)
);
}
);
width = 405;
}
);
unicode = (89,121);
},
{
glyphname = Z;
kernLeft = Z;
kernRight = Z;
lastChange = "2026-02-25 14:18:42 +0000";
layers = (
{
layerId = m01;
shapes = (
{
closed = 1;
nodes = (
(56,99,o),
(77,100,o),
(115,103,cs),
(128,104,o),
(167,105,o),
(201,105,cs),
(272,105,o),
(288,106,o),
(321,114,cs),
(349,121,o),
(352,122,o),
(356,131,cs),
(364,146,o),
(360,163,o),
(340,166,cs),
(317,169,ls),
(295,172,o),
(224,165,o),
(174,164,cs),
(128,163,o),
(88,161,o),
(85,161,cs),
(65,158,o),
(67,168,o),
(68,176,c),
(90,235,o),
(100,255,o),
(134,308,cs),
(144,323,o),
(156,343,o),
(161,353,cs),
(170,371,l),
(197,371,ls),
(219,371,o),
(241,373,o),
(274,378,cs),
(281,379,o),
(291,389,o),
(291,396,cs),
(292,409,o),
(288,415,o),
(276,422,cs),
(266,427,o),
(266,427,o),
(232,428,cs),
(197,429,l),
(197,433,o),
(227,496,o),
(266,572,cs),
(317,674,o),
(326,696,o),
(331,726,cs),
(336,755,o),
(331,771,o),
(313,785,cs),
(298,797,o),
(290,799,o),
(246,799,cs),
(201,799,o),
(37,795,o),
(25,793,cs),
(7,791,o),
(-3,771,o),
(7,756,cs),
(14,745,o),
(14,745,o),
(105,743,cs),
(227,741,ls),
(262,742,o),
(269,741,o),
(275,738,cs),
(285,734,o),
(277,717,o),
(273,710,cs),
(268,701,o),
(259,687,o),
(253,676,cs),
(202,575,ls),
(179,530,o),
(154,481,o),
(148,465,cs),
(142,450,o),
(135,436,o),
(133,432,cs),
(131,427,l),
(84,426,ls),
(33,425,o),
(28,424,o),
(21,413,cs),
(14,401,o),
(17,387,o),
(28,379,cs),
(33,376,o),
(38,375,o),
(67,374,cs),
(102,372,l),
(103,371,o),
(99,365,o),
(68,314,cs),
(48,281,o),
(27,238,o),
(15,204,cs),
(8,182,o),
(7,181,o),
(7,156,cs),
(7,132,o),
(8,129,o),
(12,122,cs),
(14,118,o),
(18,113,o),
(21,110,cs),
(25,107,o),
(39,102,o),
(50,100,cs)
);
}
);
width = 409;
}
);
unicode = (90,122);
},
{
glyphname = Zacute;
kernLeft = Z;
kernRight = Z;
lastChange = "2026-02-25 14:15:55 +0000";
layers = (
{
layerId = m01;
shapes = (
{
closed = 1;
nodes = (
(56,99,o),
(77,100,o),
(115,103,cs),
(128,104,o),
(167,105,o),
(201,105,cs),
(272,105,o),
(288,106,o),
(321,114,cs),
(349,121,o),
(352,122,o),
(356,131,cs),
(364,146,o),
(360,163,o),
(340,166,cs),
(317,169,ls),
(295,172,o),
(224,165,o),
(174,164,cs),
(128,163,o),
(88,161,o),
(85,161,cs),
(65,158,o),
(67,168,o),
(68,176,c),
(90,235,o),
(100,255,o),
(134,308,cs),
(144,323,o),
(156,343,o),
(161,353,c),
(266,572,l),
(317,674,o),
(326,696,o),
(331,726,cs),
(336,755,o),
(331,771,o),
(313,785,cs),
(298,797,o),
(290,799,o),
(246,799,cs),
(201,799,o),
(37,795,o),
(25,793,cs),
(7,791,o),
(-3,771,o),
(7,756,cs),
(14,745,o),
(14,745,o),
(105,743,cs),
(227,741,ls),
(262,742,o),
(269,741,o),
(275,738,cs),
(285,734,o),
(284,728,o),
(273,710,cs),
(267,702,o),
(259,687,o),
(253,676,cs),
(202,575,ls),
(179,530,o),
(154,481,o),
(148,465,c),
(68,314,l),
(48,281,o),
(27,238,o),
(15,204,cs),
(8,182,o),
(7,181,o),
(7,156,cs),
(7,132,o),
(8,129,o),
(12,122,cs),
(14,118,o),
(18,113,o),
(21,110,cs),
(25,107,o),
(39,102,o),
(50,100,cs)
);
},
{
pos = (0,113);
ref = acutecomb;
scale = (0.9115,0.8866);
}
);
width = 409;
}
);
unicode = (377,378);
},
{
glyphname = Zcaron;
kernLeft = Z;
kernRight = Z;
lastChange = "2026-02-25 14:16:27 +0000";
layers = (
{
layerId = m01;
shapes = (
{
closed = 1;
nodes = (
(56,99,o),
(77,100,o),
(115,103,cs),
(128,104,o),
(167,105,o),
(201,105,cs),
(272,105,o),
(288,106,o),
(321,114,cs),
(349,121,o),
(352,122,o),
(356,131,cs),
(364,146,o),
(360,163,o),
(340,166,cs),
(317,169,ls),
(295,172,o),
(224,165,o),
(174,164,cs),
(128,163,o),
(88,161,o),
(85,161,cs),
(65,158,o),
(67,168,o),
(68,176,c),
(90,235,o),
(100,255,o),
(134,308,cs),
(144,323,o),
(156,343,o),
(161,353,c),
(266,572,l),
(317,674,o),
(335,703,o),
(340,733,cs),
(345,762,o),
(339,771,o),
(321,785,cs),
(306,797,o),
(290,799,o),
(246,799,cs),
(201,799,o),
(37,795,o),
(25,793,cs),
(7,791,o),
(-3,771,o),
(7,756,cs),
(14,745,o),
(14,745,o),
(105,743,cs),
(227,741,ls),
(262,742,o),
(269,741,o),
(275,738,cs),
(285,734,o),
(284,728,o),
(273,710,cs),
(267,702,o),
(259,687,o),
(253,676,cs),
(202,575,ls),
(179,530,o),
(154,481,o),
(148,465,c),
(68,314,l),
(48,281,o),
(27,238,o),
(15,204,cs),
(8,182,o),
(7,181,o),
(7,156,cs),
(7,132,o),
(8,129,o),
(12,122,cs),
(14,118,o),
(18,113,o),
(21,110,cs),
(25,107,o),
(39,102,o),
(50,100,cs)
);
},
{
pos = (43,9);
ref = caroncomb;
}
);
width = 409;
}
);
unicode = (381,382);
},
{
glyphname = Zdotaccent;
kernLeft = Z;
kernRight = Z;
lastChange = "2026-02-25 14:17:14 +0000";
layers = (
{
layerId = m01;
shapes = (
{
closed = 1;
nodes = (
(56,99,o),
(77,100,o),
(115,103,cs),
(128,104,o),
(167,105,o),
(201,105,cs),
(272,105,o),
(288,106,o),
(321,114,cs),
(349,121,o),
(352,122,o),
(356,131,cs),
(364,146,o),
(360,163,o),
(340,166,cs),
(317,169,ls),
(295,172,o),
(224,165,o),
(174,164,cs),
(128,163,o),
(88,161,o),
(85,161,cs),
(65,158,o),
(67,168,o),
(68,176,c),
(90,235,o),
(100,255,o),
(134,308,cs),
(144,323,o),
(156,343,o),
(161,353,c),
(266,572,l),
(317,674,o),
(326,696,o),
(331,726,cs),
(336,755,o),
(331,771,o),
(313,785,cs),
(298,797,o),
(290,799,o),
(246,799,cs),
(201,799,o),
(37,795,o),
(25,793,cs),
(7,791,o),
(-3,771,o),
(7,756,cs),
(14,745,o),
(14,745,o),
(105,743,cs),
(227,741,ls),
(262,742,o),
(269,741,o),
(275,738,cs),
(285,734,o),
(277,717,o),
(273,710,cs),
(268,701,o),
(259,687,o),
(253,676,cs),
(202,575,ls),
(179,530,o),
(154,481,o),
(148,465,cs),
(142,450,o),
(99,365,o),
(68,314,cs),
(48,281,o),
(27,238,o),
(15,204,cs),
(8,182,o),
(7,181,o),
(7,156,cs),
(7,132,o),
(8,129,o),
(12,122,cs),
(14,118,o),
(18,113,o),
(21,110,cs),
(25,107,o),
(39,102,o),
(50,100,cs)
);
},
{
pos = (-39,0);
ref = dotaccentcomb;
}
);
width = 409;
}
);
unicode = (379,380);
},
{
glyphname = Saltillo;
lastChange = "2026-02-23 17:45:09 +0000";
layers = (
{
layerId = m01;
shapes = (
{
closed = 1;
nodes = (
(48,487,o),
(18,487,o),
(8,509,c),
(7,513,o),
(7,518,o),
(7,538,c),
(7,587,o),
(5,647,o),
(3,677,c),
(0,719,o),
(0,732,o),
(0,753,c),
(1,772,o),
(1,772,o),
(4,778,c),
(13,790,o),
(26,797,o),
(40,795,c),
(46,794,o),
(58,787,o),
(62,782,c),
(67,773,o),
(68,768,o),
(67,731,c),
(67,710,o),
(67,687,o),
(67,676,c),
(67,667,o),
(65,624,o),
(64,585,c),
(60,517,o),
(60,511,o),
(58,508,c)
);
}
);
width = 117;
}
);
unicode = (42891,42892);
},
{
glyphname = A.alt;
lastChange = "2026-02-23 11:57:55 +0000";
layers = (
{
layerId = m01;
shapes = (
{
closed = 1;
nodes = (
(140,799,o),
(130,786,o),
(111,738,c),
(106,727,o),
(84,658,o),
(75,627,c),
(62,580,o),
(36,455,o),
(34,447,c),
(31,422,o),
(22,376,o),
(21,371,c),
(21,371,o),
(-1,140,o),
(3,133,c),
(7,126,o),
(15,122,o),
(24,123,c),
(34,124,o),
(41,132,o),
(43,142,c),
(43,147,o),
(45,158,o),
(47,168,c),
(57,208,o),
(64,305,o),
(65,322,c),
(67,339,l),
(96,340,l),
(124,341,o),
(134,342,o),
(194,353,c),
(203,354,o),
(220,359,o),
(231,362,c),
(243,366,o),
(240,365,o),
(240,365,c),
(241,364,o),
(258,322,o),
(271,208,c),
(281,162,o),
(291,123,o),
(294,115,c),
(297,109,o),
(304,104,o),
(311,102,c),
(320,99,o),
(331,103,o),
(337,112,c),
(342,120,o),
(342,133,o),
(333,170,c),
(329,187,o),
(322,217,o),
(318,237,c),
(281,466,o),
(269,467,o),
(183,770,c),
(178,791,o),
(170,799,o),
(156,799,c)
);
},
{
closed = 1;
nodes = (
(161,669,o),
(211,507,o),
(226,462,c),
(243,409,o),
(242,414,o),
(232,412,c),
(227,411,o),
(214,408,o),
(202,405,c),
(162,396,o),
(119,388,o),
(100,386,c),
(74,383,o),
(73,383,o),
(74,388,c),
(75,390,o),
(77,401,o),
(79,412,c),
(83,431,o),
(108,551,o),
(114,576,c),
(114,578,o),
(148,693,o),
(148,691,c)
);
}
);
width = 386;
}
);
},
{
glyphname = B.alt;
lastChange = "2026-02-23 10:14:53 +0000";
layers = (
{
layerId = m01;
shapes = (
{
closed = 1;
nodes = (
(98,793,o),
(94,792,o),
(85,787,cs),
(68,779,o),
(57,769,o),
(47,754,cs),
(28,725,o),
(19,696,o),
(16,654,cs),
(15,641,o),
(14,628,o),
(12,609,cs),
(10,588,o),
(8,564,o),
(6,540,cs),
(3,512,o),
(7,301,o),
(11,263,cs),
(13,247,o),
(15,210,o),
(16,179,cs),
(17,148,o),
(19,121,o),
(20,117,cs),
(21,115,o),
(23,111,o),
(27,108,cs),
(33,104,o),
(44,104,o),
(49,107,cs),
(51,108,o),
(67,109,o),
(85,109,cs),
(151,108,o),
(189,118,o),
(231,148,cs),
(250,162,o),
(260,172,o),
(270,186,cs),
(286,210,o),
(289,225,o),
(291,262,cs),
(293,330,o),
(275,375,o),
(228,421,cs),
(217,431,o),
(204,443,o),
(197,448,cs),
(180,459,l),
(194,469,ls),
(225,494,o),
(245,527,o),
(255,562,cs),
(260,584,o),
(263,620,o),
(260,646,cs),
(256,688,o),
(241,714,o),
(203,752,cs),
(168,786,o),
(149,795,o),
(113,794,cs)
);
},
{
closed = 1;
nodes = (
(124,737,o),
(129,737,o),
(131,737,c),
(154,731,o),
(189,691,o),
(201,662,cs),
(205,652,o),
(206,646,o),
(205,621,cs),
(205,588,o),
(202,572,o),
(192,551,cs),
(178,525,o),
(134,479,o),
(92,485,cs),
(77,487,o),
(70,473,o),
(67,467,cs),
(63,459,o),
(63,448,o),
(67,442,cs),
(73,431,o),
(99,429,o),
(122,420,c),
(152,412,o),
(174,397,o),
(191,381,cs),
(221,353,o),
(236,322,o),
(238,280,cs),
(242,236,o),
(225,204,o),
(184,182,cs),
(164,172,o),
(144,167,o),
(118,164,cs),
(107,163,o),
(91,162,o),
(83,162,cs),
(64,162,l),
(63,202,ls),
(63,207,o),
(62,215,o),
(62,220,cs),
(61,236,o),
(61,250,o),
(60,259,cs),
(57,292,o),
(56,543,o),
(59,561,cs),
(61,570,o),
(64,596,o),
(66,620,cs),
(68,644,o),
(71,671,o),
(72,677,cs),
(81,710,o),
(102,736,o),
(122,737,cs)
);
}
);
width = 345;
}
);
},
{
glyphname = C.alt;
lastChange = "2026-02-23 10:14:53 +0000";
layers = (
{
layerId = m01;
shapes = (
{
closed = 1;
nodes = (
(159,103,o),
(205,111,o),
(234,127,cs),
(276,148,o),
(305,178,o),
(324,223,cs),
(353,289,o),
(350,363,o),
(320,370,cs),
(314,371,o),
(313,371,o),
(309,369,cs),
(296,364,o),
(291,351,o),
(291,318,cs),
(291,280,o),
(283,254,o),
(267,226,cs),
(253,203,o),
(238,189,o),
(213,177,cs),
(186,164,o),
(168,160,o),
(150,162,cs),
(126,164,o),
(113,172,o),
(102,197,cs),
(90,222,o),
(84,260,o),
(78,336,cs),
(73,387,o),
(73,388,o),
(68,423,cs),
(59,488,o),
(57,512,o),
(57,588,cs),
(57,643,o),
(57,657,o),
(60,669,cs),
(64,689,o),
(73,707,o),
(83,717,cs),
(98,732,o),
(119,738,o),
(160,740,cs),
(202,742,o),
(233,735,o),
(257,719,cs),
(281,703,o),
(291,689,o),
(294,664,cs),
(296,649,o),
(300,645,o),
(308,642,cs),
(315,639,o),
(315,639,o),
(321,641,cs),
(330,644,o),
(335,650,o),
(336,660,cs),
(338,674,o),
(334,703,o),
(329,714,cs),
(316,740,o),
(274,772,o),
(241,782,cs),
(200,795,o),
(124,794,o),
(82,781,cs),
(35,765,o),
(24,752,o),
(11,692,cs),
(4,661,l),
(4,583,ls),
(4,499,o),
(5,485,o),
(15,419,cs),
(18,403,o),
(21,374,o),
(23,356,cs),
(31,259,o),
(35,232,o),
(47,193,cs),
(55,167,o),
(62,153,o),
(75,137,cs),
(90,118,o),
(103,112,o),
(131,107,cs)
);
}
);
width = 399;
}
);
},
{
glyphname = D.alt;
lastChange = "2026-02-24 15:19:43 +0000";
layers = (
{
layerId = m01;
shapes = (
{
closed = 1;
nodes = (
(19,797,o),
(11,793,o),
(7,783,cs),
(2,772,o),
(2,534,o),
(7,471,cs),
(9,448,o),
(10,419,o),
(10,408,cs),
(10,384,o),
(15,312,o),
(20,252,cs),
(22,228,o),
(25,190,o),
(26,169,cs),
(28,120,o),
(31,112,o),
(46,105,cs),
(55,101,o),
(62,102,o),
(71,108,c),
(76,110,o),
(84,114,o),
(88,116,cs),
(131,134,o),
(158,152,o),
(193,185,cs),
(227,217,o),
(277,280,o),
(293,308,cs),
(301,322,o),
(313,354,o),
(318,377,cs),
(322,397,o),
(324,461,o),
(321,483,cs),
(317,507,o),
(305,543,o),
(291,572,cs),
(268,618,o),
(251,642,o),
(209,686,cs),
(172,722,o),
(160,731,o),
(125,749,cs),
(101,762,o),
(89,767,o),
(63,773,cs),
(55,775,o),
(53,778,o),
(50,784,c),
(47,794,o),
(39,797,o),
(29,797,cs)
);
},
{
closed = 1;
nodes = (
(64,713,o),
(103,694,o),
(119,684,cs),
(142,670,o),
(194,617,o),
(212,591,cs),
(235,557,o),
(253,515,o),
(260,483,cs),
(265,457,o),
(263,401,o),
(256,377,cs),
(246,341,o),
(235,324,o),
(192,274,cs),
(164,242,o),
(140,218,o),
(117,201,cs),
(114,199,o),
(113,198,o),
(110,196,cs),
(103,191,o),
(98,187,o),
(96,185,c),
(87,180,l),
(86,191,ls),
(85,196,o),
(83,216,o),
(81,237,cs),
(80,257,o),
(77,288,o),
(75,306,cs),
(74,316,o),
(73,330,o),
(72,345,cs),
(71,361,o),
(70,381,o),
(69,398,cs),
(68,432,o),
(65,470,o),
(63,485,cs),
(59,525,o),
(56,571,o),
(55,644,cs),
(55,693,o),
(54,713,o),
(59,713,cs)
);
}
);
width = 374;
}
);
},
{
glyphname = E.alt;
lastChange = "2026-02-23 10:14:53 +0000";
layers = (
{
layerId = m01;
shapes = (
{
closed = 1;
nodes = (
(122,114,o),
(195,119,o),
(237,122,cs),
(271,124,o),
(300,128,o),
(316,133,cs),
(327,136,o),
(332,143,o),
(332,155,cs),
(332,164,o),
(327,171,o),
(316,177,cs),
(306,183,l),
(265,183,ls),
(208,183,o),
(129,179,o),
(88,165,cs),
(65,158,o),
(66,240,o),
(65,307,cs),
(65,345,o),
(58,405,o),
(56,411,c),
(62,419,l),
(145,419,ls),
(224,419,o),
(294,415,o),
(305,435,cs),
(317,457,o),
(304,475,o),
(269,477,cs),
(261,477,o),
(225,477,o),
(190,476,cs),
(178,475,o),
(167,475,o),
(154,474,cs),
(145,474,o),
(133,473,o),
(124,473,cs),
(117,473,o),
(110,473,o),
(103,472,cs),
(99,472,o),
(93,472,o),
(91,472,cs),
(53,471,l),
(53,527,ls),
(53,546,o),
(53,562,o),
(52,578,cs),
(52,590,o),
(52,603,o),
(52,613,cs),
(51,681,o),
(50,714,o),
(66,729,cs),
(70,733,o),
(85,734,o),
(98,735,cs),
(105,735,o),
(115,736,o),
(120,737,cs),
(121,737,ls),
(122,737,o),
(126,737,o),
(131,737,cs),
(139,738,o),
(150,738,o),
(166,739,cs),
(175,740,o),
(184,740,o),
(193,740,cs),
(201,740,o),
(211,741,o),
(220,741,cs),
(297,742,o),
(311,743,o),
(315,745,cs),
(334,754,o),
(334,781,o),
(315,790,cs),
(311,792,o),
(299,793,o),
(216,794,cs),
(183,793,o),
(155,794,o),
(132,794,cs),
(14,795,o),
(2,795,o),
(2,680,cs),
(2,592,o),
(5,424,o),
(7,391,cs),
(8,374,o),
(10,320,o),
(11,271,cs),
(11,260,o),
(11,249,o),
(12,239,cs),
(12,232,o),
(12,223,o),
(12,217,cs),
(12,168,o),
(12,152,o),
(20,135,cs),
(25,125,o),
(39,99,o),
(94,109,cs)
);
}
);
width = 384;
}
);
},
{
glyphname = F.alt;
lastChange = "2026-02-23 10:14:53 +0000";
layers = (
{
layerId = m01;
shapes = (
{
closed = 1;
nodes = (
(32,106,o),
(24,115,o),
(21,120,c),
(19,123,o),
(18,134,o),
(18,147,c),
(18,179,o),
(11,296,o),
(9,312,c),
(8,316,o),
(6,346,o),
(4,379,c),
(1,430,o),
(0,460,o),
(0,604,c),
(0,752,o),
(-1,780,o),
(8,782,cs),
(28,786,l),
(70,787,o),
(184,784,o),
(209,787,c),
(257,793,o),
(263,793,o),
(279,786,c),
(296,778,o),
(301,766,o),
(294,753,c),
(289,741,o),
(285,740,o),
(242,729,c),
(211,722,o),
(167,720,o),
(106,722,c),
(79,723,o),
(56,723,o),
(55,723,c),
(54,723,o),
(53,673,o),
(53,612,c),
(57,525,l),
(87,526,l),
(84,526,o),
(286,529,o),
(283,529,c),
(295,529,o),
(312,522,o),
(318,514,c),
(326,503,o),
(320,481,o),
(308,477,c),
(257,463,o),
(141,470,o),
(86,470,c),
(59,470,l),
(60,452,l),
(62,433,o),
(64,352,o),
(72,278,c),
(78,230,o),
(81,177,o),
(81,146,c),
(81,130,o),
(80,126,o),
(77,118,c),
(74,113,o),
(70,108,o),
(67,106,c),
(61,101,o),
(44,99,o),
(39,103,c)
);
}
);
width = 367;
}
);
},
{
glyphname = G.alt;
lastChange = "2026-02-23 10:14:53 +0000";
layers = (
{
layerId = m01;
shapes = (
{
closed = 1;
nodes = (
(167,799,o),
(150,796,o),
(136,788,c),
(118,780,o),
(102,768,o),
(90,752,c),
(64,718,o),
(44,680,o),
(28,641,c),
(19,618,o),
(11,596,o),
(9,571,c),
(5,536,o),
(3,501,o),
(1,465,c),
(0,444,o),
(0,423,o),
(4,403,c),
(10,366,o),
(14,329,o),
(17,293,c),
(20,266,o),
(24,240,o),
(35,216,c),
(50,181,o),
(75,150,o),
(104,128,c),
(122,115,o),
(142,105,o),
(163,103,c),
(197,99,o),
(231,112,o),
(258,132,c),
(286,153,o),
(305,184,o),
(316,218,c),
(320,239,o),
(321,262,o),
(320,284,c),
(316,310,o),
(315,336,o),
(309,362,c),
(304,377,o),
(296,392,o),
(282,401,c),
(261,413,o),
(159,403,o),
(137,392,c),
(117,376,o),
(131,343,o),
(153,348,c),
(180,349,o),
(207,351,o),
(234,350,c),
(242,351,o),
(250,347,o),
(254,339,c),
(263,322,o),
(265,301,o),
(266,282,c),
(267,261,o),
(268,240,o),
(261,220,c),
(253,198,o),
(234,181,o),
(215,169,c),
(191,155,o),
(158,154,o),
(135,170,c),
(119,181,o),
(107,196,o),
(97,212,c),
(80,237,o),
(72,267,o),
(69,297,c),
(66,325,o),
(65,353,o),
(61,381,c),
(56,409,o),
(53,438,o),
(53,466,c),
(54,525,o),
(60,584,o),
(82,638,c),
(95,667,o),
(111,695,o),
(131,719,c),
(144,737,o),
(166,748,o),
(188,745,c),
(213,742,o),
(233,723,o),
(246,703,c),
(264,676,o),
(275,645,o),
(275,613,c),
(275,603,o),
(279,591,o),
(290,589,c),
(296,587,o),
(304,588,o),
(308,593,c),
(311,595,o),
(316,597,o),
(315,602,c),
(316,623,o),
(319,645,o),
(313,666,c),
(303,705,o),
(284,743,o),
(253,770,c),
(233,786,o),
(209,797,o),
(183,798,c)
);
}
);
width = 370;
}
);
},
{
glyphname = L.alt;
lastChange = "2026-02-23 10:14:53 +0000";
layers = (
{
layerId = m01;
shapes = (
{
closed = 1;
nodes = (
(13,106,o),
(9,110,o),
(6,114,c),
(2,121,o),
(1,123,o),
(1,153,c),
(0,196,o),
(4,480,o),
(6,536,c),
(7,561,o),
(9,625,o),
(9,677,c),
(10,783,o),
(10,783,o),
(22,791,c),
(36,799,o),
(53,794,o),
(59,778,c),
(62,770,o),
(62,763,o),
(61,673,c),
(59,567,o),
(59,207,o),
(61,184,c),
(62,170,o),
(62,170,o),
(68,171,c),
(78,174,o),
(175,175,o),
(206,172,c),
(239,170,o),
(267,166,o),
(277,162,c),
(285,158,o),
(300,142,o),
(302,134,c),
(304,123,o),
(293,107,o),
(281,107,c),
(279,106,o),
(261,107,o),
(242,109,c),
(223,110,o),
(175,111,o),
(134,112,c),
(61,113,l),
(50,107,l),
(38,100,o),
(26,99,o),
(17,104,c)
);
}
);
width = 352;
}
);
},
{
glyphname = M.alt;
lastChange = "2026-02-23 10:14:53 +0000";
layers = (
{
layerId = m01;
shapes = (
{
closed = 1;
nodes = (
(14,105,o),
(9,109,o),
(7,113,c),
(3,118,o),
(3,119,o),
(2,182,c),
(0,278,o),
(0,430,o),
(2,482,c),
(4,533,o),
(7,560,o),
(19,621,c),
(24,644,o),
(28,671,o),
(29,682,c),
(30,692,o),
(32,710,o),
(33,721,c),
(35,744,o),
(38,752,o),
(47,758,c),
(52,761,o),
(56,762,o),
(63,762,c),
(72,762,o),
(74,761,o),
(80,755,c),
(89,747,o),
(93,735,o),
(102,691,c),
(105,676,o),
(112,649,o),
(117,630,c),
(131,574,o),
(146,512,o),
(153,476,c),
(156,457,o),
(159,442,o),
(160,441,c),
(160,440,o),
(161,441,o),
(170,476,c),
(180,513,o),
(192,555,o),
(207,603,c),
(214,625,o),
(222,652,o),
(226,664,c),
(234,692,o),
(251,731,o),
(265,756,c),
(283,789,o),
(293,799,o),
(308,799,c),
(319,799,o),
(328,793,o),
(333,783,c),
(337,774,o),
(338,760,o),
(333,706,c),
(330,671,o),
(327,565,o),
(326,484,c),
(326,457,o),
(325,368,o),
(323,287,c),
(321,139,l),
(316,129,l),
(309,115,o),
(301,110,o),
(290,111,c),
(278,112,o),
(272,120,o),
(267,140,c),
(264,154,o),
(264,161,o),
(264,234,c),
(265,311,o),
(266,374,o),
(270,468,c),
(271,494,o),
(272,536,o),
(272,562,c),
(271,610,l),
(258,570,l),
(242,524,o),
(217,435,o),
(211,403,c),
(208,391,o),
(204,365,o),
(202,346,c),
(196,302,o),
(187,264,o),
(182,259,c),
(169,244,o),
(146,246,o),
(137,261,c),
(135,264,o),
(132,272,o),
(131,278,c),
(126,299,o),
(108,395,o),
(100,445,c),
(93,485,o),
(78,557,o),
(72,577,c),
(70,583,o),
(68,577,o),
(64,552,c),
(57,509,o),
(53,420,o),
(52,238,c),
(51,132,o),
(51,122,o),
(48,116,c),
(42,104,o),
(29,99,o),
(17,104,c)
);
}
);
width = 396;
}
);
},
{
glyphname = N.alt;
lastChange = "2026-02-23 10:14:53 +0000";
layers = (
{
layerId = m01;
shapes = (
{
closed = 1;
nodes = (
(302,110,o),
(306,116,o),
(308,128,cs),
(311,141,o),
(311,202,o),
(309,244,cs),
(309,247,o),
(309,250,o),
(308,256,cs),
(307,267,o),
(307,277,o),
(306,290,cs),
(306,299,o),
(305,311,o),
(305,319,cs),
(305,326,o),
(304,336,o),
(303,349,cs),
(303,350,o),
(303,354,o),
(303,356,cs),
(303,362,o),
(302,372,o),
(302,379,cs),
(301,392,o),
(301,402,o),
(300,414,cs),
(298,442,o),
(296,480,o),
(296,493,cs),
(295,571,o),
(293,587,o),
(291,605,cs),
(289,623,o),
(288,638,o),
(288,716,cs),
(287,781,o),
(284,784,o),
(271,792,cs),
(266,796,o),
(251,796,o),
(246,792,cs),
(239,786,o),
(239,784,o),
(239,711,cs),
(239,636,o),
(242,592,o),
(244,565,cs),
(246,540,o),
(246,529,o),
(243,522,c),
(232,520,l),
(231,521,o),
(230,523,o),
(230,523,c),
(229,525,o),
(230,523,o),
(230,523,c),
(228,526,o),
(224,531,o),
(218,538,cs),
(210,548,o),
(201,560,o),
(190,574,cs),
(171,598,o),
(133,646,o),
(106,680,cs),
(74,721,o),
(55,744,o),
(50,747,cs),
(39,755,o),
(22,752,o),
(16,741,c),
(11,736,o),
(7,714,o),
(6,659,cs),
(6,638,o),
(5,591,o),
(4,559,cs),
(3,519,o),
(3,488,o),
(5,460,cs),
(6,438,o),
(6,398,o),
(6,371,cs),
(5,345,o),
(5,314,o),
(6,302,cs),
(6,299,o),
(6,293,o),
(6,289,cs),
(7,283,o),
(7,277,o),
(7,272,cs),
(8,248,o),
(9,223,o),
(10,201,cs),
(11,178,o),
(12,158,o),
(12,157,cs),
(13,141,o),
(39,132,o),
(51,145,cs),
(56,151,o),
(56,151,o),
(57,177,cs),
(58,192,o),
(57,253,o),
(56,276,cs),
(55,301,o),
(54,336,o),
(55,368,cs),
(56,397,o),
(56,436,o),
(55,456,cs),
(54,484,o),
(54,511,o),
(57,566,cs),
(60,626,l),
(58,628,l),
(69,637,l),
(70,636,o),
(85,619,o),
(98,602,cs),
(101,598,o),
(104,594,o),
(107,590,cs),
(111,585,o),
(115,579,o),
(120,572,cs),
(129,560,o),
(138,548,o),
(145,539,cs),
(148,536,o),
(152,532,o),
(156,527,cs),
(168,512,o),
(182,495,o),
(191,484,cs),
(201,470,o),
(216,452,o),
(225,444,cs),
(233,436,o),
(240,428,o),
(242,425,c),
(243,422,l),
(244,410,o),
(250,328,o),
(253,276,cs),
(255,239,o),
(255,204,o),
(255,171,cs),
(254,122,o),
(254,121,o),
(257,117,cs),
(260,114,o),
(266,108,o),
(268,107,cs),
(276,103,o),
(281,103,o),
(292,106,cs)
);
}
);
width = 395;
}
);
},
{
glyphname = O.alt;
lastChange = "2026-02-23 10:14:53 +0000";
layers = (
{
layerId = m01;
shapes = (
{
closed = 1;
nodes = (
(147,796,o),
(128,791,o),
(109,782,cs),
(86,771,o),
(80,765,o),
(51,716,cs),
(22,667,o),
(16,650,o),
(9,609,cs),
(5,582,o),
(3,495,o),
(6,456,cs),
(12,387,o),
(27,288,o),
(40,237,cs),
(48,206,o),
(53,193,o),
(62,175,cs),
(79,142,o),
(120,112,o),
(164,105,cs),
(170,104,o),
(189,104,o),
(207,104,cs),
(243,105,o),
(258,108,o),
(277,118,cs),
(299,129,o),
(323,160,o),
(335,191,cs),
(343,210,o),
(350,245,o),
(354,285,cs),
(359,336,o),
(357,452,o),
(350,518,cs),
(337,644,o),
(299,707,o),
(268,753,cs),
(264,759,o),
(248,768,o),
(241,775,cs),
(223,792,o),
(216,795,o),
(183,796,cs),
(179,796,o),
(175,796,o),
(172,796,cs)
);
},
{
closed = 1;
nodes = (
(200,744,l),
(230,736,o),
(246,700,o),
(258,676,cs),
(269,652,o),
(285,594,o),
(291,549,cs),
(303,469,o),
(305,316,o),
(295,257,cs),
(289,217,o),
(281,198,o),
(265,180,cs),
(254,169,o),
(241,163,o),
(220,160,cs),
(188,156,o),
(159,161,o),
(137,175,cs),
(104,196,o),
(92,230,o),
(74,350,cs),
(61,436,o),
(60,442,o),
(60,524,cs),
(60,601,l),
(66,619,ls),
(74,649,o),
(88,678,o),
(112,713,cs),
(125,733,o),
(143,748,o),
(169,748,c)
);
}
);
width = 411;
}
);
},
{
glyphname = P.alt;
lastChange = "2026-02-23 10:14:53 +0000";
layers = (
{
layerId = m01;
shapes = (
{
closed = 1;
nodes = (
(142,799,o),
(129,798,o),
(119,797,c),
(84,791,o),
(26,774,o),
(14,767,c),
(3,760,o),
(-1,743,o),
(6,731,c),
(10,724,o),
(22,718,o),
(30,719,c),
(37,720,l),
(37,606,l),
(42,367,l),
(44,339,o),
(46,283,o),
(46,242,c),
(47,176,o),
(47,166,o),
(51,148,c),
(53,136,o),
(55,125,o),
(55,122,c),
(55,115,o),
(60,108,o),
(70,104,c),
(80,100,o),
(81,100,o),
(90,104,c),
(96,107,o),
(99,111,o),
(104,121,c),
(110,133,l),
(109,219,l),
(109,266,o),
(107,330,o),
(105,362,c),
(104,393,o),
(102,421,o),
(102,424,c),
(102,429,o),
(103,429,o),
(124,431,c),
(177,437,o),
(211,446,o),
(253,467,c),
(339,509,o),
(369,555,o),
(362,637,c),
(359,681,o),
(339,722,o),
(312,746,c),
(288,766,o),
(248,787,o),
(221,794,c),
(207,798,o),
(181,800,o),
(157,799,c)
);
},
{
closed = 1;
nodes = (
(205,741,o),
(249,725,o),
(272,696,c),
(281,686,o),
(292,663,o),
(296,648,c),
(300,630,o),
(299,602,o),
(294,588,c),
(284,564,o),
(265,545,o),
(232,527,c),
(200,510,o),
(168,500,o),
(126,495,c),
(112,494,o),
(101,492,o),
(100,492,c),
(96,492,o),
(90,734,o),
(94,735,c),
(95,735,o),
(104,736,o),
(115,738,c),
(128,739,o),
(140,740,o),
(153,740,c)
);
}
);
width = 413;
}
);
},
{
glyphname = R.alt;
lastChange = "2026-03-04 15:12:24 +0000";
layers = (
{
layerId = m01;
shapes = (
{
closed = 1;
nodes = (
(67,792,o),
(48,783,o),
(34,766,cs),
(20,747,o),
(14,730,o),
(7,682,cs),
(3,660,o),
(3,661,o),
(15,460,cs),
(26,258,l),
(22,211,ls),
(16,129,o),
(18,116,o),
(40,114,cs),
(58,113,o),
(64,120,o),
(65,149,cs),
(65,156,o),
(66,172,o),
(68,190,cs),
(69,198,o),
(69,203,o),
(70,210,cs),
(77,272,o),
(77,285,o),
(74,365,cs),
(70,453,l),
(98,396,o),
(91,407,o),
(121,361,cs),
(145,324,o),
(155,316,o),
(212,225,cs),
(260,149,o),
(285,118,o),
(306,106,cs),
(309,104,o),
(313,104,o),
(321,105,cs),
(330,106,o),
(330,107,o),
(334,111,c),
(338,117,o),
(338,118,o),
(337,126,cs),
(336,143,o),
(332,151,o),
(308,184,cs),
(295,202,o),
(281,221,o),
(278,227,cs),
(216,325,o),
(192,362,o),
(170,391,cs),
(158,407,o),
(150,426,o),
(140,440,cs),
(138,443,o),
(135,447,o),
(133,450,cs),
(123,464,o),
(114,483,o),
(111,492,cs),
(105,509,l),
(113,511,ls),
(146,519,o),
(209,543,o),
(258,589,cs),
(302,630,o),
(314,675,o),
(291,714,cs),
(276,742,o),
(218,777,o),
(166,791,cs),
(152,795,o),
(146,796,o),
(123,795,cs),
(117,795,o),
(111,795,o),
(106,795,cs)
);
},
{
closed = 1;
nodes = (
(152,740,o),
(189,727,o),
(212,708,cs),
(233,691,o),
(240,676,o),
(236,657,cs),
(232,643,o),
(220,629,o),
(195,610,cs),
(164,588,o),
(100,551,o),
(62,550,c),
(60,586,ls),
(54,692,o),
(70,730,o),
(122,738,cs),
(124,738,o),
(125,738,o),
(127,738,cs)
);
}
);
width = 388;
}
);
},
{
glyphname = S.alt;
lastChange = "2026-03-04 06:49:57 +0000";
layers = (
{
layerId = m01;
shapes = (
{
closed = 1;
nodes = (
(107,105,o),
(79,117,o),
(61,132,c),
(18,167,o),
(6,185,o),
(-2,275,c),
(-2,328,o),
(1,350,o),
(15,380,c),
(24,401,o),
(26,405,o),
(36,411,c),
(53,422,o),
(66,420,o),
(73,405,c),
(78,395,o),
(79,397,o),
(64,349,c),
(56,320,l),
(56,270,l),
(56,208,o),
(89,179,o),
(112,168,c),
(133,158,o),
(165,156,o),
(184,164,c),
(213,175,o),
(241,208,o),
(249,241,c),
(253,255,o),
(252,295,o),
(248,316,c),
(242,350,o),
(219,416,o),
(201,446,c),
(186,474,o),
(171,488,o),
(113,527,c),
(75,553,o),
(56,574,o),
(41,604,c),
(26,638,o),
(18,668,o),
(18,698,c),
(18,730,o),
(23,748,o),
(38,767,c),
(54,789,o),
(71,797,o),
(98,799,c),
(112,800,o),
(160,799,o),
(172,796,c),
(198,788,o),
(228,769,o),
(241,751,c),
(250,739,o),
(254,731,o),
(260,711,c),
(265,697,o),
(265,693,o),
(265,668,c),
(265,644,o),
(265,640,o),
(262,634,c),
(252,615,o),
(228,616,o),
(220,636,c),
(218,639,o),
(217,647,o),
(217,653,c),
(217,670,o),
(214,687,o),
(209,698,c),
(202,711,o),
(187,728,o),
(175,734,c),
(155,745,o),
(93,761,o),
(80,726,c),
(76,720,o),
(76,718,o),
(76,694,c),
(76,665,o),
(78,656,o),
(89,634,c),
(103,607,o),
(114,596,o),
(169,558,c),
(238,509,o),
(264,470,o),
(292,373,c),
(309,313,o),
(313,283,o),
(307,247,c),
(295,173,o),
(246,114,o),
(187,103,c),
(171,100,o),
(148,100,o),
(129,102,c)
);
}
);
width = 360;
}
);
},
{
glyphname = T.alt;
lastChange = "2026-02-23 10:14:53 +0000";
layers = (
{
layerId = m01;
shapes = (
{
closed = 1;
nodes = (
(193,109,o),
(191,112,o),
(187,135,c),
(184,155,o),
(183,166,o),
(183,269,c),
(183,363,o),
(183,388,o),
(179,429,c),
(171,530,o),
(166,621,o),
(165,674,c),
(163,728,l),
(149,728,l),
(141,728,o),
(109,729,o),
(78,730,c),
(33,731,o),
(21,732,o),
(16,735,c),
(-4,745,o),
(0,776,o),
(22,781,c),
(26,782,o),
(55,784,o),
(87,784,c),
(169,786,o),
(216,788,o),
(274,794,c),
(328,800,o),
(340,799,o),
(351,793,c),
(366,786,o),
(371,776,o),
(366,763,c),
(362,752,o),
(358,749,o),
(338,744,c),
(312,738,o),
(289,734,o),
(249,732,c),
(231,730,o),
(216,729,o),
(216,729,c),
(215,727,o),
(216,663,o),
(218,627,c),
(221,574,o),
(225,523,o),
(232,447,c),
(239,378,o),
(239,376,o),
(240,262,c),
(241,198,o),
(241,141,o),
(240,136,c),
(238,123,o),
(231,110,o),
(224,105,c),
(216,100,o),
(211,100,o),
(203,104,c)
);
}
);
width = 419;
}
);
},
{
glyphname = Z.alt;
lastChange = "2026-02-23 10:14:53 +0000";
layers = (
{
layerId = m01;
shapes = (
{
closed = 1;
nodes = (
(78,111,o),
(75,123,o),
(81,154,c),
(90,206,o),
(123,309,o),
(153,380,c),
(163,403,o),
(165,407,o),
(165,411,c),
(165,412,o),
(153,412,o),
(139,413,c),
(109,414,o),
(104,416,o),
(98,425,c),
(92,436,o),
(96,452,o),
(108,457,c),
(111,458,o),
(126,460,o),
(147,461,c),
(178,462,o),
(180,462,o),
(181,466,c),
(182,468,o),
(187,481,o),
(218,575,c),
(232,620,o),
(260,689,o),
(280,728,c),
(284,736,o),
(288,744,o),
(287,744,c),
(286,745,o),
(243,742,o),
(210,738,c),
(147,730,o),
(126,729,o),
(71,729,c),
(14,730,o),
(12,730,o),
(5,741,c),
(0,749,o),
(-1,757,o),
(4,765,c),
(11,776,o),
(14,777,o),
(65,778,c),
(135,781,o),
(152,782,o),
(213,793,c),
(233,797,o),
(245,798,o),
(281,799,c),
(325,800,o),
(325,800,o),
(333,795,c),
(349,788,o),
(353,770,o),
(343,755,c),
(341,751,o),
(334,734,o),
(328,717,c),
(323,700,o),
(313,675,o),
(308,663,c),
(288,618,o),
(242,489,o),
(239,472,c),
(237,466,l),
(253,468,l),
(261,469,o),
(272,469,o),
(275,469,c),
(285,468,o),
(300,461,o),
(304,454,c),
(310,442,o),
(302,426,o),
(289,424,c),
(285,423,o),
(272,421,o),
(259,418,c),
(246,416,o),
(232,414,o),
(228,414,c),
(221,413,o),
(221,413,o),
(217,401,c),
(195,330,o),
(215,390,o),
(202,358,c),
(177,297,o),
(137,169,o),
(141,165,c),
(142,165,o),
(147,165,o),
(154,166,c),
(177,169,o),
(249,171,o),
(302,171,c),
(355,170,l),
(366,165,l),
(381,157,o),
(387,146,o),
(382,135,c),
(378,125,o),
(372,121,o),
(353,118,c),
(338,115,o),
(325,114,o),
(249,113,c),
(159,111,o),
(132,109,o),
(118,103,c),
(109,100,o),
(100,100,o),
(92,104,c)
);
}
);
width = 434;
}
);
},
{
glyphname = idotless;
kernLeft = I;
kernRight = I;
lastChange = "2026-02-24 11:44:04 +0000";
layers = (
{
layerId = m01;
shapes = (
{
closed = 1;
nodes = (
(26,99,o),
(141,102,o),
(169,107,cs),
(180,109,o),
(192,111,o),
(196,111,cs),
(204,111,o),
(211,116,o),
(216,125,cs),
(222,138,o),
(214,151,o),
(195,159,cs),
(188,161,o),
(183,162,o),
(163,161,cs),
(130,158,l),
(130,167,ls),
(130,176,o),
(129,177,o),
(129,265,cs),
(129,349,o),
(130,358,o),
(134,392,cs),
(138,427,o),
(139,433,o),
(139,540,cs),
(138,696,l),
(137,740,l),
(137,761,o),
(133,790,o),
(111,790,cs),
(96,790,o),
(88,770,o),
(86,744,c),
(84,626,ls),
(83,487,o),
(81,432,o),
(76,392,cs),
(72,364,o),
(71,353,o),
(71,278,cs),
(73,157,l),
(74,154,o),
(73,154,o),
(68,154,cs),
(37,153,o),
(18,150,o),
(13,147,cs),
(-2,137,o),
(0,111,o),
(17,104,cs)
);
}
);
width = 268;
}
);
unicode = 305;
},
{
glyphname = jdotless;
lastChange = "2026-02-23 17:18:21 +0000";
layers = (
{
layerId = m01;
shapes = (
{
closed = 1;
nodes = (
(123,117,o),
(109,121,o),
(91,131,c),
(60,150,o),
(33,180,o),
(18,216,c),
(9,236,o),
(5,253,o),
(3,275,c),
(1,296,o),
(1,313,o),
(0,375,c),
(0,427,o),
(0,438,o),
(1,442,c),
(4,456,o),
(16,466,o),
(30,466,c),
(45,466,o),
(58,456,o),
(61,442,c),
(62,438,o),
(63,396,o),
(63,354,c),
(63,320,o),
(64,289,o),
(65,278,c),
(67,256,o),
(73,239,o),
(84,222,c),
(94,206,o),
(107,194,o),
(120,186,c),
(135,177,o),
(146,175,o),
(179,176,c),
(204,176,o),
(213,178,o),
(230,182,c),
(253,188,o),
(267,195,o),
(283,208,c),
(307,226,o),
(323,251,o),
(330,284,c),
(334,303,o),
(337,311,o),
(337,355,c),
(337,463,o),
(332,557,o),
(325,658,c),
(324,664,o),
(324,673,o),
(323,679,c),
(323,684,o),
(322,695,o),
(322,702,c),
(320,719,o),
(317,736,o),
(316,761,c),
(314,823,o),
(378,821,o),
(383,736,c),
(385,697,o),
(384,678,o),
(386,658,c),
(386,650,o),
(388,633,o),
(388,623,c),
(389,613,o),
(391,597,o),
(392,588,c),
(393,579,o),
(393,566,o),
(394,560,c),
(394,554,o),
(395,544,o),
(395,537,c),
(398,510,o),
(398,497,o),
(399,465,c),
(399,440,o),
(399,425,o),
(399,409,c),
(398,398,o),
(398,377,o),
(398,364,c),
(397,334,o),
(395,306,o),
(394,295,c),
(392,277,o),
(385,254,o),
(379,239,c),
(368,210,o),
(348,182,o),
(328,166,c),
(320,160,o),
(303,149,o),
(295,143,c),
(284,138,o),
(261,128,o),
(251,125,c),
(241,122,o),
(230,119,o),
(222,118,c),
(199,114,o),
(160,113,o),
(142,115,c)
);
}
);
width = 449;
}
);
unicode = 567;
},
{
glyphname = zero;
lastChange = "2026-03-12 11:45:23 +0000";
layers = (
{
layerId = m01;
shapes = (
{
closed = 1;
nodes = (
(157,99,o),
(197,100,o),
(212,104,c),
(227,108,o),
(253,122,o),
(265,131,c),
(279,143,o),
(290,157,o),
(301,179,c),
(315,207,o),
(320,224,o),
(332,282,c),
(336,299,o),
(344,336,o),
(351,365,c),
(375,472,o),
(377,504,o),
(367,593,c),
(364,619,o),
(361,634,o),
(358,643,c),
(349,669,o),
(346,677,o),
(343,683,c),
(341,686,o),
(336,697,o),
(331,706,c),
(312,746,o),
(275,783,o),
(241,795,c),
(229,799,o),
(226,799,o),
(202,799,c),
(166,799,o),
(138,792,o),
(109,777,c),
(81,762,o),
(66,746,o),
(54,718,c),
(47,699,o),
(17,594,o),
(10,562,c),
(1,518,o),
(0,507,o),
(0,425,c),
(0,363,o),
(1,348,o),
(3,333,c),
(7,309,o),
(17,272,o),
(26,244,c),
(57,146,o),
(83,113,o),
(139,103,c)
);
},
{
closed = 1;
nodes = (
(125,164,o),
(110,178,o),
(95,209,c),
(85,230,o),
(70,270,o),
(70,276,c),
(70,278,o),
(77,289,o),
(86,302,c),
(102,326,o),
(117,351,o),
(147,402,c),
(165,434,o),
(207,500,o),
(223,522,c),
(235,538,o),
(252,560,o),
(273,582,c),
(280,591,o),
(290,603,o),
(295,609,c),
(299,614,o),
(303,619,o),
(304,619,c),
(304,619,o),
(306,612,o),
(307,603,c),
(318,513,o),
(317,478,o),
(297,386,c),
(268,256,o),
(264,240,o),
(257,221,c),
(254,214,o),
(251,208,o),
(250,207,c),
(250,207,o),
(248,203,o),
(246,199,c),
(242,191,o),
(229,176,o),
(219,170,c),
(215,168,o),
(208,164,o),
(202,162,c),
(191,158,o),
(161,156,o),
(149,159,c)
);
},
{
closed = 1;
nodes = (
(51,344,o),
(50,373,o),
(50,434,c),
(51,540,o),
(54,558,o),
(87,647,c),
(105,694,o),
(111,706,o),
(121,715,c),
(141,732,o),
(175,743,o),
(203,743,c),
(206,743,o),
(210,742,o),
(214,742,c),
(238,738,o),
(260,721,o),
(279,692,c),
(289,677,o),
(289,675,o),
(284,673,c),
(275,670,o),
(262,656,o),
(222,608,c),
(194,573,o),
(183,557,o),
(144,490,c),
(112,436,o),
(83,387,o),
(69,365,c),
(61,354,o),
(55,344,o),
(54,344,c)
);
}
);
width = 423;
}
);
unicode = 48;
},
{
glyphname = one;
lastChange = "2026-02-23 10:14:53 +0000";
layers = (
{
layerId = m01;
shapes = (
{
closed = 1;
nodes = (
(167,103,l),
(123,108,o),
(105,109,o),
(68,110,c),
(48,111,o),
(27,112,o),
(22,113,c),
(6,116,o),
(-2,134,o),
(6,148,c),
(13,158,o),
(18,160,o),
(57,161,c),
(92,161,l),
(91,167,l),
(90,170,o),
(90,205,o),
(90,246,c),
(90,322,o),
(91,336,o),
(99,391,c),
(101,408,o),
(104,431,o),
(106,443,c),
(109,468,o),
(119,626,o),
(119,647,c),
(119,661,l),
(108,648,l),
(96,635,o),
(90,631,o),
(81,631,c),
(67,631,o),
(57,642,o),
(57,655,c),
(57,663,o),
(56,663,o),
(82,696,c),
(100,720,o),
(104,728,o),
(116,761,c),
(125,787,o),
(132,796,o),
(144,798,c),
(153,800,o),
(165,795,o),
(170,787,c),
(179,775,o),
(179,710,o),
(170,597,c),
(169,579,o),
(167,548,o),
(166,529,c),
(162,464,o),
(161,447,o),
(152,383,c),
(146,340,o),
(146,324,o),
(145,237,c),
(145,197,o),
(145,162,o),
(144,161,c),
(143,159,o),
(148,158,o),
(176,156,c),
(221,154,o),
(236,149,o),
(244,135,c),
(249,129,o),
(249,123,o),
(245,117,c),
(241,108,o),
(236,105,o),
(223,103,c),
(209,100,o),
(195,100,o),
(167,103,c)
);
}
);
width = 298;
}
);
unicode = 49;
},
{
glyphname = two;
lastChange = "2026-02-23 10:14:53 +0000";
layers = (
{
layerId = m01;
shapes = (
{
closed = 1;
nodes = (
(6,108,o),
(-2,128,o),
(6,145,c),
(12,157,o),
(37,186,o),
(69,217,c),
(103,250,o),
(108,257,o),
(138,306,c),
(204,411,o),
(233,464,o),
(257,525,c),
(290,611,o),
(294,647,o),
(273,689,c),
(262,710,o),
(249,721,o),
(225,729,c),
(211,734,o),
(208,734,o),
(179,734,c),
(149,734,o),
(148,734,o),
(137,729,c),
(117,720,o),
(89,686,o),
(83,666,c),
(83,662,o),
(81,656,o),
(81,652,c),
(78,638,o),
(62,629,o),
(47,634,c),
(30,640,o),
(27,657,o),
(36,688,c),
(42,709,o),
(50,725,o),
(65,744,c),
(92,778,o),
(120,794,o),
(161,797,c),
(193,799,o),
(244,789,o),
(271,776,c),
(296,763,o),
(320,735,o),
(334,702,c),
(347,668,o),
(349,618,o),
(339,578,c),
(333,556,o),
(293,457,o),
(278,429,c),
(271,415,o),
(257,390,o),
(247,373,c),
(225,337,o),
(171,247,o),
(170,245,c),
(170,245,o),
(179,244,o),
(190,244,c),
(201,244,o),
(215,243,o),
(220,242,c),
(238,238,o),
(260,226,o),
(279,211,c),
(304,193,o),
(318,186,o),
(335,184,c),
(356,182,o),
(372,169,o),
(372,155,c),
(372,153,o),
(372,122,o),
(323,124,c),
(290,125,o),
(293,129,o),
(275,138,c),
(269,142,o),
(258,149,o),
(251,155,c),
(234,169,o),
(216,181,o),
(207,184,c),
(190,188,o),
(175,184,o),
(135,163,c),
(98,144,o),
(76,130,o),
(60,116,c),
(44,102,o),
(35,99,o),
(23,103,c)
);
}
);
width = 422;
}
);
unicode = 50;
},
{
glyphname = three;
lastChange = "2026-02-23 10:14:53 +0000";
layers = (
{
layerId = m01;
shapes = (
{
closed = 1;
nodes = (
(94,112,o),
(33,168,o),
(19,216,c),
(15,231,o),
(15,242,o),
(21,256,c),
(30,276,o),
(45,282,o),
(59,272,c),
(66,268,o),
(66,267,o),
(77,243,c),
(96,199,o),
(121,177,o),
(161,167,c),
(186,160,o),
(208,160,o),
(220,165,c),
(232,171,o),
(244,182,o),
(251,194,c),
(274,233,o),
(278,270,o),
(265,307,c),
(249,354,o),
(236,369,o),
(199,387,c),
(186,393,o),
(172,399,o),
(167,401,c),
(156,405,o),
(147,415,o),
(145,424,c),
(141,441,o),
(147,449,o),
(181,472,c),
(235,508,o),
(257,536,o),
(269,579,c),
(272,592,o),
(273,600,o),
(273,630,c),
(274,662,o),
(273,667,o),
(269,679,c),
(260,710,o),
(247,725,o),
(223,732,c),
(206,738,o),
(165,738,o),
(142,733,c),
(121,728,o),
(96,716,o),
(83,704,c),
(62,685,o),
(54,667,o),
(52,634,c),
(50,608,o),
(46,601,o),
(34,596,c),
(26,593,o),
(24,593,o),
(18,595,c),
(13,597,o),
(8,600,o),
(5,604,c),
(0,611,o),
(0,611,o),
(0,642,c),
(0,671,o),
(0,674,o),
(5,687,c),
(25,741,o),
(76,783,o),
(139,795,c),
(160,799,o),
(213,800,o),
(232,796,c),
(272,788,o),
(304,760,o),
(322,717,c),
(336,682,o),
(340,621,o),
(331,574,c),
(320,522,o),
(293,476,o),
(254,447,c),
(239,436,l),
(249,430,l),
(276,415,o),
(294,394,o),
(312,358,c),
(336,310,o),
(341,269,o),
(331,224,c),
(320,182,o),
(294,140,o),
(265,121,c),
(249,110,o),
(241,107,o),
(225,103,c),
(208,100,o),
(162,100,o),
(142,103,c)
);
}
);
width = 386;
}
);
unicode = 51;
},
{
glyphname = four;
lastChange = "2026-03-12 11:39:12 +0000";
layers = (
{
layerId = m01;
shapes = (
{
closed = 1;
nodes = (
(187,110,o),
(185,114,o),
(181,135,c),
(177,153,o),
(177,159,o),
(177,294,c),
(177,435,l),
(150,434,l),
(135,433,o),
(108,432,o),
(89,431,c),
(45,428,o),
(24,429,o),
(15,434,c),
(1,443,o),
(-2,457,o),
(8,475,c),
(13,486,o),
(13,489,o),
(17,534,c),
(19,560,o),
(21,591,o),
(21,602,c),
(21,627,o),
(24,655,o),
(29,692,c),
(32,708,o),
(35,731,o),
(36,743,c),
(37,763,o),
(38,767,o),
(44,778,c),
(52,794,o),
(59,798,o),
(71,795,c),
(82,792,o),
(91,782,o),
(90,773,c),
(90,769,o),
(91,754,o),
(92,740,c),
(93,717,o),
(92,710,o),
(88,683,c),
(82,646,o),
(81,640,o),
(79,589,c),
(77,547,o),
(73,509,o),
(67,493,c),
(64,485,l),
(177,485,l),
(176,491,l),
(175,494,o),
(174,525,o),
(174,560,c),
(173,623,l),
(177,630,l),
(183,639,o),
(194,644,o),
(203,642,c),
(211,641,o),
(221,632,o),
(223,624,c),
(225,618,o),
(225,593,o),
(223,533,c),
(222,485,l),
(234,486,l),
(240,487,o),
(280,487,o),
(323,488,c),
(411,488,o),
(409,488,o),
(417,475,c),
(425,463,o),
(420,447,o),
(407,440,c),
(404,438,o),
(376,437,o),
(312,436,c),
(221,435,l),
(221,389,l),
(222,364,o),
(224,321,o),
(226,294,c),
(228,266,o),
(230,219,o),
(232,188,c),
(234,131,l),
(228,120,l),
(220,103,o),
(210,98,o),
(196,105,c)
);
}
);
width = 471;
}
);
unicode = 52;
},
{
glyphname = five;
lastChange = "2026-03-12 11:41:59 +0000";
layers = (
{
layerId = m01;
shapes = (
{
closed = 1;
nodes = (
(154,102,l),
(100,112,o),
(63,135,o),
(31,178,c),
(5,214,o),
(-3,268,o),
(12,314,c),
(15,325,o),
(22,333,o),
(35,341,c),
(45,346,o),
(54,347,o),
(62,341,c),
(73,335,o),
(75,326,o),
(72,307,c),
(68,272,o),
(70,240,o),
(80,221,c),
(103,177,o),
(164,152,o),
(209,170,c),
(236,180,o),
(268,211,o),
(283,240,c),
(299,271,o),
(317,331,o),
(321,367,c),
(323,382,o),
(323,391,o),
(321,404,c),
(317,436,o),
(298,486,o),
(278,515,c),
(251,555,o),
(195,580,o),
(155,568,c),
(140,564,o),
(108,546,o),
(94,534,c),
(81,522,o),
(74,520,o),
(61,525,c),
(50,530,o),
(44,540,o),
(41,561,c),
(38,580,o),
(38,689,o),
(41,716,c),
(44,741,o),
(41,768,o),
(55,780,c),
(66,790,o),
(98,789,o),
(111,793,c),
(121,795,o),
(243,799,o),
(303,799,c),
(336,799,o),
(342,799,o),
(348,796,c),
(361,789,o),
(366,772,o),
(358,760,c),
(350,747,o),
(347,747,o),
(288,745,c),
(259,744,o),
(224,742,o),
(211,742,c),
(145,743,o),
(105,744,o),
(102,741,c),
(100,740,o),
(98,730,o),
(97,719,c),
(95,694,o),
(94,617,o),
(96,615,c),
(97,614,o),
(102,615,o),
(107,617,c),
(121,625,o),
(146,631,o),
(164,633,c),
(206,637,o),
(247,626,o),
(286,598,c),
(313,579,o),
(342,535,o),
(365,480,c),
(392,415,o),
(392,372,o),
(363,273,c),
(346,217,o),
(333,192,o),
(302,160,c),
(275,132,o),
(251,116,o),
(219,106,c),
(204,102,o),
(169,99,o),
(154,102,c)
);
}
);
width = 435;
}
);
unicode = 53;
},
{
glyphname = six;
lastChange = "2026-02-23 10:14:53 +0000";
layers = (
{
layerId = m01;
shapes = (
{
closed = 1;
nodes = (
(267,799,o),
(265,799,o),
(263,798,c),
(253,796,o),
(202,744,o),
(167,701,c),
(134,659,o),
(113,623,o),
(78,549,c),
(54,496,o),
(45,474,o),
(31,431,c),
(5,350,o),
(-2,303,o),
(6,258,c),
(11,231,o),
(29,190,o),
(55,152,c),
(73,124,o),
(98,108,o),
(130,103,c),
(161,99,o),
(187,103,o),
(216,116,c),
(235,126,o),
(247,134,o),
(269,154,c),
(305,185,o),
(317,207,o),
(318,248,c),
(320,288,o),
(312,312,o),
(288,337,c),
(259,368,o),
(211,392,o),
(155,404,c),
(139,407,o),
(89,409,o),
(80,406,c),
(75,404,o),
(75,405,o),
(76,410,c),
(79,426,o),
(98,484,o),
(106,504,c),
(119,539,o),
(148,594,o),
(167,623,c),
(190,656,o),
(206,676,o),
(252,722,c),
(279,750,o),
(290,762,o),
(292,767,c),
(297,783,o),
(285,798,o),
(270,799,c)
);
},
{
closed = 1;
nodes = (
(115,349,o),
(118,349,o),
(123,349,c),
(154,347,o),
(187,337,o),
(216,320,c),
(231,311,o),
(247,295,o),
(253,282,c),
(258,272,o),
(259,269,o),
(259,256,c),
(259,241,o),
(258,239,o),
(252,226,c),
(240,203,o),
(210,177,o),
(183,166,c),
(176,163,o),
(167,162,o),
(156,161,c),
(139,160,o),
(138,161,o),
(126,167,c),
(119,170,o),
(111,176,o),
(107,180,c),
(90,199,o),
(68,239,o),
(61,262,c),
(58,274,o),
(56,315,o),
(58,330,c),
(58,347,o),
(98,348,o),
(111,349,c)
);
}
);
width = 368;
}
);
unicode = 54;
},
{
glyphname = seven;
lastChange = "2026-03-12 11:42:05 +0000";
layers = (
{
layerId = m01;
shapes = (
{
closed = 1;
nodes = (
(153,102,o),
(162,111,o),
(167,123,cs),
(171,132,o),
(172,146,o),
(178,205,cs),
(181,229,o),
(185,258,o),
(188,270,cs),
(192,290,o),
(208,341,o),
(215,356,cs),
(217,360,l),
(243,361,ls),
(260,362,o),
(282,364,o),
(292,365,cs),
(300,367,o),
(325,369,o),
(332,380,cs),
(342,396,o),
(335,411,o),
(316,420,cs),
(307,424,o),
(302,424,o),
(276,424,cs),
(261,424,o),
(240,420,o),
(241,422,cs),
(243,427,o),
(262,471,o),
(267,487,cs),
(288,555,o),
(301,584,o),
(344,647,cs),
(377,697,o),
(399,727,o),
(405,734,c),
(409,737,o),
(412,742,o),
(414,746,cs),
(428,767,o),
(414,791,o),
(391,795,cs),
(358,802,o),
(258,804,o),
(170,799,cs),
(145,798,o),
(100,796,o),
(73,796,cs),
(16,794,o),
(11,793,o),
(3,779,cs),
(-7,764,o),
(0,743,o),
(16,738,cs),
(28,735,o),
(66,734,o),
(160,736,cs),
(227,738,o),
(267,738,o),
(298,736,cs),
(313,735,o),
(325,735,o),
(334,734,c),
(334,734,o),
(336,734,o),
(336,734,c),
(336,734,o),
(335,732,o),
(335,732,c),
(316,708,o),
(276,644,o),
(248,590,cs),
(234,562,o),
(228,547,o),
(217,515,cs),
(205,477,o),
(190,437,o),
(183,425,c),
(182,422,o),
(182,422,o),
(172,422,cs),
(165,422,o),
(146,423,o),
(130,424,cs),
(96,428,o),
(90,426,o),
(81,416,cs),
(77,411,o),
(75,406,o),
(75,399,cs),
(75,389,o),
(80,379,o),
(88,374,cs),
(93,371,o),
(121,365,o),
(148,363,cs),
(151,363,o),
(157,363,o),
(159,363,c),
(159,362,o),
(159,361,o),
(158,358,cs),
(157,356,o),
(155,352,o),
(153,347,cs),
(144,321,o),
(133,286,o),
(127,262,cs),
(120,234,o),
(111,167,o),
(110,142,cs),
(109,118,o),
(111,110,o),
(124,102,cs),
(132,96,o),
(137,96,o),
(145,98,c)
);
}
);
width = 466;
}
);
unicode = 55;
},
{
glyphname = eight;
lastChange = "2026-03-12 12:00:48 +0000";
layers = (
{
layerId = m01;
shapes = (
{
closed = 1;
nodes = (
(187,103,o),
(189,103,o),
(191,103,cs),
(193,103,o),
(197,104,o),
(199,104,cs),
(222,107,o),
(241,112,o),
(259,122,cs),
(312,150,o),
(332,175,o),
(347,231,cs),
(357,271,o),
(356,307,o),
(346,340,cs),
(337,366,o),
(309,421,o),
(272,482,cs),
(253,512,o),
(252,512,o),
(257,519,c),
(257,519,o),
(259,521,o),
(262,525,cs),
(264,528,o),
(267,531,o),
(269,533,cs),
(271,535,o),
(273,538,o),
(276,541,cs),
(306,578,o),
(319,618,o),
(321,682,cs),
(322,718,o),
(320,734,o),
(312,751,cs),
(298,781,o),
(272,798,o),
(237,798,cs),
(217,798,o),
(193,792,o),
(169,779,c),
(150,771,o),
(130,752,o),
(124,739,cs),
(108,706,o),
(114,668,o),
(148,588,cs),
(156,570,o),
(167,547,o),
(172,537,cs),
(183,518,l),
(164,499,ls),
(154,489,o),
(133,472,o),
(115,459,cs),
(82,432,o),
(60,412,o),
(45,391,cs),
(31,371,o),
(18,345,o),
(12,326,cs),
(6,305,o),
(2,274,o),
(3,253,cs),
(5,199,o),
(58,157,o),
(88,138,cs),
(120,117,o),
(144,106,o),
(170,104,c),
(170,104,o),
(174,103,o),
(174,103,c),
(179,102,o),
(182,102,o),
(183,102,cs)
);
},
{
closed = 1;
nodes = (
(133,169,o),
(97,192,o),
(75,212,c),
(53,236,o),
(60,283,o),
(69,313,cs),
(73,323,o),
(80,339,o),
(85,347,cs),
(102,375,o),
(114,388,o),
(162,424,cs),
(172,431,o),
(184,442,o),
(193,450,cs),
(194,451,o),
(197,454,o),
(198,455,cs),
(207,463,o),
(211,466,o),
(214,467,c),
(214,467,o),
(217,466,o),
(217,466,c),
(221,460,o),
(261,390,o),
(270,372,cs),
(292,332,o),
(299,305,o),
(297,275,cs),
(294,224,o),
(262,180,o),
(216,165,cs),
(199,159,o),
(171,158,o),
(155,163,cs)
);
},
{
closed = 1;
nodes = (
(216,569,o),
(199,608,o),
(190,632,cs),
(173,675,o),
(171,692,o),
(180,710,cs),
(189,728,o),
(207,737,o),
(230,737,cs),
(241,737,o),
(243,738,o),
(251,731,cs),
(260,722,o),
(264,709,o),
(266,687,cs),
(267,656,o),
(261,622,o),
(248,594,cs),
(237,572,o),
(225,560,o),
(220,564,c)
);
}
);
width = 406;
}
);
unicode = 56;
},
{
glyphname = nine;
lastChange = "2026-03-12 11:42:42 +0000";
layers = (
{
layerId = m01;
shapes = (
{
closed = 1;
nodes = (
(153,799,o),
(132,794,o),
(111,784,c),
(88,773,o),
(75,764,o),
(50,739,c),
(26,714,o),
(14,697,o),
(6,674,c),
(-1,655,o),
(0,631,o),
(7,602,c),
(25,533,o),
(48,496,o),
(87,472,c),
(102,463,o),
(113,460,o),
(133,460,c),
(165,461,o),
(193,472,o),
(215,494,c),
(228,508,o),
(241,523,o),
(249,536,c),
(251,541,o),
(254,545,o),
(255,545,c),
(258,545,o),
(256,491,o),
(252,463,c),
(249,438,o),
(231,364,o),
(222,337,c),
(203,283,o),
(181,254,o),
(105,178,c),
(58,132,l),
(59,123,l),
(59,113,o),
(63,106,o),
(71,102,c),
(77,99,o),
(89,101,o),
(100,105,c),
(113,111,o),
(151,146,o),
(182,179,c),
(234,237,o),
(256,272,o),
(270,320,c),
(280,350,o),
(303,442,o),
(306,462,c),
(317,525,o),
(314,616,o),
(299,674,c),
(288,717,o),
(265,761,o),
(243,777,c),
(223,792,o),
(199,799,o),
(173,799,c)
);
},
{
closed = 1;
nodes = (
(175,740,o),
(188,738,o),
(197,733,c),
(222,721,o),
(244,679,o),
(241,647,c),
(240,630,o),
(237,620,o),
(228,605,c),
(224,598,o),
(218,588,o),
(216,582,c),
(207,558,o),
(187,536,o),
(166,526,c),
(147,517,o),
(127,516,o),
(111,524,c),
(103,528,o),
(91,541,o),
(84,553,c),
(77,563,o),
(66,591,o),
(62,609,c),
(58,627,o),
(59,649,o),
(65,662,c),
(80,693,o),
(125,733,o),
(154,739,c),
(157,740,o),
(161,740,o),
(164,740,c)
);
}
);
width = 363;
}
);
unicode = 57;
},
{
glyphname = zero.alt;
lastChange = "2026-02-23 10:14:53 +0000";
layers = (
{
layerId = m01;
shapes = (
{
closed = 1;
nodes = (
(144,104,o),
(148,104,o),
(172,107,cs),
(200,111,o),
(228,120,o),
(253,132,cs),
(295,153,o),
(333,199,o),
(346,245,cs),
(357,283,o),
(373,366,o),
(376,407,cs),
(380,454,o),
(368,522,o),
(340,608,cs),
(336,622,o),
(332,639,o),
(331,645,cs),
(328,671,o),
(314,697,o),
(288,723,cs),
(253,759,o),
(223,781,o),
(190,791,cs),
(177,795,o),
(172,796,o),
(145,796,cs),
(118,796,o),
(113,795,o),
(102,791,cs),
(82,785,o),
(67,776,o),
(51,758,cs),
(24,730,o),
(14,708,o),
(8,663,cs),
(4,641,o),
(4,626,o),
(4,543,cs),
(4,447,o),
(5,431,o),
(13,341,cs),
(20,259,o),
(32,199,o),
(48,170,c),
(54,156,o),
(66,141,o),
(77,131,cs),
(91,119,o),
(106,112,o),
(129,107,cs)
);
},
{
closed = 1;
nodes = (
(162,164,o),
(137,164,o),
(126,170,cs),
(118,174,o),
(103,191,o),
(98,200,cs),
(89,218,o),
(81,252,o),
(76,290,cs),
(74,309,l),
(79,315,l),
(82,317,o),
(85,319,o),
(90,323,cs),
(91,324,o),
(92,325,o),
(94,326,c),
(121,347,o),
(145,375,o),
(168,412,cs),
(189,445,o),
(201,461,o),
(232,493,cs),
(266,528,o),
(281,543,o),
(285,549,cs),
(287,552,o),
(289,554,o),
(290,555,c),
(295,554,l),
(299,550,o),
(317,472,o),
(318,456,cs),
(321,431,o),
(318,397,o),
(310,350,cs),
(295,268,o),
(286,242,o),
(266,218,cs),
(246,195,o),
(214,175,o),
(185,169,cs)
);
},
{
closed = 1;
nodes = (
(66,385,ls),
(60,425,o),
(59,641,o),
(65,667,cs),
(72,697,o),
(88,721,o),
(108,731,cs),
(136,744,o),
(167,743,o),
(199,726,cs),
(235,709,o),
(251,689,o),
(267,643,cs),
(276,617,l),
(265,609,ls),
(262,606,o),
(248,592,o),
(236,578,cs),
(230,572,o),
(221,563,o),
(212,553,cs),
(204,545,o),
(196,536,o),
(189,528,cs),
(162,498,o),
(146,479,o),
(128,447,cs),
(126,444,o),
(123,439,o),
(121,436,cs),
(114,425,o),
(106,413,o),
(101,407,cs),
(93,396,o),
(84,385,o),
(81,382,cs),
(68,371,l)
);
}
);
width = 423;
}
);
},
{
glyphname = period;
lastChange = "2026-03-12 11:31:54 +0000";
layers = (
{
layerId = m01;
shapes = (
{
closed = 1;
nodes = (
(97,182,o),
(88,181,o),
(77,179,c),
(57,174,o),
(44,140,o),
(53,126,c),
(58,117,o),
(68,107,o),
(76,103,c),
(82,100,o),
(86,100,o),
(99,100,c),
(127,102,o),
(140,113,o),
(140,136,c),
(140,153,o),
(136,163,o),
(125,172,c),
(118,180,o),
(112,182,o),
(102,182,c)
);
}
);
width = 240;
}
);
unicode = 46;
},
{
glyphname = comma;
lastChange = "2026-03-12 11:44:40 +0000";
layers = (
{
layerId = m01;
shapes = (
{
closed = 1;
nodes = (
(103,215,o),
(102,215,o),
(100,215,c),
(87,214,o),
(74,209,o),
(65,201,c),
(52,187,o),
(46,166,o),
(52,154,c),
(58,141,o),
(64,122,o),
(95,128,c),
(95,122,l),
(94,113,o),
(94,97,o),
(90,87,c),
(58,14,o),
(100,29,o),
(114,43,c),
(130,67,o),
(138,85,o),
(144,111,c),
(149,140,o),
(149,172,o),
(142,186,c),
(137,196,o),
(127,207,o),
(117,212,c),
(112,214,o),
(109,215,o),
(104,215,c)
);
}
);
width = 248;
}
);
unicode = 44;
},
{
glyphname = colon;
lastChange = "2026-03-12 11:34:54 +0000";
layers = (
{
layerId = m01;
shapes = (
{
closed = 1;
nodes = (
(101,190,o),
(93,189,o),
(83,187,c),
(71,185,o),
(67,181,o),
(65,173,c),
(65,170,o),
(62,165,o),
(60,161,c),
(55,154,o),
(54,144,o),
(59,135,c),
(64,126,o),
(73,117,o),
(81,113,c),
(87,110,o),
(92,110,o),
(103,110,c),
(131,112,o),
(144,123,o),
(144,145,c),
(144,161,o),
(140,172,o),
(130,181,c),
(122,188,o),
(117,190,o),
(107,190,c)
);
},
{
closed = 1;
nodes = (
(76,596,o),
(73,594,o),
(71,591,c),
(68,589,o),
(65,586,o),
(65,586,c),
(65,583,o),
(63,583,o),
(60,581,c),
(53,578,o),
(50,565,o),
(50,558,c),
(53,542,o),
(68,527,o),
(81,522,c),
(99,519,o),
(107,522,o),
(120,534,c),
(132,547,o),
(135,568,o),
(122,583,c),
(114,591,o),
(107,594,o),
(89,596,c),
(86,596,o),
(83,596,o),
(81,596,c)
);
}
);
width = 244;
}
);
unicode = 58;
},
{
glyphname = semicolon;
lastChange = "2026-03-12 11:34:41 +0000";
layers = (
{
layerId = m01;
shapes = (
{
closed = 1;
nodes = (
(101,218,o),
(100,218,o),
(99,218,c),
(86,217,o),
(74,212,o),
(65,204,c),
(52,191,o),
(47,171,o),
(53,159,c),
(58,146,o),
(69,128,o),
(99,134,c),
(99,128,l),
(60,34,o),
(92,42,o),
(119,64,c),
(134,87,o),
(135,93,o),
(141,117,c),
(146,146,o),
(146,176,o),
(139,190,c),
(135,200,o),
(125,210,o),
(115,216,c),
(110,217,o),
(107,218,o),
(103,218,c)
);
},
{
closed = 1;
nodes = (
(107,594,o),
(98,593,o),
(88,592,c),
(77,589,o),
(72,585,o),
(71,577,c),
(71,574,o),
(68,570,o),
(66,567,c),
(61,559,o),
(60,549,o),
(65,541,c),
(70,532,o),
(79,523,o),
(87,519,c),
(93,516,o),
(96,516,o),
(109,516,c),
(136,518,o),
(148,528,o),
(148,550,c),
(148,567,o),
(144,576,o),
(134,585,c),
(127,593,o),
(121,594,o),
(112,594,c)
);
}
);
width = 248;
}
);
unicode = 59;
},
{
glyphname = ellipsis;
lastChange = "2026-03-12 11:35:08 +0000";
layers = (
{
layerId = m01;
shapes = (
{
closed = 1;
nodes = (
(362,105,o),
(350,116,o),
(347,123,c),
(343,134,o),
(341,153,o),
(343,162,c),
(350,185,o),
(375,196,o),
(397,185,c),
(404,181,o),
(408,178,o),
(411,171,c),
(417,160,o),
(419,135,o),
(416,125,c),
(413,115,o),
(401,105,o),
(391,102,c),
(382,100,o),
(379,100,o),
(370,102,c)
);
},
{
closed = 1;
nodes = (
(207,110,o),
(195,122,o),
(195,125,c),
(195,126,o),
(194,133,o),
(192,141,c),
(189,154,o),
(189,157,o),
(192,164,c),
(201,186,o),
(227,194,o),
(249,180,c),
(269,168,o),
(275,142,o),
(262,125,c),
(250,109,o),
(227,101,o),
(213,107,c)
);
},
{
closed = 1;
nodes = (
(64,115,o),
(54,126,o),
(51,137,c),
(46,155,o),
(57,180,o),
(73,186,c),
(91,194,o),
(113,187,o),
(120,171,c),
(136,139,o),
(108,101,o),
(75,111,c)
);
}
);
width = 517;
}
);
unicode = 8230;
},
{
glyphname = exclam;
lastChange = "2026-03-03 15:34:53 +0000";
layers = (
{
layerId = m01;
shapes = (
{
closed = 1;
nodes = (
(70,799,o),
(62,793,o),
(56,782,c),
(51,772,l),
(53,547,l),
(54,423,o),
(56,317,o),
(56,312,c),
(57,302,o),
(63,293,o),
(70,290,c),
(72,289,o),
(77,289,o),
(81,289,c),
(93,290,o),
(100,299,o),
(102,312,c),
(102,317,o),
(103,417,o),
(104,535,c),
(106,740,o),
(106,749,o),
(103,767,c),
(99,788,o),
(97,792,o),
(90,796,c),
(86,799,o),
(82,800,o),
(78,800,c)
);
},
{
closed = 1;
nodes = (
(95,179,o),
(87,178,o),
(76,176,c),
(65,174,o),
(61,170,o),
(59,162,c),
(59,159,o),
(56,154,o),
(54,151,c),
(49,144,o),
(48,133,o),
(53,125,c),
(58,116,o),
(67,107,o),
(75,103,c),
(81,100,o),
(85,100,o),
(97,100,c),
(124,102,o),
(137,113,o),
(137,135,c),
(137,151,o),
(133,161,o),
(123,170,c),
(116,177,o),
(110,179,o),
(100,179,c)
);
}
);
width = 187;
}
);
unicode = 33;
},
{
glyphname = question;
lastChange = "2026-03-12 11:35:49 +0000";
layers = (
{
layerId = m01;
shapes = (
{
closed = 1;
nodes = (
(220,799,o),
(198,794,o),
(162,776,c),
(134,763,o),
(118,752,o),
(102,736,c),
(72,705,o),
(48,656,o),
(50,629,c),
(51,618,o),
(55,612,o),
(64,608,c),
(79,602,o),
(92,611,o),
(95,629,c),
(99,650,o),
(123,689,o),
(144,706,c),
(157,717,o),
(190,734,o),
(209,739,c),
(217,742,o),
(230,743,o),
(242,744,c),
(268,745,o),
(278,742,o),
(290,731,c),
(301,720,o),
(304,709,o),
(304,684,c),
(304,660,o),
(301,649,o),
(289,626,c),
(277,600,o),
(268,588,o),
(249,570,c),
(232,553,o),
(223,547,o),
(186,523,c),
(152,501,o),
(132,477,o),
(129,453,c),
(129,448,o),
(130,425,o),
(132,403,c),
(134,380,o),
(137,341,o),
(138,315,c),
(140,290,o),
(142,266,o),
(143,261,c),
(145,251,o),
(150,245,o),
(159,241,c),
(159,241,l),
(168,237,o),
(171,237,o),
(180,241,c),
(192,247,o),
(195,254,o),
(195,273,c),
(194,290,o),
(187,398,o),
(184,423,c),
(180,451,o),
(184,456,o),
(226,483,c),
(278,517,o),
(302,542,o),
(330,589,c),
(345,615,o),
(351,631,o),
(356,659,c),
(361,690,o),
(358,721,o),
(348,742,c),
(330,781,o),
(298,799,o),
(250,799,c)
);
},
{
closed = 1;
nodes = (
(155,167,o),
(154,166,o),
(151,163,c),
(148,160,o),
(146,158,o),
(146,157,c),
(146,156,o),
(144,155,o),
(142,154,c),
(136,150,o),
(132,141,o),
(133,132,c),
(134,119,o),
(148,105,o),
(161,102,c),
(175,99,o),
(184,102,o),
(193,112,c),
(206,125,o),
(207,142,o),
(196,156,c),
(190,163,o),
(183,165,o),
(168,167,c),
(164,167,o),
(161,167,o),
(159,167,c)
);
}
);
width = 458;
}
);
unicode = 63;
},
{
glyphname = bullet;
lastChange = "2026-03-12 11:36:24 +0000";
layers = (
{
layerId = m01;
shapes = (
{
closed = 1;
nodes = (
(82,346,o),
(106,346,o),
(117,349,cs),
(146,356,o),
(165,373,o),
(180,402,cs),
(188,420,o),
(190,428,o),
(189,452,cs),
(188,476,o),
(185,489,o),
(177,503,cs),
(165,526,o),
(152,535,o),
(114,538,cs),
(101,539,o),
(97,539,o),
(83,537,cs),
(54,532,o),
(42,526,o),
(26,509,cs),
(14,496,o),
(9,486,o),
(4,468,cs),
(0,452,o),
(-2,426,o),
(1,414,cs),
(8,384,o),
(36,357,o),
(71,349,cs)
);
},
{
closed = 1;
nodes = (
(85,403,o),
(63,414,o),
(56,438,cs),
(49,462,o),
(57,477,o),
(79,487,cs),
(94,493,o),
(107,487,o),
(117,480,cs),
(132,472,o),
(134,441,o),
(126,428,cs),
(122,422,o),
(112,414,o),
(107,411,c)
);
}
);
width = 339;
}
);
unicode = 8226;
},
{
glyphname = asterisk;
lastChange = "2026-03-12 11:37:19 +0000";
layers = (
{
layerId = m01;
shapes = (
{
closed = 1;
nodes = (
(144,110,o),
(144,111,o),
(140,131,c),
(136,152,o),
(136,186,o),
(141,239,c),
(144,265,o),
(146,301,o),
(146,334,c),
(147,388,l),
(135,375,l),
(129,368,o),
(117,354,o),
(109,345,c),
(98,333,o),
(92,328,o),
(87,326,c),
(69,320,o),
(50,338,o),
(55,357,c),
(57,365,o),
(87,404,o),
(109,426,c),
(116,434,o),
(121,441,o),
(120,441,c),
(119,442,o),
(96,443,o),
(69,444,c),
(22,444,o),
(18,445,o),
(13,448,c),
(-4,461,o),
(-4,479,o),
(13,492,c),
(18,496,o),
(21,496,o),
(69,496,c),
(96,497,o),
(119,498,o),
(119,498,c),
(119,499,o),
(112,505,o),
(104,512,c),
(63,545,o),
(54,553,o),
(52,560,c),
(46,578,o),
(58,594,o),
(78,594,c),
(85,594,o),
(91,590,o),
(120,567,c),
(132,557,o),
(144,547,o),
(147,545,c),
(152,541,l),
(153,569,l),
(154,584,o),
(155,637,o),
(154,687,c),
(154,783,o),
(154,783,o),
(164,792,c),
(170,798,o),
(184,800,o),
(192,796,c),
(195,794,o),
(200,790,o),
(202,786,c),
(206,779,o),
(206,778,o),
(206,734,c),
(206,709,o),
(205,675,o),
(204,659,c),
(199,578,o),
(198,559,o),
(199,541,c),
(199,521,l),
(236,556,l),
(270,589,o),
(273,592,o),
(282,594,c),
(294,597,o),
(303,596,o),
(308,590,c),
(318,579,o),
(319,567,o),
(310,558,c),
(306,555,o),
(301,549,o),
(298,544,c),
(289,531,o),
(272,510,o),
(261,501,c),
(251,492,l),
(292,488,l),
(335,484,o),
(341,482,o),
(353,472,c),
(360,467,o),
(364,456,o),
(362,448,c),
(361,445,o),
(357,440,o),
(354,436,c),
(348,430,o),
(347,430,o),
(328,429,c),
(316,428,o),
(303,428,o),
(296,429,c),
(273,432,o),
(273,433,o),
(296,410,c),
(320,388,o),
(324,381,o),
(326,366,c),
(328,354,o),
(324,346,o),
(315,342,c),
(305,337,o),
(297,338,o),
(289,345,c),
(285,348,o),
(276,356,o),
(268,362,c),
(260,368,o),
(242,385,o),
(227,399,c),
(212,414,o),
(200,425,o),
(199,425,c),
(199,425,o),
(200,399,o),
(201,369,c),
(202,322,o),
(202,307,o),
(199,271,c),
(197,247,o),
(196,206,o),
(195,179,c),
(194,132,o),
(194,130,o),
(190,120,c),
(183,106,o),
(178,101,o),
(167,100,c),
(160,100,o),
(157,101,o),
(152,104,c)
);
}
);
width = 413;
}
);
unicode = 42;
},
{
glyphname = numbersign;
lastChange = "2026-02-23 10:14:53 +0000";
layers = (
{
layerId = m01;
shapes = (
{
closed = 1;
nodes = (
(324,797,o),
(316,793,o),
(311,784,c),
(310,781,o),
(307,771,o),
(307,761,c),
(301,702,o),
(290,656,o),
(268,587,c),
(259,559,l),
(216,559,l),
(191,559,o),
(173,560,o),
(172,561,c),
(169,565,o),
(179,633,o),
(189,684,c),
(201,742,o),
(204,767,o),
(201,778,c),
(196,792,o),
(179,800,o),
(165,793,c),
(155,788,o),
(151,780,o),
(149,760,c),
(148,750,o),
(144,722,o),
(139,699,c),
(128,643,o),
(126,630,o),
(121,593,c),
(119,576,o),
(117,561,o),
(117,560,c),
(116,560,o),
(98,559,o),
(77,559,c),
(42,559,o),
(38,559,o),
(30,555,c),
(20,550,o),
(14,539,o),
(16,529,c),
(18,520,o),
(26,510,o),
(35,508,c),
(39,507,o),
(58,506,o),
(77,506,c),
(112,506,l),
(111,500,l),
(111,497,o),
(110,487,o),
(109,478,c),
(108,470,o),
(105,454,o),
(103,444,c),
(99,425,l),
(64,425,l),
(23,425,o),
(16,424,o),
(8,415,c),
(1,407,o),
(-1,398,o),
(4,388,c),
(9,375,o),
(17,372,o),
(52,371,c),
(68,371,o),
(82,370,o),
(83,369,c),
(83,369,o),
(82,362,o),
(80,355,c),
(60,272,o),
(49,207,o),
(46,162,c),
(45,129,o),
(46,124,o),
(55,117,c),
(63,112,o),
(69,111,o),
(76,113,c),
(82,115,o),
(95,127,o),
(99,134,c),
(101,139,o),
(106,165,o),
(111,211,c),
(117,255,o),
(126,307,o),
(134,343,c),
(140,367,l),
(156,366,l),
(179,364,o),
(210,361,o),
(211,360,c),
(213,358,o),
(203,295,o),
(189,253,c),
(181,227,o),
(173,199,o),
(171,191,c),
(168,179,o),
(165,143,o),
(165,122,c),
(165,116,o),
(171,107,o),
(179,103,c),
(186,100,o),
(191,100,o),
(198,104,c),
(208,109,o),
(219,125,o),
(219,134,c),
(219,145,o),
(227,182,o),
(242,232,c),
(260,293,o),
(257,313,o),
(262,339,c),
(265,358,l),
(277,356,l),
(284,356,o),
(296,354,o),
(304,353,c),
(325,350,o),
(377,354,o),
(385,359,c),
(390,362,o),
(397,374,o),
(397,380,c),
(397,392,o),
(379,406,o),
(361,408,c),
(355,409,o),
(333,411,o),
(311,412,c),
(290,413,o),
(272,415,o),
(272,415,c),
(270,417,o),
(283,496,o),
(286,499,c),
(287,499,o),
(306,499,o),
(328,498,c),
(375,495,o),
(378,495,o),
(385,510,c),
(390,520,o),
(388,528,o),
(379,537,c),
(368,546,o),
(358,550,o),
(332,553,c),
(318,554,o),
(307,556,o),
(305,556,c),
(304,557,o),
(305,563,o),
(310,577,c),
(345,674,o),
(358,727,o),
(359,763,c),
(359,778,o),
(358,781,o),
(355,786,c),
(349,794,o),
(340,798,o),
(332,797,c)
);
},
{
closed = 1;
nodes = (
(168,506,l),
(182,506,l),
(190,506,o),
(206,505,o),
(218,505,c),
(238,503,o),
(241,503,o),
(240,500,c),
(238,495,o),
(226,448,o),
(223,432,c),
(220,416,l),
(212,416,l),
(188,417,o),
(157,421,o),
(157,423,c),
(156,424,o),
(157,431,o),
(159,438,c),
(162,453,o),
(165,472,o),
(166,492,c)
);
}
);
width = 447;
}
);
unicode = 35;
},
{
glyphname = slash;
lastChange = "2026-02-23 10:14:53 +0000";
layers = (
{
layerId = m01;
shapes = (
{
closed = 1;
nodes = (
(9,107,o),
(6,110,o),
(3,117,c),
(0,124,o),
(0,126,o),
(2,136,c),
(4,150,o),
(13,167,o),
(27,191,c),
(33,201,o),
(47,226,o),
(58,247,c),
(69,269,o),
(88,303,o),
(101,324,c),
(113,345,o),
(130,376,o),
(138,392,c),
(162,440,o),
(189,482,o),
(225,525,c),
(247,552,o),
(250,572,o),
(268,600,c),
(287,629,o),
(298,653,o),
(311,691,c),
(324,731,o),
(349,765,o),
(356,776,c),
(362,787,o),
(381,800,o),
(391,800,c),
(401,800,o),
(407,796,o),
(412,787,c),
(417,778,o),
(417,773,o),
(413,765,c),
(412,762,o),
(407,748,o),
(402,734,c),
(392,699,o),
(356,636,o),
(344,612,c),
(329,582,o),
(310,538,o),
(259,473,c),
(231,438,o),
(221,421,o),
(191,364,c),
(179,341,o),
(162,310,o),
(153,295,c),
(145,281,o),
(129,255,o),
(120,237,c),
(110,219,o),
(92,191,o),
(80,174,c),
(64,150,o),
(58,139,o),
(54,128,c),
(48,111,o),
(43,105,o),
(33,102,c),
(25,100,o),
(24,100,o),
(15,104,c)
);
}
);
width = 466;
}
);
unicode = 47;
},
{
glyphname = backslash;
lastChange = "2026-02-23 10:14:53 +0000";
layers = (
{
layerId = m01;
shapes = (
{
closed = 1;
nodes = (
(335,131,o),
(327,160,o),
(295,207,c),
(266,250,o),
(257,267,o),
(239,320,c),
(212,399,o),
(194,412,o),
(154,496,c),
(107,599,o),
(95,621,o),
(54,683,c),
(34,714,o),
(18,739,o),
(7,753,c),
(1,762,o),
(0,765,o),
(0,772,c),
(0,782,o),
(4,788,o),
(12,793,c),
(23,800,o),
(39,796,o),
(46,785,c),
(47,782,o),
(54,774,o),
(60,767,c),
(71,754,o),
(109,702,o),
(130,669,c),
(148,641,o),
(166,607,o),
(180,574,c),
(194,542,o),
(214,498,o),
(234,455,c),
(248,426,o),
(271,399,o),
(292,338,c),
(305,301,o),
(312,286,o),
(325,266,c),
(338,246,o),
(364,189,o),
(382,166,c),
(396,147,o),
(399,142,o),
(402,129,c),
(406,113,o),
(396,100,o),
(379,100,c),
(372,100,o),
(370,101,o),
(357,112,c)
);
}
);
width = 453;
}
);
unicode = 92;
},
{
glyphname = hyphen;
lastChange = "2026-02-23 10:14:53 +0000";
layers = (
{
layerId = m01;
shapes = (
{
closed = 1;
nodes = (
(28,403,o),
(17,404,o),
(11,410,c),
(-2,421,o),
(1,442,o),
(15,449,c),
(23,453,o),
(106,456,o),
(251,456,c),
(369,457,l),
(378,452,l),
(393,444,o),
(398,435,o),
(395,422,c),
(392,414,o),
(384,407,o),
(376,406,c),
(339,400,o),
(330,400,o),
(248,400,c),
(202,400,o),
(134,401,o),
(96,402,c)
);
}
);
width = 446;
}
);
unicode = 45;
},
{
glyphname = emdash;
lastChange = "2026-02-23 10:14:53 +0000";
layers = (
{
layerId = m01;
shapes = (
{
closed = 1;
nodes = (
(434,402,o),
(370,403,o),
(354,405,c),
(338,406,o),
(260,407,o),
(174,408,c),
(6,410,o),
(13,409,o),
(6,421,c),
(-2,433,o),
(2,447,o),
(14,455,c),
(20,459,l),
(170,460,l),
(272,461,o),
(335,461,o),
(368,460,c),
(397,458,o),
(471,458,o),
(556,458,c),
(687,459,o),
(699,460,o),
(730,463,c),
(748,465,o),
(765,466,o),
(768,466,c),
(777,464,o),
(790,456,o),
(794,450,c),
(798,442,o),
(798,432,o),
(793,424,c),
(790,420,o),
(787,417,o),
(785,417,c),
(733,401,o),
(695,399,o),
(495,401,c)
);
}
);
width = 847;
}
);
unicode = 8212;
},
{
glyphname = underscore;
lastChange = "2026-02-23 10:14:53 +0000";
layers = (
{
layerId = m01;
shapes = (
{
closed = 1;
nodes = (
(306,122,o),
(13,129,o),
(6,141,c),
(-2,153,o),
(2,167,o),
(14,175,c),
(20,179,l),
(170,180,l),
(190,180,o),
(222,180,o),
(240,180,c),
(269,178,o),
(343,178,o),
(428,178,c),
(559,179,o),
(571,180,o),
(602,183,c),
(620,185,o),
(637,186,o),
(640,186,c),
(649,184,o),
(662,176,o),
(666,170,c),
(670,162,o),
(670,152,o),
(665,144,c),
(662,140,o),
(659,137,o),
(657,137,c),
(605,121,o),
(567,119,o),
(367,121,c)
);
}
);
width = 719;
}
);
unicode = 95;
},
{
glyphname = parenleft;
lastChange = "2026-03-12 13:14:49 +0000";
layers = (
{
layerId = m01;
shapes = (
{
closed = 1;
nodes = (
(309,21,l),
(293,23,o),
(257,35,o),
(238,44,c),
(193,67,o),
(141,114,o),
(106,166,c),
(68,221,o),
(13,340,o),
(4,393,c),
(-1,417,o),
(0,470,o),
(4,498,c),
(8,565,o),
(27,643,o),
(34,661,c),
(49,700,o),
(108,778,o),
(146,815,c),
(172,839,o),
(200,861,o),
(253,895,c),
(307,931,o),
(321,939,o),
(330,939,c),
(355,939,o),
(366,910,o),
(347,893,c),
(345,891,o),
(328,880,o),
(309,868,c),
(216,809,o),
(178,777,o),
(114,690,c),
(101,671,o),
(92,653,o),
(87,635,c),
(81,618,o),
(68,561,o),
(64,492,c),
(60,469,o),
(60,429,o),
(64,407,c),
(74,350,o),
(139,219,o),
(181,170,c),
(199,149,o),
(234,118,o),
(251,108,c),
(269,98,o),
(283,92,o),
(313,83,c),
(344,74,o),
(349,72,o),
(358,63,c),
(370,49,o),
(370,34,o),
(355,24,c),
(350,20,o),
(347,19,o),
(336,19,c),
(329,19,o),
(317,20,o),
(309,21,c)
);
}
);
width = 417;
}
);
unicode = 40;
},
{
glyphname = parenright;
lastChange = "2026-03-04 06:52:54 +0000";
layers = (
{
layerId = m01;
shapes = (
{
closed = 1;
nodes = (
(53,31,o),
(53,56,o),
(70,65,c),
(74,67,o),
(78,69,o),
(79,70,c),
(80,72,o),
(96,85,o),
(115,101,c),
(154,133,o),
(194,177,o),
(213,204,c),
(252,256,o),
(304,342,o),
(320,389,c),
(328,413,o),
(331,430,o),
(331,461,c),
(331,508,o),
(324,533,o),
(296,596,c),
(222,731,o),
(207,754,o),
(168,793,c),
(134,827,o),
(94,850,o),
(30,871,c),
(12,877,o),
(4,883,o),
(1,893,c),
(-3,907,o),
(6,923,o),
(20,927,c),
(28,929,o),
(47,924,o),
(80,914,c),
(135,896,o),
(174,873,o),
(210,840,c),
(232,819,o),
(260,786,o),
(293,727,c),
(309,702,o),
(368,593,o),
(381,556,c),
(397,509,o),
(400,452,o),
(390,400,c),
(381,351,o),
(317,235,o),
(264,164,c),
(245,138,o),
(201,87,o),
(176,67,c),
(157,51,o),
(113,23,o),
(103,19,c),
(93,16,o),
(76,16,o),
(69,21,c)
);
}
);
width = 446;
}
);
unicode = 41;
},
{
glyphname = braceleft;
lastChange = "2026-03-04 06:54:00 +0000";
layers = (
{
layerId = m01;
shapes = (
{
closed = 1;
nodes = (
(171,24,o),
(162,28,o),
(149,38,c),
(127,55,o),
(113,78,o),
(105,111,c),
(101,128,o),
(101,132,o),
(101,301,c),
(101,379,o),
(101,384,o),
(93,391,c),
(91,393,o),
(79,398,o),
(68,402,c),
(32,415,o),
(12,427,o),
(4,442,c),
(0,451,o),
(-1,468,o),
(3,480,c),
(6,491,o),
(19,502,o),
(37,509,c),
(45,512,o),
(57,517,o),
(64,519,c),
(78,525,o),
(90,533,o),
(93,541,c),
(96,545,o),
(97,555,o),
(98,590,c),
(100,797,o),
(105,830,o),
(121,864,c),
(130,883,o),
(144,899,o),
(160,909,c),
(171,916,o),
(207,929,o),
(222,931,c),
(240,933,o),
(252,913,o),
(241,898,c),
(239,896,o),
(230,891,o),
(214,885,c),
(178,872,o),
(169,864,o),
(160,832,c),
(153,809,o),
(152,787,o),
(151,600,c),
(150,520,o),
(148,510,o),
(127,491,c),
(115,480,o),
(100,471,o),
(83,465,c),
(76,463,o),
(71,461,o),
(71,460,c),
(70,459,o),
(75,457,o),
(82,457,c),
(104,454,o),
(131,442,o),
(143,428,c),
(157,412,o),
(160,394,o),
(159,330,c),
(158,248,o),
(159,137,o),
(166,111,c),
(172,91,o),
(187,80,o),
(213,74,c),
(230,70,o),
(236,66,o),
(241,57,c),
(248,42,o),
(243,25,o),
(228,18,c),
(220,13,o),
(210,14,o),
(191,19,c)
);
}
);
width = 345;
}
);
unicode = 123;
},
{
glyphname = braceright;
lastChange = "2026-03-04 06:54:12 +0000";
layers = (
{
layerId = m01;
shapes = (
{
closed = 1;
nodes = (
(56,25,o),
(48,36,o),
(50,50,c),
(51,66,o),
(63,77,o),
(79,77,c),
(99,77,o),
(117,83,o),
(124,93,c),
(132,103,o),
(133,114,o),
(129,244,c),
(124,283,o),
(123,342,o),
(127,358,c),
(133,382,o),
(142,393,o),
(174,420,c),
(186,430,o),
(199,442,o),
(204,446,c),
(212,454,l),
(192,464,l),
(172,474,o),
(157,486,o),
(151,498,c),
(143,513,o),
(143,519,o),
(141,616,c),
(140,830,o),
(139,841,o),
(132,859,c),
(127,869,o),
(116,880,o),
(104,885,c),
(82,894,o),
(81,895,o),
(78,903,c),
(75,910,o),
(75,911,o),
(79,917,c),
(81,921,o),
(85,926,o),
(89,927,c),
(95,931,o),
(95,931,o),
(107,928,c),
(138,920,o),
(162,902,o),
(174,877,c),
(188,848,o),
(192,818,o),
(195,608,c),
(197,544,o),
(197,539,o),
(201,532,c),
(206,523,o),
(212,517,o),
(226,510,c),
(251,497,o),
(270,483,o),
(274,472,c),
(279,457,o),
(273,434,o),
(260,420,c),
(249,409,o),
(220,384,o),
(202,370,c),
(180,354,o),
(180,354,o),
(181,318,c),
(182,302,o),
(183,279,o),
(185,267,c),
(191,119,o),
(192,112,o),
(189,97,c),
(183,70,o),
(171,52,o),
(149,37,c),
(134,27,o),
(119,22,o),
(102,21,c),
(95,20,o),
(86,20,o),
(83,19,c),
(80,19,o),
(74,20,o),
(71,21,c)
);
}
);
width = 326;
}
);
unicode = 125;
},
{
glyphname = bracketleft;
lastChange = "2026-03-04 06:47:38 +0000";
layers = (
{
layerId = m01;
shapes = (
{
closed = 1;
nodes = (
(70,45,o),
(59,46,o),
(41,53,c),
(19,61,o),
(9,74,o),
(3,102,c),
(0,114,o),
(0,125,o),
(0,259,c),
(0,304,o),
(1,359,o),
(2,382,c),
(5,423,o),
(5,703,o),
(4,790,c),
(3,842,o),
(4,855,o),
(14,869,c),
(22,883,o),
(38,892,o),
(61,897,c),
(74,899,o),
(239,901,o),
(248,898,c),
(274,891,o),
(272,855,o),
(246,852,c),
(242,851,o),
(208,850,o),
(170,849,c),
(107,848,o),
(101,847,o),
(90,844,c),
(70,838,o),
(62,827,o),
(58,801,c),
(56,791,o),
(56,774,o),
(58,614,c),
(61,530,o),
(60,437,o),
(55,383,c),
(52,335,o),
(51,149,o),
(54,130,c),
(57,117,o),
(63,107,o),
(72,104,c),
(85,99,o),
(128,94,o),
(178,93,c),
(214,92,l),
(222,86,l),
(237,77,o),
(242,65,o),
(235,54,c),
(231,47,o),
(225,43,o),
(219,43,c),
(216,43,o),
(206,42,o),
(197,41,c),
(168,39,o),
(161,39,o),
(117,42,c)
);
}
);
width = 367;
}
);
unicode = 91;
},
{
glyphname = bracketright;
lastChange = "2026-03-04 06:54:52 +0000";
layers = (
{
layerId = m01;
shapes = (
{
closed = 1;
nodes = (
(151,45,o),
(140,46,o),
(130,48,c),
(120,49,o),
(93,51,o),
(70,52,c),
(34,53,o),
(26,54,o),
(19,56,c),
(7,61,o),
(4,64,o),
(1,72,c),
(-1,79,o),
(-1,79,o),
(2,87,c),
(6,96,o),
(12,100,o),
(23,101,c),
(27,101,o),
(37,102,o),
(45,104,c),
(53,105,o),
(64,107,o),
(71,107,c),
(83,109,o),
(127,105,o),
(155,100,c),
(166,98,o),
(178,96,o),
(182,96,c),
(189,96,l),
(189,153,l),
(189,186,o),
(191,288,o),
(192,316,c),
(194,342,o),
(196,376,o),
(197,391,c),
(198,406,o),
(199,435,o),
(200,456,c),
(201,478,o),
(203,507,o),
(205,522,c),
(208,558,o),
(210,745,o),
(207,781,c),
(205,814,o),
(203,824,o),
(194,832,c),
(183,842,o),
(170,844,o),
(73,847,c),
(49,848,o),
(26,850,o),
(23,851,c),
(20,852,o),
(15,855,o),
(13,859,c),
(3,869,o),
(7,888,o),
(20,895,c),
(25,897,o),
(31,898,o),
(111,897,c),
(205,897,o),
(212,896,o),
(229,887,c),
(243,878,o),
(252,864,o),
(259,837,c),
(262,824,o),
(262,818,o),
(262,765,c),
(262,708,o),
(259,519,o),
(257,509,c),
(257,506,o),
(256,490,o),
(255,474,c),
(254,457,o),
(252,430,o),
(251,414,c),
(248,377,o),
(245,313,o),
(243,229,c),
(241,105,o),
(240,93,o),
(233,76,c),
(221,49,o),
(200,41,o),
(155,45,c)
);
}
);
width = 312;
}
);
unicode = 93;
},
{
glyphname = quotesinglbase;
lastChange = "2026-02-25 09:20:53 +0000";
layers = (
{
layerId = m01;
shapes = (
{
closed = 1;
nodes = (
(56,25,o),
(57,25,o),
(59,25,c),
(73,28,o),
(87,35,o),
(96,45,c),
(109,61,o),
(114,76,o),
(106,90,c),
(99,103,o),
(89,108,o),
(67,113,c),
(55,116,l),
(55,123,l),
(55,132,o),
(59,147,o),
(63,158,c),
(82,210,o),
(98,200,o),
(96,229,c),
(95,234,o),
(89,244,o),
(84,246,c),
(83,249,o),
(78,251,o),
(75,252,c),
(58,256,o),
(46,247,o),
(27,212,c),
(12,185,o),
(5,164,o),
(1,136,c),
(-2,103,o),
(1,68,o),
(11,53,c),
(17,43,o),
(29,32,o),
(40,27,c),
(46,25,o),
(49,25,o),
(54,25,c)
);
}
);
width = 160;
}
);
unicode = 8218;
},
{
glyphname = quotedblbase;
lastChange = "2026-03-04 15:19:05 +0000";
layers = (
{
layerId = m01;
shapes = (
{
closed = 1;
nodes = (
(170,11,o),
(171,11,o),
(173,11,c),
(185,12,o),
(198,19,o),
(206,27,c),
(220,42,o),
(224,55,o),
(217,68,c),
(211,80,o),
(202,85,o),
(182,90,c),
(172,94,l),
(171,100,l),
(172,108,o),
(176,121,o),
(180,131,c),
(199,177,o),
(213,168,o),
(211,194,c),
(211,198,o),
(207,207,o),
(202,209,c),
(201,212,o),
(196,214,o),
(193,215,c),
(179,219,o),
(167,211,o),
(149,180,c),
(135,157,o),
(128,138,o),
(124,112,c),
(120,83,o),
(122,52,o),
(130,37,c),
(135,27,o),
(146,18,o),
(156,13,c),
(161,11,o),
(164,11,o),
(168,11,c)
);
},
{
closed = 1;
nodes = (
(48,26,o),
(54,27,o),
(58,28,c),
(72,33,o),
(83,53,o),
(80,67,c),
(80,71,o),
(80,77,o),
(78,80,c),
(74,87,o),
(64,95,o),
(56,97,c),
(49,100,l),
(53,108,l),
(56,118,o),
(62,136,o),
(75,161,c),
(84,178,o),
(84,181,o),
(84,185,c),
(81,192,o),
(76,200,o),
(72,200,c),
(64,204,o),
(49,199,o),
(38,190,c),
(33,186,o),
(20,163,o),
(13,149,c),
(-9,94,o),
(-1,36,o),
(29,27,c),
(33,26,o),
(38,25,o),
(44,26,c)
);
}
);
width = 295;
}
);
unicode = 8222;
},
{
glyphname = quotedblleft;
lastChange = "2026-02-23 10:14:53 +0000";
layers = (
{
layerId = m01;
shapes = (
{
closed = 1;
nodes = (
(57,770,o),
(56,770,o),
(55,770,c),
(21,768,o),
(-1,737,o),
(2,696,c),
(4,664,o),
(12,645,o),
(37,619,c),
(47,608,o),
(56,599,o),
(58,598,c),
(58,598,l),
(62,594,o),
(72,594,o),
(78,597,c),
(85,601,o),
(89,606,o),
(89,616,c),
(89,627,o),
(86,634,o),
(77,647,c),
(67,660,o),
(57,679,o),
(54,690,c),
(52,698,o),
(52,698,o),
(55,697,c),
(83,686,o),
(111,705,o),
(104,733,c),
(99,757,o),
(82,770,o),
(59,770,c)
);
},
{
closed = 1;
nodes = (
(175,762,o),
(168,761,o),
(162,760,c),
(151,756,o),
(136,741,o),
(132,731,c),
(127,711,o),
(128,701,o),
(138,676,c),
(146,657,o),
(162,630,o),
(170,621,c),
(177,613,o),
(196,598,o),
(200,598,c),
(204,596,o),
(215,598,o),
(219,601,c),
(225,605,o),
(228,614,o),
(225,626,c),
(225,635,o),
(222,638,o),
(212,652,c),
(200,670,o),
(195,679,o),
(193,687,c),
(192,691,o),
(193,692,o),
(199,694,c),
(210,698,o),
(220,706,o),
(223,712,c),
(229,724,o),
(223,745,o),
(210,754,c),
(203,760,o),
(193,762,o),
(181,762,c)
);
}
);
width = 307;
}
);
unicode = 8220;
},
{
glyphname = quotedblright;
lastChange = "2026-02-23 10:14:53 +0000";
layers = (
{
layerId = m01;
shapes = (
{
closed = 1;
nodes = (
(102,776,o),
(101,776,o),
(99,776,c),
(87,776,o),
(74,770,o),
(65,762,c),
(51,748,o),
(46,735,o),
(52,722,c),
(58,710,o),
(66,704,o),
(86,698,c),
(96,694,l),
(96,688,l),
(95,680,o),
(90,667,o),
(86,657,c),
(64,612,o),
(51,622,o),
(51,596,c),
(51,592,o),
(55,583,o),
(60,580,c),
(60,577,o),
(65,575,o),
(68,574,c),
(82,569,o),
(94,576,o),
(114,606,c),
(129,629,o),
(137,647,o),
(143,673,c),
(148,702,o),
(148,733,o),
(141,748,c),
(136,758,o),
(126,768,o),
(116,774,c),
(111,776,o),
(108,776,o),
(104,776,c)
);
},
{
closed = 1;
nodes = (
(223,755,o),
(217,754,o),
(213,753,c),
(199,749,o),
(187,730,o),
(189,716,c),
(189,712,o),
(189,706,o),
(190,702,c),
(194,695,o),
(204,687,o),
(211,684,c),
(218,681,l),
(214,673,l),
(210,663,o),
(203,646,o),
(189,621,c),
(179,605,o),
(179,602,o),
(179,598,c),
(181,591,o),
(186,583,o),
(190,582,c),
(198,578,o),
(213,582,o),
(224,590,c),
(230,594,o),
(244,616,o),
(252,630,c),
(276,684,o),
(272,742,o),
(242,753,c),
(238,754,o),
(233,755,o),
(227,755,c)
);
}
);
width = 310;
}
);
unicode = 8221;
},
{
glyphname = quoteleft;
lastChange = "2026-02-23 10:14:53 +0000";
layers = (
{
layerId = m01;
shapes = (
{
closed = 1;
nodes = (
(65,794,o),
(64,794,o),
(62,794,c),
(24,791,o),
(-1,756,o),
(2,710,c),
(5,673,o),
(14,652,o),
(42,622,c),
(53,610,o),
(64,600,o),
(66,598,c),
(66,598,l),
(70,594,o),
(82,594,o),
(89,597,c),
(97,602,o),
(101,608,o),
(101,619,c),
(101,632,o),
(98,639,o),
(88,654,c),
(76,669,o),
(65,690,o),
(61,703,c),
(59,712,o),
(59,712,o),
(62,711,c),
(94,698,o),
(126,720,o),
(118,752,c),
(112,779,o),
(93,794,o),
(67,794,c)
);
}
);
width = 199;
}
);
unicode = 8216;
},
{
glyphname = quoteright;
lastChange = "2026-02-23 10:14:53 +0000";
layers = (
{
layerId = m01;
shapes = (
{
closed = 1;
nodes = (
(88,799,o),
(87,799,o),
(85,799,c),
(71,798,o),
(57,792,o),
(47,783,c),
(32,768,o),
(26,753,o),
(33,739,c),
(39,725,o),
(48,719,o),
(70,712,c),
(81,708,l),
(81,701,l),
(80,692,o),
(75,678,o),
(70,667,c),
(46,617,o),
(31,628,o),
(31,599,c),
(31,594,o),
(36,584,o),
(41,581,c),
(42,578,o),
(47,576,o),
(50,575,c),
(66,569,o),
(79,577,o),
(101,610,c),
(118,636,o),
(127,656,o),
(133,684,c),
(139,716,o),
(139,751,o),
(131,767,c),
(126,778,o),
(115,790,o),
(104,796,c),
(98,798,o),
(95,799,o),
(90,799,c)
);
}
);
width = 187;
}
);
unicode = 8217;
},
{
glyphname = guillemetleft;
lastChange = "2026-02-25 09:05:50 +0000";
layers = (
{
layerId = m01;
shapes = (
{
closed = 1;
nodes = (
(337,333,o),
(334,335,o),
(314,354,c),
(291,375,o),
(281,383,o),
(239,412,c),
(224,423,o),
(204,437,o),
(194,443,c),
(166,463,o),
(155,478,o),
(155,493,c),
(155,507,o),
(169,527,o),
(184,537,c),
(227,563,o),
(260,586,o),
(320,636,c),
(360,669,o),
(361,670,o),
(370,670,c),
(377,670,o),
(383,667,o),
(387,661,c),
(391,655,o),
(391,650,o),
(390,644,c),
(388,639,o),
(386,636,o),
(373,626,c),
(365,618,o),
(350,605,o),
(340,595,c),
(286,546,o),
(271,536,o),
(228,504,c),
(213,493,o),
(223,489,o),
(243,477,c),
(260,466,o),
(307,431,o),
(326,416,c),
(350,397,o),
(373,374,o),
(376,367,c),
(379,359,o),
(378,348,o),
(373,342,c),
(367,332,o),
(353,328,o),
(343,331,c)
);
},
{
closed = 1;
nodes = (
(223,293,o),
(204,311,o),
(165,349,c),
(124,389,o),
(69,436,o),
(38,456,c),
(11,475,o),
(3,485,o),
(5,498,c),
(6,505,o),
(11,519,o),
(15,526,c),
(21,537,o),
(32,547,o),
(72,578,c),
(108,606,o),
(122,616,o),
(147,632,c),
(160,640,o),
(181,655,o),
(194,664,c),
(226,687,o),
(228,688,o),
(234,688,c),
(249,689,o),
(259,673,o),
(253,659,c),
(252,657,o),
(247,651,o),
(241,647,c),
(229,637,o),
(178,598,o),
(164,588,c),
(158,584,o),
(145,573,o),
(135,564,c),
(124,555,o),
(105,540,o),
(93,530,c),
(81,520,o),
(70,510,o),
(68,508,c),
(63,503,o),
(65,500,o),
(76,495,c),
(82,492,o),
(91,486,o),
(97,481,c),
(125,459,o),
(175,417,o),
(193,400,c),
(204,389,o),
(223,370,o),
(236,358,c),
(264,333,o),
(267,328,o),
(267,317,c),
(267,305,o),
(261,295,o),
(251,291,c),
(245,289,o),
(233,289,o),
(228,291,c)
);
}
);
width = 441;
}
);
unicode = 171;
},
{
glyphname = guillemetright;
lastChange = "2026-02-25 09:04:45 +0000";
layers = (
{
layerId = m01;
shapes = (
{
closed = 1;
nodes = (
(26,349,o),
(17,359,o),
(15,365,c),
(12,376,o),
(15,386,o),
(23,395,c),
(39,410,o),
(105,451,o),
(153,476,c),
(177,487,o),
(183,486,o),
(192,492,c),
(215,504,o),
(146,534,o),
(137,539,c),
(118,549,o),
(93,563,o),
(81,569,c),
(69,575,o),
(48,586,o),
(34,594,c),
(20,601,o),
(7,608,o),
(6,609,c),
(2,612,o),
(0,621,o),
(0,626,c),
(1,632,o),
(6,639,o),
(11,642,c),
(19,646,o),
(25,645,o),
(54,631,c),
(156,585,o),
(224,550,o),
(238,537,c),
(251,523,o),
(259,507,o),
(258,497,c),
(257,490,o),
(249,474,o),
(243,467,c),
(235,458,o),
(222,450,o),
(189,432,c),
(149,412,o),
(96,380,o),
(75,364,c),
(65,357,o),
(56,350,o),
(53,349,c),
(48,346,o),
(38,345,o),
(32,347,c)
);
},
{
closed = 1;
nodes = (
(101,276,o),
(93,284,o),
(90,293,c),
(89,299,o),
(89,301,o),
(91,306,c),
(94,316,o),
(99,321,o),
(121,335,c),
(141,348,o),
(178,373,o),
(198,389,c),
(226,409,o),
(238,420,o),
(277,456,c),
(307,484,o),
(307,485,o),
(319,492,c),
(328,498,o),
(330,501,o),
(328,506,c),
(326,510,o),
(289,535,o),
(265,550,c),
(223,575,o),
(205,585,o),
(124,630,c),
(116,634,o),
(112,639,o),
(111,646,c),
(108,658,o),
(118,670,o),
(130,670,c),
(137,670,o),
(140,668,o),
(190,644,c),
(240,621,o),
(258,612,o),
(274,603,c),
(281,599,o),
(291,593,o),
(297,590,c),
(309,583,o),
(348,559,o),
(360,550,c),
(371,542,o),
(378,535,o),
(382,526,c),
(386,519,o),
(386,517,o),
(386,508,c),
(386,497,o),
(384,491,o),
(374,477,c),
(363,463,o),
(330,431,o),
(275,382,c),
(248,357,o),
(202,323,o),
(150,288,c),
(128,273,o),
(120,270,o),
(111,273,c)
);
}
);
width = 436;
}
);
unicode = 187;
},
{
glyphname = guilsinglleft;
lastChange = "2026-02-25 09:42:13 +0000";
layers = (
{
layerId = m01;
shapes = (
{
closed = 1;
nodes = (
(185,333,o),
(182,335,o),
(162,354,c),
(139,375,o),
(129,383,o),
(87,412,c),
(72,423,o),
(52,437,o),
(42,443,c),
(14,463,o),
(3,478,o),
(3,493,c),
(3,507,o),
(17,527,o),
(32,537,c),
(75,563,o),
(108,586,o),
(168,636,c),
(208,669,o),
(209,670,o),
(218,670,c),
(225,670,o),
(231,667,o),
(235,661,c),
(239,655,o),
(239,650,o),
(238,644,c),
(236,639,o),
(234,636,o),
(221,626,c),
(213,618,o),
(198,605,o),
(188,595,c),
(134,546,o),
(119,536,o),
(76,504,c),
(61,493,o),
(71,489,o),
(91,477,c),
(108,466,o),
(155,431,o),
(174,416,c),
(198,397,o),
(221,374,o),
(224,367,c),
(227,359,o),
(226,348,o),
(221,342,c),
(215,332,o),
(201,328,o),
(191,331,c)
);
}
);
width = 289;
}
);
unicode = 8249;
},
{
glyphname = guilsinglright;
lastChange = "2026-02-25 09:41:43 +0000";
layers = (
{
layerId = m01;
shapes = (
{
closed = 1;
nodes = (
(26,349,o),
(17,359,o),
(15,365,c),
(12,376,o),
(15,386,o),
(23,395,c),
(39,410,o),
(105,451,o),
(153,476,c),
(177,487,o),
(183,486,o),
(192,492,c),
(215,504,o),
(146,534,o),
(137,539,c),
(118,549,o),
(93,563,o),
(81,569,c),
(69,575,o),
(48,586,o),
(34,594,c),
(20,601,o),
(7,608,o),
(6,609,c),
(2,612,o),
(0,621,o),
(0,626,c),
(1,632,o),
(6,639,o),
(11,642,c),
(19,646,o),
(25,645,o),
(54,631,c),
(156,585,o),
(224,550,o),
(238,537,c),
(251,523,o),
(259,507,o),
(258,497,c),
(257,490,o),
(249,474,o),
(243,467,c),
(235,458,o),
(222,450,o),
(189,432,c),
(149,412,o),
(96,380,o),
(75,364,c),
(65,357,o),
(56,350,o),
(53,349,c),
(48,346,o),
(38,345,o),
(32,347,c)
);
}
);
width = 308;
}
);
unicode = 8250;
},
{
glyphname = quotedbl;
lastChange = "2026-02-23 10:14:53 +0000";
layers = (
{
layerId = m01;
shapes = (
{
closed = 1;
nodes = (
(176,755,o),
(166,749,o),
(162,738,c),
(155,723,o),
(159,630,o),
(168,594,c),
(174,571,o),
(175,569,o),
(184,564,c),
(198,555,o),
(211,561,o),
(218,578,c),
(225,592,o),
(225,601,o),
(219,647,c),
(217,667,o),
(215,695,o),
(214,710,c),
(212,741,o),
(210,746,o),
(197,753,c),
(193,754,o),
(190,755,o),
(186,755,c)
);
},
{
closed = 1;
nodes = (
(69,747,o),
(61,742,o),
(55,732,c),
(52,727,o),
(51,719,o),
(50,685,c),
(50,650,o),
(50,640,o),
(53,618,c),
(57,592,o),
(58,591,o),
(64,586,c),
(68,583,o),
(72,580,o),
(75,579,c),
(77,579,o),
(79,579,o),
(80,578,c),
(80,578,o),
(84,580,o),
(88,581,c),
(94,584,o),
(98,587,o),
(103,596,c),
(109,607,l),
(109,652,l),
(109,676,o),
(108,704,o),
(107,713,c),
(106,729,o),
(106,731,o),
(98,738,c),
(91,746,o),
(90,746,o),
(81,747,c)
);
}
);
width = 323;
}
);
unicode = 34;
},
{
glyphname = quotesingle;
lastChange = "2026-02-23 10:14:53 +0000";
layers = (
{
layerId = m01;
shapes = (
{
closed = 1;
nodes = (
(69,747,o),
(61,742,o),
(55,732,c),
(52,727,o),
(51,719,o),
(50,685,c),
(50,650,o),
(50,640,o),
(53,618,c),
(57,592,o),
(58,591,o),
(64,586,c),
(68,583,o),
(72,580,o),
(75,579,c),
(77,579,o),
(79,579,o),
(80,578,c),
(80,578,o),
(84,580,o),
(88,581,c),
(94,584,o),
(98,587,o),
(103,596,c),
(109,607,l),
(109,652,l),
(109,676,o),
(108,704,o),
(107,713,c),
(106,729,o),
(106,731,o),
(98,738,c),
(91,746,o),
(90,746,o),
(81,747,c)
);
}
);
width = 159;
}
);
unicode = 39;
},
{
glyphname = at;
lastChange = "2026-02-23 10:14:53 +0000";
layers = (
{
layerId = m01;
shapes = (
{
closed = 1;
nodes = (
(171,744,o),
(163,743,o),
(156,742,c),
(121,734,o),
(98,719,o),
(73,686,c),
(51,656,o),
(36,629,o),
(27,600,c),
(2,525,o),
(-3,462,o),
(10,380,c),
(20,311,o),
(26,291,o),
(52,239,c),
(73,195,o),
(87,180,o),
(116,165,c),
(136,155,o),
(153,150,o),
(168,148,c),
(212,144,o),
(262,162,o),
(295,192,c),
(315,210,o),
(333,241,o),
(340,268,c),
(342,277,o),
(344,289,o),
(346,294,c),
(348,304,o),
(348,305,o),
(345,312,c),
(341,319,o),
(337,323,o),
(330,325,c),
(323,326,o),
(318,324,o),
(310,315,c),
(304,310,o),
(301,304,o),
(293,286,c),
(277,248,o),
(264,232,o),
(240,219,c),
(224,211,o),
(199,204,o),
(185,204,c),
(151,204,o),
(120,223,o),
(101,256,c),
(79,294,o),
(69,325,o),
(59,391,c),
(55,417,o),
(54,425,o),
(54,458,c),
(54,499,o),
(56,510,o),
(65,547,c),
(78,599,o),
(96,634,o),
(124,662,c),
(141,680,o),
(159,688,o),
(181,688,c),
(200,688,o),
(227,680,o),
(254,668,c),
(282,654,o),
(292,639,o),
(310,584,c),
(322,549,o),
(325,533,o),
(326,514,c),
(326,497,o),
(323,486,o),
(313,466,c),
(303,447,o),
(296,441,o),
(284,441,c),
(277,441,o),
(275,442,o),
(271,447,c),
(262,457,o),
(262,461,o),
(265,479,c),
(271,515,o),
(261,574,o),
(247,584,c),
(237,590,o),
(226,589,o),
(217,581,c),
(211,576,o),
(209,569,o),
(207,555,c),
(206,543,l),
(196,548,l),
(184,555,o),
(171,556,o),
(156,552,c),
(131,546,o),
(115,535,o),
(105,514,c),
(97,497,o),
(94,484,o),
(94,464,c),
(94,430,o),
(104,403,o),
(124,383,c),
(141,367,o),
(160,361,o),
(185,365,c),
(207,369,o),
(221,376,o),
(232,390,c),
(238,398,l),
(246,392,l),
(268,377,o),
(298,377,o),
(321,392,c),
(343,408,o),
(369,453,o),
(375,489,c),
(378,503,o),
(378,507,o),
(376,527,c),
(375,539,o),
(373,555,o),
(372,561,c),
(368,579,o),
(346,642,o),
(336,662,c),
(329,676,o),
(326,681,o),
(314,693,c),
(298,709,o),
(290,714,o),
(260,726,c),
(227,739,o),
(202,744,o),
(178,744,c)
);
},
{
closed = 1;
nodes = (
(188,503,o),
(206,491,o),
(208,470,c),
(208,459,o),
(208,457,o),
(203,446,c),
(199,435,o),
(196,432,o),
(191,428,c),
(182,422,o),
(169,421,o),
(160,427,c),
(152,433,o),
(145,447,o),
(144,462,c),
(143,480,o),
(151,494,o),
(165,501,c),
(169,503,o),
(172,504,o),
(176,504,c)
);
}
);
width = 427;
}
);
unicode = 64;
},
{
glyphname = ampersand;
lastChange = "2026-02-23 10:14:53 +0000";
layers = (
{
layerId = m01;
shapes = (
{
closed = 1;
nodes = (
(163,799,o),
(123,790,o),
(106,777,c),
(89,764,o),
(75,741,o),
(68,716,c),
(64,705,o),
(64,699,o),
(64,668,c),
(64,597,o),
(74,558,o),
(108,499,c),
(116,484,o),
(123,472,o),
(123,471,c),
(123,471,o),
(119,464,o),
(113,457,c),
(76,409,o),
(23,316,o),
(11,280,c),
(2,252,o),
(0,237,o),
(0,207,c),
(0,168,o),
(6,148,o),
(24,129,c),
(36,117,o),
(55,107,o),
(74,104,c),
(100,99,o),
(135,101,o),
(160,110,c),
(179,116,o),
(212,134,o),
(231,148,c),
(240,155,o),
(259,171,o),
(271,184,c),
(283,196,o),
(293,206,o),
(293,206,c),
(293,206,o),
(299,201,o),
(306,195,c),
(322,179,o),
(354,152,o),
(363,146,c),
(367,143,o),
(373,140,o),
(376,140,c),
(384,138,o),
(394,143,o),
(398,150,c),
(402,157,o),
(402,169,o),
(399,174,c),
(397,177,o),
(385,188,o),
(372,200,c),
(358,212,o),
(342,227,o),
(335,234,c),
(324,245,l),
(329,251,l),
(358,288,o),
(383,334,o),
(404,390,c),
(417,426,o),
(420,435,o),
(423,456,c),
(426,480,o),
(425,482,o),
(418,489,c),
(406,500,o),
(393,496,o),
(383,478,c),
(381,474,o),
(376,459,o),
(371,445,c),
(360,404,o),
(346,370,o),
(330,339,c),
(320,321,o),
(297,284,o),
(294,284,c),
(292,284,o),
(268,322,o),
(238,375,c),
(222,404,o),
(203,436,o),
(196,447,c),
(189,458,o),
(184,467,o),
(184,468,c),
(184,469,o),
(194,482,o),
(206,498,c),
(253,556,o),
(279,605,o),
(289,647,c),
(293,668,o),
(293,707,o),
(288,725,c),
(277,764,o),
(256,788,o),
(224,796,c),
(216,798,o),
(206,799,o),
(195,799,c)
);
},
{
closed = 1;
nodes = (
(208,742,o),
(224,733,o),
(232,716,c),
(236,709,o),
(236,706,o),
(236,682,c),
(236,657,o),
(236,656,o),
(231,640,c),
(220,609,o),
(198,570,o),
(173,536,c),
(166,527,o),
(160,519,o),
(158,517,c),
(157,515,o),
(155,519,o),
(145,538,c),
(126,577,o),
(119,603,o),
(117,645,c),
(112,711,o),
(126,736,o),
(170,742,c),
(176,743,o),
(181,743,o),
(186,743,c)
);
},
{
closed = 1;
nodes = (
(151,428,l),
(158,418,l),
(168,401,o),
(179,383,o),
(205,337,c),
(218,313,o),
(236,282,o),
(246,269,c),
(262,244,l),
(241,224,l),
(207,191,o),
(178,173,o),
(143,162,c),
(123,156,o),
(94,155,o),
(82,159,c),
(71,163,o),
(59,176,o),
(55,187,c),
(47,212,o),
(55,257,o),
(75,301,c),
(87,327,o),
(134,406,o),
(148,424,c)
);
}
);
width = 475;
}
);
unicode = 38;
},
{
glyphname = copyright;
lastChange = "2026-02-23 10:14:53 +0000";
layers = (
{
layerId = m01;
shapes = (
{
closed = 1;
nodes = (
(199,799,o),
(165,791,o),
(143,780,c),
(85,751,o),
(38,691,o),
(21,626,c),
(5,564,o),
(0,514,o),
(0,421,c),
(0,343,o),
(5,309,o),
(21,262,c),
(40,207,o),
(74,156,o),
(106,135,c),
(125,122,o),
(169,106,o),
(197,102,c),
(212,99,o),
(243,101,o),
(259,105,c),
(288,113,o),
(309,126,o),
(335,153,c),
(354,172,o),
(362,185,o),
(376,214,c),
(410,283,o),
(432,400,o),
(425,468,c),
(424,477,o),
(423,500,o),
(421,518,c),
(419,555,o),
(417,568,o),
(404,615,c),
(385,683,o),
(369,719,o),
(347,748,c),
(337,761,o),
(327,769,o),
(311,778,c),
(286,790,o),
(248,799,o),
(222,799,c)
);
},
{
closed = 1;
nodes = (
(257,741,o),
(278,734,o),
(299,715,c),
(320,695,o),
(332,672,o),
(350,617,c),
(362,580,o),
(361,563,o),
(362,524,c),
(369,431,o),
(368,409,o),
(361,365,c),
(357,339,o),
(346,294,o),
(337,269,c),
(321,222,o),
(292,184,o),
(260,168,c),
(248,162,o),
(247,162,o),
(225,161,c),
(201,160,o),
(190,162,o),
(167,170,c),
(150,176,o),
(138,184,o),
(124,198,c),
(91,231,o),
(67,285,o),
(58,345,c),
(52,388,o),
(53,457,o),
(60,525,c),
(65,568,o),
(77,619,o),
(88,643,c),
(109,688,o),
(149,725,o),
(191,738,c),
(201,741,o),
(208,742,o),
(224,742,c)
);
},
{
closed = 1;
nodes = (
(164,343,o),
(143,362,o),
(130,389,c),
(109,431,o),
(107,476,o),
(125,510,c),
(138,535,o),
(167,558,o),
(194,566,c),
(217,572,o),
(248,566,o),
(270,551,c),
(284,542,o),
(287,537,o),
(287,526,c),
(287,518,o),
(287,516,o),
(281,511,c),
(271,501,o),
(263,501,o),
(245,510,c),
(234,516,o),
(230,517,o),
(222,517,c),
(204,518,o),
(186,505,o),
(176,486,c),
(171,474,o),
(170,473,o),
(170,455,c),
(170,439,o),
(171,435,o),
(175,427,c),
(179,417,o),
(190,406,o),
(197,404,c),
(208,402,o),
(231,410,o),
(242,420,c),
(255,433,o),
(276,439,o),
(287,433,c),
(293,430,o),
(299,420,o),
(299,413,c),
(299,392,o),
(258,350,o),
(228,340,c),
(217,336,o),
(196,335,o),
(183,338,c)
);
}
);
width = 476;
}
);
unicode = 169;
},
{
glyphname = trademark;
lastChange = "2026-02-23 10:14:53 +0000";
layers = (
{
layerId = m01;
shapes = (
{
closed = 1;
nodes = (
(364,801,o),
(355,797,o),
(349,788,c),
(339,772,o),
(319,733,o),
(313,718,c),
(310,710,o),
(306,698,o),
(305,690,c),
(301,662,o),
(296,668,o),
(279,715,c),
(264,760,o),
(261,767,o),
(257,771,c),
(249,780,o),
(235,781,o),
(225,775,c),
(218,770,o),
(215,760,o),
(212,734,c),
(208,695,o),
(201,646,o),
(197,616,c),
(191,580,o),
(190,536,o),
(195,527,c),
(203,512,o),
(223,511,o),
(233,525,c),
(236,529,o),
(237,534,o),
(238,556,c),
(239,581,o),
(246,634,o),
(250,642,c),
(251,645,o),
(252,643,o),
(258,634,c),
(269,617,o),
(280,609,o),
(292,609,c),
(303,609,o),
(323,623,o),
(333,638,c),
(336,642,o),
(339,645,o),
(339,645,c),
(340,645,o),
(341,623,o),
(341,596,c),
(341,570,o),
(342,542,o),
(343,536,c),
(343,530,o),
(345,520,o),
(345,514,c),
(346,503,o),
(351,496,o),
(360,492,c),
(368,489,o),
(379,493,o),
(384,502,c),
(393,516,o),
(393,517,o),
(393,592,c),
(393,631,o),
(394,674,o),
(395,691,c),
(398,733,o),
(398,779,o),
(394,785,c),
(389,795,o),
(381,800,o),
(372,801,c)
);
},
{
closed = 1;
nodes = (
(153,792,o),
(141,792,o),
(130,791,c),
(114,790,o),
(82,789,o),
(59,788,c),
(20,787,o),
(18,787,o),
(13,783,c),
(-2,773,o),
(-1,752,o),
(14,744,c),
(18,742,o),
(26,741,o),
(43,740,c),
(67,738,l),
(66,654,l),
(64,576,o),
(65,568,o),
(68,552,c),
(71,531,o),
(73,528,o),
(82,523,c),
(90,519,o),
(90,519,o),
(98,523,c),
(103,525,o),
(106,528,o),
(110,534,c),
(116,543,l),
(116,593,l),
(116,621,o),
(116,665,o),
(115,691,c),
(115,738,l),
(124,738,l),
(137,739,o),
(158,742,o),
(170,745,c),
(182,748,o),
(187,752,o),
(189,761,c),
(192,771,o),
(188,779,o),
(177,786,c),
(172,788,o),
(166,791,o),
(163,792,c),
(163,792,o),
(161,792,o),
(159,792,c)
);
}
);
width = 447;
}
);
unicode = 8482;
},
{
glyphname = dollar;
lastChange = "2026-02-23 10:14:53 +0000";
layers = (
{
layerId = m01;
shapes = (
{
closed = 1;
nodes = (
(142,103,l),
(149,100,o),
(156,100,o),
(163,103,c),
(169,106,o),
(177,122,o),
(177,130,c),
(177,138,o),
(180,140,o),
(196,145,c),
(203,147,o),
(217,152,o),
(225,157,c),
(258,174,o),
(281,197,o),
(298,233,c),
(308,255,o),
(312,269,o),
(312,292,c),
(314,329,o),
(305,356,o),
(281,383,c),
(263,404,o),
(224,432,o),
(191,445,c),
(183,449,l),
(182,509,l),
(181,563,o),
(178,644,o),
(175,684,c),
(174,698,l),
(178,697,l),
(186,695,o),
(208,683,o),
(216,676,c),
(233,662,o),
(258,629,o),
(265,611,c),
(266,606,o),
(269,597,o),
(270,590,c),
(270,584,o),
(272,578,o),
(273,575,c),
(280,566,o),
(295,562,o),
(304,568,c),
(313,574,o),
(315,579,o),
(315,593,c),
(315,626,o),
(306,647,o),
(275,687,c),
(250,721,o),
(225,739,o),
(188,749,c),
(172,754,l),
(171,769,l),
(170,777,o),
(169,785,o),
(168,787,c),
(164,795,o),
(156,799,o),
(149,799,c),
(141,800,o),
(133,796,o),
(129,789,c),
(127,785,o),
(125,779,o),
(125,768,c),
(124,753,l),
(117,751,l),
(95,745,o),
(66,722,o),
(46,697,c),
(16,658,o),
(-2,600,o),
(3,554,c),
(10,490,o),
(50,442,o),
(116,418,c),
(123,415,o),
(130,413,o),
(131,412,c),
(132,411,o),
(132,378,o),
(131,337,c),
(128,222,o),
(127,202,o),
(126,202,c),
(125,202,o),
(121,205,o),
(116,209,c),
(108,217,o),
(77,260,o),
(72,272,c),
(68,281,o),
(62,284,o),
(52,284,c),
(37,284,o),
(30,276,o),
(30,255,c),
(30,244,o),
(31,242,o),
(38,228,c),
(58,186,o),
(91,152,o),
(120,141,c),
(125,139,o),
(130,136,o),
(131,135,c),
(132,134,o),
(132,129,o),
(132,124,c),
(132,113,o),
(134,108,o),
(142,103,c)
);
},
{
closed = 1;
nodes = (
(178,197,o),
(177,224,o),
(177,257,c),
(175,313,o),
(176,390,o),
(178,392,c),
(178,392,o),
(179,393,o),
(179,393,c),
(186,392,o),
(220,369,o),
(232,356,c),
(261,325,o),
(266,290,o),
(247,251,c),
(236,229,o),
(217,212,o),
(190,202,c),
(184,199,o),
(179,197,o),
(178,197,c)
);
},
{
closed = 1;
nodes = (
(128,469,o),
(104,482,o),
(94,489,c),
(79,501,o),
(67,519,o),
(60,540,c),
(55,556,o),
(56,589,o),
(62,609,c),
(69,637,o),
(85,664,o),
(104,682,c),
(111,688,o),
(125,697,o),
(128,698,c),
(128,698,o),
(128,698,o),
(128,697,c),
(128,697,o),
(130,683,o),
(131,666,c),
(134,628,o),
(137,546,o),
(136,502,c),
(135,472,o),
(135,468,o),
(132,468,c)
);
}
);
width = 365;
}
);
unicode = 36;
},
{
glyphname = euro;
lastChange = "2026-02-23 10:14:53 +0000";
layers = (
{
layerId = m01;
shapes = (
{
closed = 1;
nodes = (
(350,104,o),
(336,108,o),
(323,111,c),
(274,123,o),
(223,146,o),
(189,171,c),
(154,197,o),
(135,217,o),
(120,242,c),
(104,268,o),
(86,313,o),
(80,341,c),
(79,347,o),
(78,353,o),
(78,354,c),
(78,355,o),
(65,355,o),
(50,355,c),
(20,355,o),
(15,357,o),
(7,366,c),
(-2,376,o),
(2,393,o),
(15,400,c),
(17,402,o),
(29,403,o),
(47,403,c),
(75,404,l),
(76,424,l),
(78,442,o),
(82,474,o),
(84,480,c),
(85,482,o),
(81,482,o),
(63,482,c),
(39,482,o),
(33,484,o),
(26,492,c),
(18,502,o),
(21,518,o),
(33,526,c),
(37,529,o),
(42,529,o),
(69,530,c),
(101,531,l),
(107,550,l),
(119,586,o),
(134,614,o),
(164,652,c),
(214,717,o),
(253,747,o),
(330,781,c),
(350,789,o),
(374,796,o),
(391,798,c),
(403,800,o),
(415,795,o),
(419,788,c),
(427,777,o),
(423,762,o),
(412,756,c),
(409,754,o),
(400,751,o),
(391,750,c),
(375,748,o),
(355,741,o),
(331,731,c),
(297,716,o),
(264,692,o),
(241,668,c),
(227,653,o),
(200,615,o),
(181,584,c),
(172,569,o),
(158,538,o),
(158,532,c),
(158,530,o),
(175,530,o),
(212,530,c),
(265,531,l),
(290,529,o),
(297,511,o),
(283,493,c),
(278,487,o),
(277,487,o),
(258,484,c),
(244,483,o),
(222,482,o),
(190,482,c),
(142,481,l),
(139,469,l),
(135,454,o),
(133,432,o),
(133,417,c),
(133,405,l),
(179,405,l),
(210,405,o),
(235,406,o),
(253,408,c),
(280,411,l),
(304,411,o),
(313,393,o),
(305,375,c),
(301,367,o),
(296,366,o),
(287,363,c),
(265,357,o),
(255,354,o),
(179,354,c),
(136,354,l),
(140,339,l),
(151,298,o),
(173,259,o),
(195,237,c),
(227,207,o),
(258,191,o),
(344,160,c),
(366,152,o),
(371,149,o),
(379,138,c),
(384,131,o),
(386,127,o),
(386,123,c),
(386,115,o),
(382,108,o),
(375,104,c),
(369,100,o),
(362,100,o),
(354,103,c)
);
}
);
width = 473;
}
);
unicode = 8364;
},
{
glyphname = sterling;
lastChange = "2026-02-23 10:14:53 +0000";
layers = (
{
layerId = m01;
shapes = (
{
closed = 1;
nodes = (
(28,106,o),
(22,112,o),
(18,118,c),
(13,129,o),
(17,147,o),
(40,216,c),
(55,258,o),
(59,274,o),
(61,301,c),
(63,319,o),
(63,372,o),
(60,400,c),
(59,413,l),
(39,414,l),
(22,414,o),
(17,415,o),
(12,418,c),
(4,423,o),
(0,432,o),
(1,441,c),
(2,457,o),
(13,464,o),
(36,464,c),
(51,464,l),
(46,479,l),
(44,488,o),
(38,507,o),
(34,522,c),
(15,581,o),
(10,629,o),
(20,669,c),
(25,690,o),
(44,721,o),
(65,743,c),
(100,781,o),
(135,798,o),
(175,798,c),
(227,798,o),
(269,776,o),
(297,733,c),
(315,707,o),
(321,685,o),
(320,652,c),
(319,635,o),
(318,628,o),
(313,615,c),
(307,595,o),
(299,580,o),
(291,575,c),
(283,570,o),
(273,570,o),
(265,574,c),
(253,582,o),
(251,595,o),
(258,611,c),
(269,637,o),
(268,672,o),
(256,696,c),
(235,734,o),
(182,751,o),
(142,732,c),
(133,727,o),
(126,722,o),
(113,708,c),
(85,680,o),
(76,661,o),
(74,626,c),
(73,599,o),
(77,574,o),
(91,531,c),
(97,513,o),
(104,491,o),
(106,483,c),
(110,467,l),
(142,466,l),
(170,465,o),
(175,465,o),
(181,461,c),
(189,457,o),
(193,453,o),
(196,446,c),
(200,436,o),
(189,420,o),
(178,420,c),
(175,420,o),
(166,419,o),
(159,418,c),
(152,417,o),
(139,415,o),
(131,414,c),
(116,413,l),
(117,405,l),
(119,363,o),
(118,297,o),
(113,272,c),
(110,259,o),
(103,228,o),
(101,222,c),
(100,221,o),
(104,220,o),
(120,221,c),
(150,222,o),
(164,218,o),
(197,198,c),
(225,182,o),
(238,175,o),
(253,170,c),
(269,165,o),
(286,165,o),
(299,170,c),
(320,178,o),
(337,177,o),
(346,168,c),
(351,162,o),
(352,161,o),
(352,152,c),
(352,141,l),
(339,130,l),
(312,104,o),
(285,98,o),
(244,110,c),
(225,116,o),
(205,125,o),
(183,139,c),
(144,162,o),
(128,166,o),
(110,157,c),
(98,152,o),
(87,143,o),
(72,123,c),
(56,104,o),
(48,100,o),
(34,104,c)
);
}
);
width = 402;
}
);
unicode = 163;
},
{
glyphname = plus;
lastChange = "2026-02-23 10:14:53 +0000";
layers = (
{
layerId = m01;
shapes = (
{
closed = 1;
nodes = (
(193,200,o),
(186,227,o),
(186,311,c),
(185,339,o),
(185,377,o),
(184,395,c),
(183,428,l),
(107,428,l),
(34,427,o),
(29,428,o),
(21,432,c),
(-2,443,o),
(-2,473,o),
(21,483,c),
(29,486,o),
(35,487,o),
(66,487,c),
(100,487,o),
(177,490,o),
(179,492,c),
(179,492,o),
(177,510,o),
(175,532,c),
(173,554,o),
(171,598,o),
(170,631,c),
(169,689,l),
(174,697,l),
(180,707,o),
(191,712,o),
(201,710,c),
(212,709,o),
(217,706,o),
(222,697,c),
(226,690,o),
(227,686,o),
(228,639,c),
(230,576,o),
(239,496,o),
(244,497,c),
(245,497,o),
(265,497,o),
(289,498,c),
(313,499,o),
(339,499,o),
(348,499,c),
(363,497,o),
(365,496,o),
(377,488,c),
(395,474,o),
(398,460,o),
(385,445,c),
(379,438,l),
(350,435,l),
(334,434,o),
(305,432,o),
(285,431,c),
(249,430,l),
(249,424,l),
(249,421,o),
(250,388,o),
(252,351,c),
(254,315,o),
(255,271,o),
(255,254,c),
(254,225,o),
(254,224,o),
(247,212,c),
(238,196,o),
(227,190,o),
(214,194,c)
);
}
);
width = 443;
}
);
unicode = 43;
},
{
glyphname = equal;
lastChange = "2026-02-23 10:14:53 +0000";
layers = (
{
layerId = m01;
shapes = (
{
closed = 1;
nodes = (
(236,601,o),
(200,601,o),
(158,600,c),
(40,599,o),
(28,598,o),
(22,595,c),
(8,588,o),
(3,569,o),
(12,556,c),
(19,543,o),
(21,543,o),
(145,541,c),
(206,541,o),
(272,539,o),
(292,539,c),
(292,539,l),
(383,535,o),
(404,538,o),
(413,555,c),
(418,565,o),
(418,567,o),
(413,577,c),
(410,583,o),
(406,586,o),
(396,591,c),
(383,598,o),
(383,598,o),
(335,600,c),
(320,601,o),
(296,601,o),
(266,601,c)
);
},
{
closed = 1;
nodes = (
(74,367,o),
(27,366,o),
(20,363,c),
(4,357,o),
(-2,338,o),
(8,323,c),
(16,311,o),
(21,310,o),
(62,310,c),
(137,309,o),
(237,304,o),
(275,301,c),
(325,296,o),
(384,295,o),
(392,300,c),
(408,308,o),
(411,328,o),
(399,341,c),
(384,356,o),
(372,359,o),
(289,364,c),
(248,366,o),
(184,367,o),
(129,367,c)
);
}
);
width = 467;
}
);
unicode = 61;
},
{
glyphname = greater;
lastChange = "2026-02-23 10:14:53 +0000";
layers = (
{
layerId = m01;
shapes = (
{
closed = 1;
nodes = (
(13,108,o),
(9,115,o),
(9,124,c),
(9,130,o),
(10,135,o),
(18,148,c),
(36,180,o),
(44,189,o),
(96,236,c),
(111,249,o),
(139,277,o),
(159,298,c),
(179,319,o),
(206,346,o),
(219,358,c),
(249,385,o),
(312,436,o),
(342,457,c),
(354,466,o),
(364,473,o),
(364,474,c),
(363,476,o),
(337,499,o),
(314,517,c),
(271,552,o),
(242,572,o),
(191,603,c),
(156,623,o),
(136,638,o),
(102,667,c),
(91,676,o),
(74,691,o),
(64,700,c),
(37,723,o),
(6,753,o),
(3,759,c),
(1,762,o),
(0,767,o),
(0,772,c),
(0,787,o),
(18,799,o),
(32,794,c),
(34,793,o),
(46,785,o),
(57,775,c),
(84,752,o),
(166,687,o),
(178,679,c),
(183,675,o),
(204,662,o),
(226,649,c),
(305,602,o),
(373,552,o),
(417,508,c),
(439,486,o),
(443,479,o),
(442,466,c),
(441,452,o),
(434,445,o),
(419,441,c),
(411,438,o),
(403,434,o),
(396,428,c),
(390,424,o),
(374,411,o),
(361,401,c),
(301,354,o),
(249,308,o),
(204,260,c),
(168,222,o),
(144,198,o),
(119,175,c),
(109,165,o),
(91,147,o),
(79,134,c),
(63,116,o),
(55,109,o),
(48,106,c),
(35,100,o),
(29,99,o),
(22,103,c)
);
}
);
width = 492;
}
);
unicode = 62;
},
{
glyphname = less;
lastChange = "2026-02-23 10:14:53 +0000";
layers = (
{
layerId = m01;
shapes = (
{
closed = 1;
nodes = (
(355,116,o),
(336,128,o),
(323,137,c),
(309,146,o),
(279,166,o),
(256,181,c),
(195,220,o),
(193,222,o),
(152,261,c),
(132,281,o),
(104,307,o),
(90,319,c),
(35,366,o),
(15,387,o),
(5,407,c),
(0,417,o),
(0,419,o),
(1,430,c),
(1,440,o),
(3,445,o),
(9,457,c),
(15,470,o),
(20,476,o),
(46,504,c),
(105,567,o),
(181,645,o),
(197,659,c),
(248,704,o),
(351,782,o),
(377,794,c),
(387,799,o),
(396,798,o),
(404,789,c),
(411,782,o),
(413,774,o),
(410,765,c),
(407,757,o),
(404,755,o),
(379,738,c),
(286,678,o),
(241,637,o),
(117,498,c),
(94,473,o),
(84,464,o),
(63,446,c),
(56,439,o),
(49,433,o),
(49,432,c),
(49,428,o),
(57,420,o),
(76,403,c),
(85,395,o),
(101,381,o),
(110,373,c),
(120,364,o),
(141,345,o),
(158,331,c),
(174,317,o),
(198,295,o),
(210,284,c),
(237,259,o),
(245,253,o),
(284,229,c),
(331,201,o),
(379,168,o),
(391,157,c),
(400,148,o),
(403,144,o),
(405,136,c),
(407,131,o),
(408,125,o),
(408,123,c),
(408,115,o),
(403,107,o),
(397,104,c),
(387,99,o),
(381,100,o),
(363,111,c)
);
}
);
width = 461;
}
);
unicode = 60;
},
{
glyphname = asciitilde;
lastChange = "2026-02-23 10:14:53 +0000";
layers = (
{
layerId = m01;
shapes = (
{
closed = 1;
nodes = (
(268,385,o),
(251,393,o),
(219,413,c),
(171,444,o),
(167,446,o),
(154,450,c),
(149,451,o),
(141,452,o),
(135,452,c),
(120,452,o),
(114,449,o),
(98,430,c),
(89,421,o),
(82,414,o),
(81,413,c),
(78,412,o),
(64,409,o),
(58,416,c),
(51,422,o),
(48,430,o),
(51,438,c),
(53,446,o),
(73,473,o),
(82,481,c),
(107,503,o),
(153,508,o),
(186,491,c),
(193,489,o),
(209,479,o),
(221,471,c),
(273,438,o),
(297,431,o),
(324,438,c),
(342,443,o),
(363,456,o),
(374,467,c),
(379,472,o),
(393,476,o),
(401,474,c),
(407,473,o),
(414,467,o),
(416,459,c),
(418,449,o),
(417,447,o),
(387,417,c),
(378,407,o),
(374,404,o),
(359,397,c),
(334,385,o),
(311,380,o),
(290,382,c)
);
}
);
width = 467;
}
);
unicode = 126;
},
{
glyphname = percent;
lastChange = "2026-02-23 10:14:53 +0000";
layers = (
{
layerId = m01;
shapes = (
{
closed = 1;
nodes = (
(56,125,o),
(71,128,o),
(78,138,c),
(80,140,o),
(83,149,o),
(86,157,c),
(93,180,o),
(106,203,o),
(139,255,c),
(198,344,o),
(222,383,o),
(243,418,c),
(268,460,o),
(305,517,o),
(359,599,c),
(399,660,o),
(411,681,o),
(420,707,c),
(427,729,o),
(427,733,o),
(418,742,c),
(413,746,o),
(411,748,o),
(408,748,c),
(407,748,o),
(405,748,o),
(404,748,c),
(390,746,o),
(381,736,o),
(369,707,c),
(357,680,o),
(349,665,o),
(330,639,c),
(280,570,o),
(234,501,o),
(194,434,c),
(184,417,o),
(162,382,o),
(145,356,c),
(61,229,o),
(46,204,o),
(38,173,c),
(32,151,o),
(34,139,o),
(46,132,c)
);
},
{
closed = 1;
nodes = (
(332,99,o),
(357,102,o),
(372,108,c),
(389,116,o),
(405,136,o),
(411,158,c),
(413,169,o),
(412,199,o),
(408,214,c),
(400,244,o),
(381,268,o),
(361,276,c),
(350,280,o),
(324,284,o),
(308,284,c),
(302,284,o),
(296,282,o),
(284,276,c),
(263,266,o),
(248,251,o),
(242,236,c),
(233,210,o),
(234,173,o),
(244,150,c),
(250,137,o),
(265,121,o),
(278,115,c),
(287,110,o),
(307,104,o),
(315,102,c)
);
},
{
closed = 1;
nodes = (
(318,153,o),
(289,172,o),
(289,200,c),
(289,208,o),
(295,220,o),
(302,227,c),
(308,233,l),
(314,236,o),
(319,238,o),
(324,238,c),
(350,237,o),
(368,193,o),
(341,167,c)
);
},
{
closed = 1;
nodes = (
(95,599,o),
(136,608,o),
(156,629,c),
(172,646,o),
(183,676,o),
(183,705,c),
(183,725,o),
(181,733,o),
(172,752,c),
(158,781,o),
(130,799,o),
(100,799,c),
(98,799,o),
(96,798,o),
(94,798,c),
(81,797,o),
(65,791,o),
(58,785,c),
(55,783,o),
(50,780,o),
(45,778,c),
(41,776,o),
(35,771,o),
(30,767,c),
(20,755,o),
(7,734,o),
(4,724,c),
(-1,706,o),
(2,673,o),
(12,654,c),
(21,635,o),
(43,617,o),
(65,610,c)
);
},
{
closed = 1;
nodes = (
(92,662,o),
(81,663,o),
(70,671,c),
(59,679,o),
(54,700,o),
(59,716,c),
(62,729,o),
(72,740,o),
(87,739,c),
(91,739,o),
(95,739,o),
(99,737,c),
(106,737,o),
(112,732,o),
(117,724,c),
(129,704,o),
(122,677,o),
(103,667,c)
);
}
);
width = 475;
}
);
unicode = 37;
},
{
glyphname = upArrow;
lastChange = "2026-02-25 11:35:20 +0000";
layers = (
{
layerId = m01;
shapes = (
{
closed = 1;
nodes = (
(124,128,o),
(138,128,o),
(171,159,cs),
(182,171,o),
(189,177,o),
(193,180,c),
(193,180,o),
(195,181,o),
(195,181,c),
(195,181,o),
(199,181,o),
(201,180,cs),
(203,179,o),
(204,178,o),
(208,173,cs),
(214,166,o),
(224,155,o),
(245,137,cs),
(246,136,o),
(251,132,o),
(254,131,cs),
(256,130,o),
(260,129,o),
(266,128,cs),
(270,128,o),
(274,129,o),
(276,129,c),
(277,130,o),
(278,130,o),
(279,130,c),
(290,136,o),
(298,148,o),
(295,161,cs),
(294,168,o),
(290,175,o),
(282,182,cs),
(277,186,o),
(271,192,o),
(266,197,cs),
(256,207,o),
(245,218,o),
(237,222,cs),
(235,223,l),
(236,243,l),
(237,443,l),
(237,476,o),
(237,506,o),
(237,509,cs),
(237,510,o),
(237,512,o),
(237,513,cs),
(237,519,o),
(236,533,o),
(236,546,cs),
(235,578,l),
(237,672,ls),
(238,704,o),
(238,734,o),
(239,757,c),
(241,755,o),
(244,753,o),
(249,749,cs),
(266,734,o),
(289,713,o),
(310,691,cs),
(325,675,o),
(328,674,o),
(332,671,cs),
(336,669,o),
(339,668,o),
(345,668,cs),
(351,668,o),
(354,668,o),
(358,670,cs),
(367,674,o),
(372,681,o),
(374,688,c),
(378,696,o),
(376,704,o),
(371,712,cs),
(367,720,o),
(325,762,o),
(294,789,cs),
(271,808,o),
(253,821,o),
(239,828,cs),
(224,835,o),
(213,837,o),
(201,836,cs),
(191,834,o),
(174,828,o),
(166,822,cs),
(162,819,o),
(145,802,o),
(138,794,cs),
(133,789,o),
(124,777,o),
(116,766,cs),
(107,754,o),
(100,745,o),
(74,716,cs),
(51,690,o),
(47,686,o),
(46,682,cs),
(42,672,o),
(46,663,o),
(51,657,cs),
(60,648,o),
(72,646,o),
(82,654,cs),
(85,656,o),
(90,661,o),
(96,667,cs),
(101,673,o),
(112,685,o),
(121,693,cs),
(140,713,o),
(147,721,o),
(155,731,cs),
(164,742,o),
(171,750,o),
(182,760,cs),
(184,762,l),
(184,768,l),
(185,758,o),
(184,738,o),
(183,730,cs),
(182,726,o),
(181,715,o),
(180,706,cs),
(179,691,o),
(179,688,o),
(178,631,cs),
(177,586,o),
(177,565,o),
(178,544,cs),
(178,520,o),
(178,507,o),
(177,452,c),
(174,245,l),
(168,223,ls),
(167,220,o),
(165,219,o),
(162,217,cs),
(157,214,o),
(150,210,o),
(142,200,cs),
(135,193,o),
(129,188,o),
(124,183,cs),
(111,169,o),
(107,164,o),
(106,160,cs),
(104,155,o),
(104,148,o),
(105,144,cs),
(106,140,o),
(112,134,o),
(117,131,c),
(119,129,o),
(122,128,o),
(128,128,c)
);
}
);
width = 421;
}
);
unicode = 8593;
},
{
glyphname = northEastArrow;
lastChange = "2026-02-25 11:02:48 +0000";
layers = (
{
layerId = m01;
shapes = (
{
closed = 1;
nodes = (
(84,218,o),
(91,219,o),
(100,224,cs),
(107,229,o),
(110,232,o),
(118,247,c),
(139,299,l),
(216,473,l),
(217,475,o),
(239,466,o),
(266,455,cs),
(292,443,o),
(318,433,o),
(322,433,c),
(328,431,o),
(332,433,o),
(339,436,cs),
(353,443,o),
(355,448,o),
(357,471,cs),
(357,485,o),
(361,497,o),
(365,513,cs),
(370,526,o),
(377,555,o),
(382,577,cs),
(386,601,o),
(396,636,o),
(402,658,cs),
(417,711,o),
(419,721,o),
(419,753,cs),
(419,787,o),
(419,788,o),
(400,801,cs),
(393,806,o),
(390,807,o),
(384,807,cs),
(377,807,ls),
(363,806,o),
(335,797,o),
(309,785,cs),
(291,776,o),
(147,686,o),
(116,664,cs),
(50,617,o),
(41,604,o),
(53,582,c),
(56,574,o),
(60,571,o),
(70,566,cs),
(77,562,o),
(90,554,o),
(97,547,c),
(147,512,l),
(165,503,l),
(167,500,o),
(175,503,o),
(140,433,cs),
(91,331,l),
(71,285,ls),
(65,269,o),
(59,254,o),
(59,251,c),
(57,243,o),
(65,229,o),
(75,224,cs)
);
},
{
closed = 1;
nodes = (
(190,560,o),
(136,595,o),
(136,596,c),
(134,597,o),
(195,640,o),
(225,661,cs),
(250,676,o),
(274,693,o),
(277,693,c),
(264,673,ls),
(246,648,o),
(216,601,o),
(202,578,cs),
(192,560,l)
);
},
{
closed = 1;
nodes = (
(277,520,l),
(246,532,l),
(253,546,ls),
(269,573,o),
(329,660,o),
(334,661,c),
(334,661,o),
(332,648,o),
(328,633,cs),
(319,596,o),
(306,522,o),
(308,514,c),
(308,511,o),
(308,507,o),
(307,507,c)
);
}
);
width = 469;
}
);
unicode = 8599;
},
{
glyphname = rightArrow;
lastChange = "2026-02-25 11:32:41 +0000";
layers = (
{
layerId = m01;
shapes = (
{
closed = 1;
nodes = (
(612,282,o),
(608,287,o),
(606,295,c),
(602,305,o),
(605,310,o),
(621,326,c),
(636,341,o),
(647,349,o),
(682,370,c),
(708,385,o),
(733,404,o),
(743,415,c),
(750,422,l),
(686,422,l),
(649,422,o),
(597,421,o),
(567,420,c),
(537,418,o),
(437,418,o),
(344,420,c),
(175,420,l),
(164,408,l),
(152,398,o),
(120,374,o),
(110,368,c),
(106,367,o),
(100,365,o),
(94,364,c),
(79,361,o),
(71,366,o),
(66,376,c),
(62,388,o),
(64,396,o),
(71,400,c),
(74,402,o),
(82,410,o),
(89,417,c),
(96,424,o),
(108,432,o),
(113,436,c),
(122,441,o),
(125,444,o),
(125,448,c),
(125,452,o),
(122,454,o),
(116,458,c),
(95,471,o),
(56,504,o),
(53,512,c),
(47,524,o),
(50,536,o),
(62,543,c),
(74,550,o),
(80,548,o),
(110,525,c),
(140,503,o),
(161,485,o),
(167,476,c),
(173,468,l),
(241,470,l),
(279,470,o),
(370,471,o),
(442,471,c),
(522,471,o),
(597,472,o),
(630,473,c),
(661,474,o),
(703,476,o),
(725,477,c),
(746,478,o),
(765,479,o),
(766,480,c),
(768,481,o),
(751,495,o),
(737,503,c),
(729,508,o),
(705,521,o),
(684,534,c),
(663,548,o),
(636,562,o),
(625,568,c),
(600,581,o),
(596,585,o),
(594,597,c),
(592,607,o),
(597,615,o),
(606,620,c),
(612,623,o),
(615,623,o),
(621,623,c),
(628,621,o),
(657,606,o),
(687,589,c),
(697,583,o),
(720,570,o),
(737,561,c),
(780,540,o),
(796,529,o),
(810,518,c),
(837,495,o),
(847,471,o),
(837,447,c),
(823,410,o),
(773,361,o),
(709,321,c),
(695,313,o),
(676,301,o),
(664,294,c),
(648,282,o),
(642,280,o),
(638,280,c),
(633,280,o),
(630,280,o),
(628,279,c),
(625,279,o),
(622,279,o),
(618,280,c)
);
}
);
width = 891;
}
);
unicode = 8594;
},
{
glyphname = southEastArrow;
lastChange = "2026-02-25 11:24:37 +0000";
layers = (
{
layerId = m01;
shapes = (
{
closed = 1;
nodes = (
(55,753,o),
(51,747,o),
(50,737,cs),
(49,728,o),
(50,724,o),
(56,708,c),
(84,659,l),
(171,490,l),
(172,488,o),
(151,477,o),
(125,462,cs),
(100,450,o),
(76,436,o),
(73,433,c),
(68,429,o),
(67,425,o),
(65,418,cs),
(61,402,o),
(64,398,o),
(81,382,cs),
(92,373,o),
(98,362,o),
(108,349,cs),
(115,337,o),
(134,313,o),
(148,296,cs),
(164,277,o),
(185,248,o),
(198,229,cs),
(230,184,o),
(237,176,o),
(261,156,cs),
(288,135,o),
(289,134,o),
(311,141,cs),
(319,143,o),
(322,145,o),
(325,150,cs),
(330,155,ls),
(338,167,o),
(348,194,o),
(355,222,cs),
(360,242,o),
(380,410,o),
(382,448,cs),
(387,529,o),
(383,544,o),
(358,549,c),
(350,551,o),
(345,550,o),
(335,545,cs),
(327,543,o),
(313,537,o),
(303,536,c),
(244,519,l),
(226,511,l),
(223,511,o),
(220,503,o),
(187,574,cs),
(139,677,l),
(115,721,ls),
(107,736,o),
(99,750,o),
(96,752,c),
(91,758,o),
(76,761,o),
(65,756,cs)
);
},
{
closed = 1;
nodes = (
(255,456,o),
(316,476,o),
(317,475,c),
(319,476,o),
(314,402,o),
(312,365,cs),
(308,336,o),
(306,307,o),
(304,305,c),
(296,327,ls),
(288,357,o),
(270,410,o),
(261,435,cs),
(254,454,l)
);
},
{
closed = 1;
nodes = (
(169,413,l),
(198,430,l),
(204,416,ls),
(215,386,o),
(245,285,o),
(243,280,c),
(243,280,o),
(234,290,o),
(225,303,cs),
(202,333,o),
(152,389,o),
(145,393,c),
(143,395,o),
(140,397,o),
(140,398,c)
);
}
);
width = 434;
}
);
unicode = 8600;
},
{
glyphname = downArrow;
lastChange = "2026-02-25 11:34:06 +0000";
layers = (
{
layerId = m01;
shapes = (
{
closed = 1;
nodes = (
(209,135,o),
(218,138,o),
(222,140,cs),
(229,143,o),
(241,155,o),
(257,175,cs),
(268,190,o),
(281,206,o),
(299,227,cs),
(306,235,o),
(314,245,o),
(322,254,cs),
(334,269,o),
(336,275,o),
(335,282,cs),
(335,285,o),
(334,290,o),
(333,292,cs),
(327,303,o),
(313,309,o),
(301,302,c),
(298,301,o),
(295,298,o),
(284,286,cs),
(274,276,o),
(266,267,o),
(256,256,cs),
(253,253,o),
(248,247,o),
(243,242,cs),
(239,237,o),
(234,231,o),
(230,227,cs),
(228,225,o),
(224,221,o),
(223,220,cs),
(228,225,l),
(228,213,l),
(228,213,o),
(227,215,o),
(226,231,cs),
(226,236,o),
(226,244,o),
(225,256,cs),
(225,259,o),
(225,267,o),
(225,274,cs),
(224,288,o),
(224,304,o),
(224,318,cs),
(223,362,o),
(223,371,o),
(225,428,cs),
(227,463,o),
(227,491,o),
(228,549,cs),
(228,561,o),
(228,578,o),
(228,594,cs),
(228,645,o),
(228,693,o),
(228,701,cs),
(229,710,l),
(228,710,l),
(231,712,o),
(242,721,o),
(250,728,c),
(250,728,o),
(252,729,o),
(253,730,cs),
(257,734,o),
(267,744,o),
(275,754,cs),
(290,769,o),
(296,777,o),
(297,780,cs),
(299,784,o),
(300,792,o),
(298,797,cs),
(296,805,o),
(288,812,o),
(283,813,cs),
(274,816,o),
(265,813,o),
(260,808,cs),
(259,807,o),
(252,801,o),
(244,794,cs),
(217,767,o),
(216,766,o),
(210,767,cs),
(205,768,o),
(197,773,o),
(189,780,c),
(188,782,o),
(185,785,o),
(183,787,cs),
(180,790,o),
(179,792,o),
(177,795,cs),
(166,808,o),
(159,813,o),
(147,813,cs),
(138,813,o),
(133,809,o),
(128,804,cs),
(123,800,o),
(119,793,o),
(118,789,cs),
(117,781,o),
(119,771,o),
(125,764,cs),
(135,751,o),
(151,735,o),
(162,725,cs),
(169,719,o),
(174,715,o),
(180,713,c),
(179,714,l),
(179,711,ls),
(178,698,o),
(178,678,o),
(178,665,c),
(183,734,o),
(172,608,o),
(172,503,cs),
(172,422,o),
(172,422,o),
(169,380,cs),
(167,344,o),
(166,278,o),
(168,214,cs),
(168,211,o),
(168,207,o),
(168,205,c),
(178,210,l),
(164,221,o),
(148,233,o),
(144,237,cs),
(141,240,o),
(130,251,o),
(120,261,cs),
(109,270,o),
(103,277,o),
(99,282,c),
(99,282,o),
(97,283,o),
(97,283,c),
(86,292,o),
(73,296,o),
(61,290,c),
(52,287,o),
(48,280,o),
(45,271,cs),
(44,269,o),
(44,265,o),
(44,261,cs),
(44,256,o),
(44,254,o),
(47,248,cs),
(49,244,o),
(52,240,o),
(61,231,cs),
(98,197,o),
(153,152,o),
(170,143,cs),
(177,139,o),
(193,135,o),
(203,135,cs)
);
}
);
width = 379;
}
);
unicode = 8595;
},
{
glyphname = southWestArrow;
lastChange = "2026-02-25 11:25:51 +0000";
layers = (
{
layerId = m01;
shapes = (
{
closed = 1;
nodes = (
(363,749,o),
(356,748,o),
(349,742,cs),
(341,737,o),
(339,733,o),
(331,719,c),
(313,665,l),
(246,487,l),
(245,485,o),
(222,494,o),
(194,502,cs),
(168,513,o),
(142,522,o),
(138,523,c),
(131,523,o),
(128,521,o),
(121,519,cs),
(106,511,o),
(105,506,o),
(105,482,cs),
(105,468,o),
(101,457,o),
(98,440,cs),
(94,427,o),
(89,397,o),
(85,375,cs),
(81,350,o),
(74,315,o),
(68,293,cs),
(56,239,o),
(56,229,o),
(56,197,cs),
(59,163,o),
(59,162,o),
(79,150,cs),
(85,145,o),
(89,145,o),
(95,146,cs),
(102,145,ls),
(116,147,o),
(142,158,o),
(169,172,cs),
(186,181,o),
(325,278,o),
(354,302,cs),
(419,353,o),
(427,365,o),
(414,388,c),
(410,394,o),
(405,397,o),
(395,402,cs),
(389,406,o),
(375,413,o),
(367,419,c),
(315,453,l),
(297,461,l),
(296,463,o),
(287,459,o),
(318,532,cs),
(363,636,l),
(380,683,ls),
(386,700,o),
(391,715,o),
(390,718,c),
(392,726,o),
(384,739,o),
(373,744,cs)
);
},
{
closed = 1;
nodes = (
(276,403,o),
(332,370,o),
(332,368,c),
(334,367,o),
(275,322,o),
(246,299,cs),
(222,283,o),
(199,264,o),
(196,265,c),
(207,286,ls),
(224,312,o),
(251,360,o),
(264,384,cs),
(274,401,l)
);
},
{
closed = 1;
nodes = (
(186,437,l),
(219,428,l),
(212,413,ls),
(197,385,o),
(141,295,o),
(136,293,c),
(136,293,o),
(138,307,o),
(142,323,cs),
(149,360,o),
(157,434,o),
(156,442,c),
(156,444,o),
(155,448,o),
(155,449,c)
);
}
);
width = 469;
}
);
unicode = 8601;
},
{
glyphname = leftArrow;
lastChange = "2026-02-23 10:14:53 +0000";
layers = (
{
layerId = m01;
shapes = (
{
closed = 1;
nodes = (
(266,309,o),
(250,317,o),
(236,326,c),
(222,336,o),
(200,348,o),
(160,368,c),
(141,378,o),
(116,391,o),
(105,398,c),
(92,407,o),
(82,412,o),
(75,413,c),
(52,418,o),
(44,436,o),
(56,454,c),
(70,476,o),
(149,553,o),
(213,607,c),
(223,615,o),
(237,627,o),
(244,632,c),
(258,644,o),
(265,647,o),
(276,642,c),
(283,638,o),
(290,629,o),
(290,621,c),
(290,609,o),
(288,606,o),
(225,552,c),
(204,533,o),
(179,510,o),
(170,500,c),
(155,484,o),
(154,482,o),
(158,483,c),
(168,484,o),
(214,489,o),
(238,491,c),
(289,495,o),
(325,495,o),
(369,492,c),
(406,489,o),
(424,489,o),
(503,490,c),
(554,491,o),
(621,491,o),
(653,492,c),
(712,492,l),
(739,514,l),
(772,540,o),
(807,566,o),
(812,568,c),
(823,572,o),
(837,564,o),
(841,552,c),
(844,540,o),
(841,533,o),
(824,519,c),
(782,484,o),
(762,466,o),
(763,465,c),
(764,464,o),
(772,461,o),
(781,457,c),
(801,450,o),
(810,444,o),
(817,434,c),
(825,422,o),
(825,414,o),
(817,406,c),
(808,397,o),
(805,397,o),
(778,403,c),
(760,408,o),
(750,412,o),
(732,420,c),
(714,427,o),
(694,440,o),
(676,439,c),
(668,439,o),
(624,437,o),
(579,436,c),
(495,433,o),
(428,434,o),
(334,438,c),
(313,439,o),
(282,440,o),
(266,439,c),
(234,438,o),
(160,433,o),
(159,432,c),
(159,432,o),
(174,424,o),
(193,415,c),
(211,406,o),
(235,393,o),
(245,387,c),
(256,380,o),
(273,370,o),
(282,365,c),
(302,353,o),
(308,348,o),
(314,338,c),
(321,325,o),
(319,310,o),
(308,305,c),
(299,301,o),
(296,301,o),
(283,305,c)
);
}
);
width = 892;
}
);
unicode = 8592;
},
{
glyphname = northWestArrow;
lastChange = "2026-02-25 11:10:25 +0000";
layers = (
{
layerId = m01;
shapes = (
{
closed = 1;
nodes = (
(385,197,o),
(389,203,o),
(391,213,cs),
(391,221,o),
(390,226,o),
(383,241,c),
(355,290,l),
(266,457,l),
(265,459,o),
(285,471,o),
(311,486,cs),
(336,499,o),
(360,513,o),
(362,516,c),
(368,520,o),
(368,524,o),
(370,532,cs),
(374,547,o),
(371,552,o),
(354,567,cs),
(343,576,o),
(336,587,o),
(326,600,cs),
(319,611,o),
(300,635,o),
(286,652,cs),
(269,670,o),
(248,700,o),
(234,718,cs),
(202,762,o),
(195,770,o),
(170,790,cs),
(143,811,o),
(142,811,o),
(120,804,cs),
(112,802,o),
(109,800,o),
(106,795,cs),
(101,790,ls),
(94,778,o),
(83,751,o),
(77,723,cs),
(73,703,o),
(55,534,o),
(53,496,cs),
(50,415,o),
(55,400,o),
(79,396,c),
(88,393,o),
(92,395,o),
(102,400,cs),
(110,403,o),
(124,408,o),
(134,409,c),
(192,427,l),
(211,436,l),
(214,435,o),
(217,444,o),
(250,373,cs),
(301,272,l),
(325,227,ls),
(334,213,o),
(342,199,o),
(344,197,c),
(349,191,o),
(365,188,o),
(375,193,cs)
);
},
{
closed = 1;
nodes = (
(181,490,o),
(120,469,o),
(119,470,c),
(117,469,o),
(121,544,o),
(123,580,cs),
(126,609,o),
(128,639,o),
(130,641,c),
(137,618,ls),
(146,589,o),
(165,536,o),
(174,511,cs),
(182,492,l)
);
},
{
closed = 1;
nodes = (
(266,534,l),
(238,517,l),
(231,532,ls),
(219,561,o),
(188,662,o),
(190,666,c),
(190,666,o),
(199,657,o),
(208,644,cs),
(232,614,o),
(282,559,o),
(290,555,c),
(292,553,o),
(295,551,o),
(295,550,c)
);
}
);
width = 441;
}
);
unicode = 8598;
},
{
glyphname = leftRightArrow;
lastChange = "2026-02-25 11:22:10 +0000";
layers = (
{
layerId = m01;
shapes = (
{
closed = 1;
nodes = (
(217,355,o),
(212,357,o),
(179,368,c),
(135,383,o),
(88,409,o),
(67,430,c),
(60,436,o),
(54,445,o),
(52,456,c),
(50,462,o),
(50,465,o),
(51,470,c),
(54,486,o),
(71,503,o),
(105,525,c),
(117,533,o),
(144,551,o),
(164,563,c),
(210,594,o),
(210,594,o),
(217,594,c),
(234,594,o),
(244,575,o),
(233,562,c),
(231,559,o),
(224,554,o),
(217,551,c),
(203,541,o),
(134,492,o),
(134,491,c),
(135,490,o),
(230,500,o),
(274,505,c),
(299,508,o),
(323,510,o),
(328,511,c),
(333,512,o),
(386,512,o),
(446,512,c),
(536,512,o),
(561,513,o),
(588,515,c),
(606,516,o),
(631,517,o),
(643,517,c),
(660,518,o),
(664,518,o),
(662,519,c),
(661,520,o),
(645,530,o),
(627,540,c),
(607,551,o),
(593,560,o),
(590,563,c),
(580,574,o),
(584,591,o),
(599,596,c),
(602,598,o),
(604,598,o),
(609,597,c),
(617,594,o),
(702,550,o),
(724,536,c),
(740,525,o),
(744,522,o),
(752,511,c),
(764,495,o),
(765,485,o),
(756,467,c),
(747,450,o),
(738,443,o),
(686,411,c),
(673,403,o),
(651,389,o),
(638,381,c),
(607,361,o),
(599,357,o),
(590,357,c),
(576,357,o),
(563,370,o),
(563,384,c),
(563,390,o),
(567,399,o),
(571,403,c),
(573,405,o),
(584,412,o),
(597,419,c),
(609,427,o),
(626,437,o),
(633,441,c),
(640,446,o),
(651,452,o),
(656,456,c),
(668,462,l),
(650,462,l),
(641,462,o),
(608,461,o),
(577,460,c),
(531,458,o),
(514,458,o),
(468,459,c),
(336,463,o),
(334,463,o),
(276,458,c),
(224,454,o),
(206,452,o),
(156,450,c),
(141,449,o),
(130,449,o),
(130,448,c),
(129,448,o),
(151,436,o),
(164,431,c),
(171,427,o),
(191,420,o),
(209,414,c),
(242,403,o),
(248,400,o),
(252,394,c),
(263,377,o),
(252,356,o),
(232,353,c),
(230,353,o),
(225,353,o),
(222,354,c)
);
}
);
width = 812;
}
);
unicode = 8596;
},
{
glyphname = upDownArrow;
lastChange = "2026-02-25 11:49:19 +0000";
layers = (
{
layerId = m01;
shapes = (
{
closed = 1;
nodes = (
(289,270,o),
(287,265,o),
(274,232,c),
(258,189,o),
(230,143,o),
(208,123,c),
(202,116,o),
(192,111,o),
(181,109,c),
(175,107,o),
(172,107,o),
(167,109,c),
(151,112,o),
(135,130,o),
(114,165,c),
(107,177,o),
(90,205,o),
(79,225,c),
(50,273,o),
(50,273,o),
(50,280,c),
(51,297,o),
(70,306,o),
(83,294,c),
(86,292,o),
(91,285,o),
(93,278,c),
(103,264,o),
(149,193,o),
(150,192,c),
(151,193,o),
(145,289,o),
(142,333,c),
(140,358,o),
(139,382,o),
(138,387,c),
(137,392,o),
(139,445,o),
(142,505,c),
(146,595,o),
(146,620,o),
(145,647,c),
(145,665,o),
(145,690,o),
(145,702,c),
(145,719,o),
(145,723,o),
(144,721,c),
(143,720,o),
(132,705,o),
(122,687,c),
(110,668,o),
(100,654,o),
(97,651,c),
(86,642,o),
(69,646,o),
(64,662,c),
(63,665,o),
(63,667,o),
(64,672,c),
(67,679,o),
(115,762,o),
(130,784,c),
(141,799,o),
(145,803,o),
(156,811,c),
(172,822,o),
(182,823,o),
(200,813,c),
(217,803,o),
(223,794,o),
(253,741,c),
(260,727,o),
(273,705,o),
(281,691,c),
(300,660,o),
(303,651,o),
(303,642,c),
(302,628,o),
(289,616,o),
(275,617,c),
(269,617,o),
(260,621,o),
(256,625,c),
(254,627,o),
(248,639,o),
(241,652,c),
(234,664,o),
(224,682,o),
(221,689,c),
(216,696,o),
(211,707,o),
(207,713,c),
(201,725,l),
(200,707,l),
(200,698,o),
(200,665,o),
(199,634,c),
(199,588,o),
(199,571,o),
(196,525,c),
(186,393,o),
(186,391,o),
(189,333,c),
(190,281,o),
(192,263,o),
(192,213,c),
(192,198,o),
(191,187,o),
(192,187,c),
(192,186,o),
(205,207,o),
(211,220,c),
(215,227,o),
(223,246,o),
(230,264,c),
(242,297,o),
(245,303,o),
(252,306,c),
(269,317,o),
(290,305,o),
(292,285,c),
(292,283,o),
(291,278,o),
(290,275,c)
);
}
);
width = 353;
}
);
unicode = 8597;
},
{
glyphname = dieresiscomb;
lastChange = "2026-02-24 09:20:08 +0000";
layers = (
{
anchors = (
{
name = _top;
pos = (195,500);
},
{
name = top;
pos = (195,929);
}
);
layerId = m01;
shapes = (
{
closed = 1;
nodes = (
(44,829,o),
(57,832,o),
(68,835,c),
(82,844,o),
(91,857,o),
(93,873,c),
(94,889,o),
(87,902,o),
(68,910,c),
(53,917,o),
(38,919,o),
(31,914,c),
(9,907,o),
(3,875,o),
(6,867,c),
(9,852,o),
(18,839,o),
(34,833,c)
);
},
{
closed = 1;
nodes = (
(253,844,o),
(269,845,o),
(278,850,c),
(284,854,o),
(293,863,o),
(297,869,c),
(303,882,o),
(306,902,o),
(301,910,c),
(297,920,o),
(276,929,o),
(259,929,c),
(247,929,o),
(237,925,o),
(228,917,c),
(222,908,o),
(219,904,o),
(219,885,c),
(219,873,o),
(219,870,o),
(224,864,c),
(228,857,o),
(237,850,o),
(244,848,c)
);
}
);
width = 400;
}
);
unicode = 776;
},
{
glyphname = dotaccentcomb;
lastChange = "2026-02-24 09:20:08 +0000";
layers = (
{
anchors = (
{
name = _top;
pos = (200,500);
},
{
name = top;
pos = (200,923);
}
);
layerId = m01;
shapes = (
{
closed = 1;
nodes = (
(193,845,o),
(203,842,o),
(215,845,c),
(228,849,o),
(235,854,o),
(240,864,c),
(244,871,o),
(244,874,o),
(244,882,c),
(240,935,o),
(176,922,o),
(172,920,c),
(166,918,o),
(161,913,o),
(158,905,c),
(155,899,o),
(155,896,o),
(156,887,c),
(158,863,o),
(171,852,o),
(193,845,c)
);
}
);
width = 400;
}
);
unicode = 775;
},
{
glyphname = gravecomb;
lastChange = "2026-02-23 11:51:56 +0000";
layers = (
{
anchors = (
{
name = _top;
pos = (190,500);
},
{
name = top;
pos = (190,940);
}
);
layerId = m01;
shapes = (
{
closed = 1;
nodes = (
(317,825,o),
(310,826,o),
(303,829,c),
(275,838,o),
(196,857,o),
(168,861,c),
(148,864,o),
(121,869,o),
(92,877,c),
(76,880,o),
(53,886,o),
(39,889,c),
(19,894,o),
(15,895,o),
(11,899,c),
(0,908,o),
(-1,922,o),
(9,932,c),
(17,941,o),
(24,942,o),
(50,937,c),
(75,932,o),
(132,921,o),
(141,920,c),
(146,920,o),
(161,918,o),
(175,916,c),
(205,912,o),
(225,910,o),
(252,904,c),
(261,902,o),
(278,898,o),
(286,896,c),
(296,895,o),
(312,890,o),
(322,886,c),
(339,881,o),
(341,880,o),
(346,874,c),
(356,863,o),
(357,849,o),
(349,837,c),
(343,827,o),
(329,822,o),
(319,824,c)
);
}
);
width = 400;
}
);
unicode = 768;
},
{
glyphname = acutecomb;
lastChange = "2026-02-24 09:20:08 +0000";
layers = (
{
anchors = (
{
name = _top;
pos = (192,500);
},
{
name = top;
pos = (192,957);
}
);
layerId = m01;
shapes = (
{
closed = 1;
nodes = (
(28,813,o),
(44,818,o),
(61,825,c),
(126,848,o),
(148,855,o),
(187,864,c),
(202,867,o),
(231,873,o),
(251,878,c),
(272,884,o),
(301,893,o),
(317,895,c),
(345,902,o),
(348,904,o),
(353,910,c),
(361,916,o),
(362,921,o),
(362,929,c),
(362,946,o),
(347,958,o),
(330,957,c),
(315,954,o),
(259,940,o),
(207,924,c),
(203,923,o),
(187,919,o),
(172,915,c),
(159,911,o),
(139,906,o),
(131,902,c),
(116,898,o),
(79,882,o),
(54,872,c),
(44,867,o),
(31,861,o),
(25,859,c),
(19,857,o),
(11,853,o),
(10,852,c),
(-2,840,o),
(2,821,o),
(16,814,c),
(20,814,o),
(23,813,o),
(25,813,c)
);
}
);
width = 400;
}
);
unicode = 769;
},
{
glyphname = hungarumlautcomb;
lastChange = "2026-02-24 09:20:08 +0000";
layers = (
{
layerId = m01;
shapes = (
{
closed = 1;
nodes = (
(193,817,o),
(196,817,o),
(200,821,c),
(205,823,o),
(208,826,o),
(220,846,c),
(226,858,o),
(232,867,o),
(241,882,c),
(251,898,o),
(254,904,o),
(260,914,c),
(265,924,o),
(266,927,o),
(266,932,c),
(267,935,o),
(266,940,o),
(265,944,c),
(260,950,o),
(253,956,o),
(245,957,c),
(241,958,o),
(234,956,o),
(231,954,c),
(226,950,o),
(225,948,o),
(216,936,c),
(212,927,o),
(205,918,o),
(199,907,c),
(189,895,o),
(182,887,o),
(169,866,c),
(160,852,o),
(159,848,o),
(159,839,c),
(160,836,o),
(160,835,o),
(163,832,c),
(167,822,o),
(177,815,o),
(189,816,c)
);
},
{
closed = 1;
nodes = (
(68,833,o),
(73,834,o),
(76,835,c),
(82,836,o),
(84,839,o),
(98,854,c),
(102,859,o),
(105,863,o),
(116,877,c),
(128,890,o),
(133,895,o),
(142,907,c),
(153,923,o),
(155,926,o),
(155,935,c),
(155,938,o),
(155,939,o),
(154,942,c),
(150,949,o),
(145,956,o),
(137,958,c),
(134,959,o),
(133,959,o),
(128,959,c),
(124,959,o),
(122,958,o),
(117,957,c),
(112,954,o),
(110,950,o),
(99,936,c),
(93,927,o),
(86,916,o),
(72,899,c),
(61,883,o),
(51,870,o),
(49,867,c),
(49,866,o),
(48,863,o),
(48,861,c),
(47,858,o),
(47,852,o),
(48,850,c),
(49,841,o),
(57,835,o),
(66,834,c)
);
}
);
width = 300;
}
);
unicode = 779;
},
{
glyphname = caroncomb.alt;
lastChange = "2026-02-24 09:20:08 +0000";
layers = (
{
layerId = m01;
shapes = (
{
closed = 1;
nodes = (
(120,824,o),
(125,825,o),
(128,826,c),
(134,827,o),
(136,830,o),
(150,845,c),
(154,850,o),
(157,854,o),
(168,868,c),
(180,881,o),
(185,886,o),
(194,898,c),
(205,914,o),
(207,917,o),
(207,926,c),
(207,929,o),
(207,930,o),
(206,933,c),
(202,940,o),
(197,947,o),
(189,949,c),
(186,950,o),
(185,950,o),
(180,950,c),
(176,950,o),
(174,949,o),
(169,948,c),
(164,945,o),
(162,941,o),
(151,927,c),
(145,918,o),
(138,907,o),
(124,890,c),
(113,874,o),
(103,861,o),
(101,858,c),
(101,857,o),
(100,854,o),
(100,852,c),
(99,849,o),
(99,843,o),
(100,841,c),
(101,832,o),
(109,826,o),
(118,825,c)
);
}
);
width = 300;
}
);
},
{
glyphname = circumflexcomb;
lastChange = "2026-02-24 09:20:08 +0000";
layers = (
{
anchors = (
{
name = _top;
pos = (196,500);
},
{
name = top;
pos = (196,945);
}
);
layerId = m01;
shapes = (
{
closed = 1;
nodes = (
(34,818,o),
(37,819,o),
(43,822,c),
(48,826,o),
(68,839,o),
(88,851,c),
(137,882,o),
(159,896,o),
(165,897,c),
(169,898,o),
(172,898,o),
(176,896,c),
(189,892,o),
(215,872,o),
(241,846,c),
(264,823,o),
(268,821,o),
(280,821,c),
(303,821,o),
(317,844,o),
(304,861,c),
(282,891,o),
(231,930,o),
(198,942,c),
(182,947,o),
(153,945,o),
(137,938,c),
(128,934,o),
(98,915,o),
(77,899,c),
(68,892,o),
(50,879,o),
(35,869,c),
(7,848,o),
(3,845,o),
(5,835,c),
(6,828,o),
(8,823,o),
(15,820,c),
(19,817,o),
(22,817,o),
(28,817,c)
);
}
);
width = 400;
}
);
unicode = 770;
},
{
glyphname = caroncomb;
lastChange = "2026-02-24 11:09:52 +0000";
layers = (
{
layerId = m01;
shapes = (
{
closed = 1;
nodes = (
(122,810,o),
(150,815,o),
(164,824,cs),
(170,828,o),
(194,848,o),
(210,864,cs),
(217,871,o),
(232,884,o),
(244,894,cs),
(267,915,o),
(270,921,o),
(268,931,c),
(266,936,o),
(260,944,o),
(255,946,cs),
(251,948,o),
(245,948,o),
(240,947,cs),
(235,946,o),
(230,944,o),
(225,939,cs),
(224,938,o),
(221,935,o),
(218,932,cs),
(210,926,o),
(201,919,o),
(190,909,cs),
(180,901,o),
(170,892,o),
(162,886,cs),
(142,870,o),
(134,864,o),
(130,862,cs),
(128,861,o),
(127,861,o),
(124,862,cs),
(112,865,o),
(88,878,o),
(63,897,cs),
(41,915,o),
(35,918,o),
(23,916,cs),
(2,913,o),
(-10,887,o),
(5,872,cs),
(28,848,o),
(79,819,o),
(108,813,cs)
);
}
);
width = 300;
}
);
unicode = 780;
},
{
glyphname = brevecomb;
lastChange = "2026-02-24 09:20:08 +0000";
layers = (
{
layerId = m01;
shapes = (
{
closed = 1;
nodes = (
(152,807,o),
(167,810,o),
(179,816,c),
(199,825,o),
(214,846,o),
(222,871,c),
(225,885,o),
(228,906,o),
(227,914,c),
(227,921,o),
(224,928,o),
(218,933,c),
(206,946,o),
(184,944,o),
(174,929,c),
(170,923,o),
(169,920,o),
(166,899,c),
(165,888,o),
(164,886,o),
(162,880,c),
(160,875,o),
(155,872,o),
(151,870,c),
(142,865,o),
(134,867,o),
(128,874,c),
(122,883,o),
(119,890,o),
(118,899,c),
(117,902,o),
(116,906,o),
(115,908,c),
(113,921,o),
(104,928,o),
(93,928,c),
(88,928,o),
(86,926,o),
(83,924,c),
(77,921,o),
(73,917,o),
(70,909,c),
(68,899,o),
(73,873,o),
(83,854,c),
(95,829,o),
(116,812,o),
(139,809,c)
);
}
);
width = 300;
}
);
unicode = 774;
},
{
glyphname = ringcomb;
lastChange = "2026-02-24 09:20:08 +0000";
layers = (
{
anchors = (
{
name = _top;
pos = (198,500);
},
{
name = top;
pos = (198,945);
}
);
layerId = m01;
shapes = (
{
closed = 1;
nodes = (
(193,825,o),
(202,827,o),
(213,830,c),
(226,835,o),
(233,839,o),
(241,847,c),
(249,854,o),
(254,863,o),
(258,872,c),
(259,877,o),
(260,881,o),
(260,890,c),
(260,900,o),
(260,902,o),
(257,909,c),
(250,924,o),
(242,931,o),
(223,941,c),
(217,944,o),
(211,945,o),
(205,945,c),
(189,945,o),
(175,937,o),
(168,933,c),
(157,925,o),
(148,914,o),
(142,903,c),
(134,885,o),
(133,871,o),
(141,855,c),
(145,849,o),
(154,839,o),
(160,836,c),
(166,832,o),
(177,828,o),
(184,827,c)
);
},
{
closed = 1;
nodes = (
(195,868,o),
(188,869,o),
(181,873,c),
(177,875,o),
(175,879,o),
(175,883,c),
(175,888,o),
(177,891,o),
(182,899,c),
(186,902,o),
(191,904,o),
(196,904,c),
(199,904,o),
(202,903,o),
(205,903,c),
(213,900,o),
(215,893,o),
(212,883,c),
(210,877,o),
(207,873,o),
(202,871,c)
);
}
);
width = 400;
}
);
unicode = 778;
},
{
glyphname = tildecomb;
lastChange = "2026-02-24 09:20:08 +0000";
layers = (
{
anchors = (
{
name = _top;
pos = (198,500);
},
{
name = top;
pos = (198,915);
}
);
layerId = m01;
shapes = (
{
closed = 1;
nodes = (
(102,838,o),
(106,840,o),
(115,848,c),
(130,862,o),
(146,869,o),
(162,868,c),
(172,868,o),
(173,867,o),
(191,855,c),
(205,845,o),
(213,842,o),
(224,839,c),
(240,835,o),
(259,837,o),
(276,845,c),
(292,853,o),
(314,872,o),
(318,881,c),
(321,891,o),
(319,899,o),
(313,906,c),
(308,912,o),
(302,915,o),
(294,915,c),
(286,915,o),
(282,913,o),
(271,902,c),
(259,892,o),
(248,887,o),
(238,887,c),
(232,887,o),
(230,887,o),
(223,891,c),
(189,910,o),
(183,912,o),
(162,912,c),
(147,912,o),
(141,910,o),
(124,902,c),
(103,891,o),
(80,871,o),
(78,862,c),
(74,849,o),
(83,838,o),
(96,838,c)
);
}
);
width = 400;
}
);
unicode = 771;
},
{
glyphname = macroncomb;
lastChange = "2026-02-24 09:20:08 +0000";
layers = (
{
layerId = m01;
shapes = (
{
closed = 1;
nodes = (
(119,853,o),
(152,853,o),
(161,854,c),
(169,854,o),
(187,856,o),
(204,856,c),
(235,857,o),
(239,857,o),
(245,864,c),
(251,867,o),
(255,874,o),
(255,882,c),
(256,892,o),
(251,903,o),
(240,908,c),
(235,911,o),
(235,911,o),
(220,911,c),
(202,911,o),
(192,909,o),
(159,906,c),
(134,903,o),
(87,899,o),
(46,897,c),
(30,897,o),
(26,896,o),
(22,894,c),
(6,887,o),
(6,863,o),
(24,854,c),
(27,853,o),
(31,853,o),
(87,853,c)
);
}
);
width = 400;
}
);
unicode = 772;
},
{
glyphname = commaaccentcomb;
lastChange = "2026-02-24 09:20:08 +0000";
layers = (
{
layerId = m01;
shapes = (
{
closed = 1;
nodes = (
(112,-14,o),
(116,-10,o),
(137,17,cs),
(146,29,o),
(154,41,o),
(160,50,cs),
(162,53,o),
(164,55,o),
(165,56,c),
(173,69,l),
(186,86,o),
(188,91,o),
(185,100,cs),
(184,104,o),
(180,114,o),
(173,118,cs),
(164,125,o),
(149,124,o),
(139,120,cs),
(134,118,o),
(132,116,o),
(126,108,cs),
(122,102,o),
(122,103,o),
(120,99,cs),
(119,96,o),
(118,93,o),
(114,85,cs),
(107,71,o),
(91,45,o),
(77,24,cs),
(72,16,o),
(70,13,o),
(69,11,c),
(69,11,o),
(69,10,o),
(69,10,c),
(68,7,l),
(67,-12,o),
(86,-29,o),
(109,-15,c)
);
}
);
width = 300;
}
);
unicode = 806;
},
{
glyphname = cedillacomb;
lastChange = "2026-02-24 11:49:01 +0000";
layers = (
{
anchors = (
{
name = _bottom;
pos = (233,0);
},
{
name = bottom;
pos = (233,-13);
}
);
layerId = m01;
shapes = (
{
closed = 1;
nodes = (
(220,-13,o),
(220,-13,o),
(230,-12,c),
(255,-10,o),
(280,5,o),
(292,24,c),
(297,34,o),
(300,46,o),
(296,55,c),
(292,74,o),
(280,84,o),
(254,87,c),
(240,92,o),
(227,97,o),
(227,116,c),
(226,125,o),
(225,130,o),
(223,131,c),
(217,137,o),
(203,137,o),
(197,134,c),
(192,130,o),
(191,125,o),
(191,113,c),
(191,100,o),
(192,86,o),
(196,80,c),
(204,61,o),
(223,57,o),
(246,53,c),
(250,53,o),
(273,48,o),
(243,34,c),
(233,31,o),
(224,31,o),
(217,34,c),
(212,38,o),
(196,51,o),
(183,47,c),
(175,44,o),
(169,38,o),
(168,29,c),
(167,23,o),
(169,17,o),
(176,9,c),
(185,-4,o),
(196,-10,o),
(211,-12,c)
);
}
);
width = 400;
}
);
unicode = 807;
},
{
glyphname = ogonekcomb;
lastChange = "2026-02-25 14:12:45 +0000";
layers = (
{
layerId = m01;
shapes = (
{
closed = 1;
nodes = (
(168,-1,o),
(186,1,o),
(198,7,c),
(212,14,o),
(214,16,o),
(220,29,c),
(224,36,o),
(224,37,o),
(224,43,c),
(223,48,o),
(223,49,o),
(221,53,c),
(217,58,o),
(212,61,o),
(205,61,c),
(197,61,o),
(192,58,o),
(186,48,c),
(181,40,o),
(182,41,o),
(174,39,c),
(167,37,o),
(163,38,o),
(158,42,c),
(151,50,o),
(151,56,o),
(157,77,c),
(171,111,o),
(171,126,o),
(165,131,c),
(160,138,o),
(145,139,o),
(139,131,c),
(130,122,o),
(125,100,o),
(122,95,c),
(114,74,o),
(116,65,o),
(115,56,c),
(113,40,o),
(120,26,o),
(130,16,c),
(138,8,o),
(145,4,o),
(157,1,c)
);
}
);
width = 300;
}
);
unicode = 808;
},
{
glyphname = Thirn;
lastChange = "2026-02-23 17:12:21 +0000";
layers = (
{
layerId = m01;
shapes = (
{
closed = 1;
nodes = (
(76,108,o),
(83,109,o),
(88,111,c),
(93,113,o),
(100,119,o),
(102,124,c),
(106,132,o),
(106,132,o),
(103,177,c),
(103,184,o),
(102,209,o),
(102,234,c),
(101,277,o),
(100,306,o),
(99,320,c),
(99,326,l),
(116,326,l),
(151,327,o),
(178,332,o),
(209,342,c),
(252,357,o),
(292,379,o),
(308,398,c),
(326,418,o),
(336,445,o),
(339,482,c),
(340,494,o),
(340,493,o),
(339,504,c),
(335,551,o),
(314,583,o),
(270,614,c),
(235,639,o),
(199,655,o),
(162,663,c),
(146,667,o),
(133,670,o),
(112,672,c),
(98,672,l),
(97,682,o),
(98,761,o),
(98,771,c),
(98,787,o),
(97,801,o),
(97,802,c),
(94,812,o),
(87,818,o),
(69,818,c),
(61,818,o),
(53,814,o),
(50,807,c),
(48,804,l),
(48,738,l),
(48,702,o),
(48,672,o),
(47,672,c),
(47,672,o),
(42,672,o),
(35,672,c),
(21,671,o),
(18,670,o),
(13,665,c),
(7,659,o),
(5,649,o),
(9,641,c),
(12,636,o),
(14,634,o),
(19,631,c),
(22,630,o),
(23,630,o),
(34,629,c),
(41,629,o),
(47,629,o),
(47,628,c),
(47,628,o),
(46,532,o),
(45,497,c),
(44,483,o),
(44,453,o),
(44,431,c),
(43,395,o),
(43,391,o),
(42,391,c),
(41,391,o),
(39,392,o),
(36,392,c),
(30,393,o),
(22,392,o),
(16,389,c),
(5,384,o),
(-2,370,o),
(0,358,c),
(2,347,o),
(10,338,o),
(20,335,c),
(23,334,o),
(29,333,o),
(35,332,c),
(45,330,l),
(45,324,l),
(45,320,o),
(46,284,o),
(46,243,c),
(47,145,o),
(48,132,o),
(53,123,c),
(57,116,o),
(64,111,o),
(72,109,c)
);
},
{
closed = 1;
nodes = (
(98,403,l),
(97,412,o),
(97,466,o),
(97,523,c),
(97,579,o),
(96,626,o),
(96,626,c),
(96,626,o),
(102,625,o),
(108,624,c),
(162,614,o),
(194,601,o),
(230,575,c),
(252,560,o),
(265,547,o),
(272,533,c),
(281,515,o),
(284,496,o),
(280,476,c),
(276,449,o),
(265,434,o),
(244,422,c),
(225,411,o),
(205,403,o),
(187,397,c),
(163,390,o),
(146,387,o),
(125,386,c),
(118,386,o),
(109,385,o),
(105,385,c),
(98,385,l)
);
}
